<svg width="24" height="24" viewBox="0 0 24 24" fill="none" xmlns="http://www.w3.org/2000/svg">
<path fill-rule="evenodd" clip-rule="evenodd" d="M12 2C9.79128 2 8 3.79128 8 6V7C8 9.20872 9.79128 11 12 11C14.2087 11 16 9.20872 16 7V6C16 3.79128 14.2087 2 12 2ZM6 6C6 2.68672 8.68672 0 12 0C15.3133 0 18 2.68672 18 6V7C18 10.3133 15.3133 13 12 13C8.68672 13 6 10.3133 6 7V6Z" fill="black"/>
<path opacity="0.55" fill-rule="evenodd" clip-rule="evenodd" d="M4.67126 16.0871C6.60818 15.5585 9.28977 15 12 15C14.7102 15 17.3918 15.5585 19.3287 16.0871M4.67126 16.0871C2.49464 16.6801 1 18.662 1 20.908V24H23V20.908C23 18.662 21.5054 16.6801 19.3287 16.0871M12 17C9.53851 17 7.04837 17.5114 5.19733 18.0167C3.90027 18.3699 3 19.5542 3 20.908V22H21V20.908C21 19.5542 20.1003 18.3701 18.8033 18.0169C16.9522 17.5116 14.4615 17 12 17Z" fill="black"/>
</svg>
