<svg width="24" height="24" viewBox="0 0 24 24" xmlns="http://www.w3.org/2000/svg"><path opacity=".5" d="M12 22a38.81 38.81 0 0 1-2.855-.1 2.992 2.992 0 0 0 5.71 0c-.894.066-1.844.1-2.855.1Z"/><path fill-rule="evenodd" clip-rule="evenodd" d="M21.707 2.293a1 1 0 0 1 0 1.414l-18 18a1 1 0 0 1-1.414-1.414l18-18a1 1 0 0 1 1.414 0Z"/><path d="M12 0a8 8 0 0 0-8 8v3c0 1.285-.557 2.078-1.25 2.863-.08.091-.168.188-.26.29-.279.306-.594.653-.835.99C1.308 15.63 1 16.239 1 17c0 .848.494 1.508 1.088 1.973.595.466 1.4.833 2.329 1.12l.058.018 1.641-1.642a13.268 13.268 0 0 1-1.108-.287c-.809-.25-1.36-.527-1.687-.783C2.997 17.145 3 17.005 3 17c0-.188.067-.392.282-.694a8.34 8.34 0 0 1 .612-.723l.356-.396C5.057 14.272 6 13.015 6 11V8a6 6 0 0 1 11.863-1.277l1.601-1.601A7.998 7.998 0 0 0 12 0Zm7.98 7.434L18 9.414V11c0 2.015.943 3.272 1.75 4.187.13.147.248.277.356.396a8 8 0 0 1 .611.723c.216.302.283.506.283.694 0 .005.003.145-.321.399-.328.256-.878.533-1.687.783C17.384 18.68 14.993 19 12 19c-1.252 0-2.4-.056-3.428-.158L6.786 20.63c1.5.24 3.258.371 5.214.371 3.107 0 5.716-.33 7.583-.907.929-.287 1.734-.654 2.329-1.12C22.506 18.508 23 17.848 23 17c0-.762-.308-1.37-.655-1.856-.241-.338-.556-.685-.835-.992-.092-.1-.18-.198-.26-.289C20.557 13.078 20 12.285 20 11V8c0-.19-.007-.378-.02-.566Z" opacity=".5"/></svg>