<svg width="24" height="24" viewBox="0 0 24 24" xmlns="http://www.w3.org/2000/svg"><path fill-rule="evenodd" clip-rule="evenodd" d="M7 20a1 1 0 0 1 1-1h8a1 1 0 1 1 0 2H8a1 1 0 0 1-1-1Z"/><g opacity=".7" fill-rule="evenodd" clip-rule="evenodd"><path d="M12 6a1 1 0 0 1 1 1v13a1 1 0 1 1-2 0V7a1 1 0 0 1 1-1Z"/><path d="M11 12a5 5 0 0 1 5-5h1a1 1 0 0 1 1 1v2a5 5 0 0 1-5 5h-1a1 1 0 0 1-1-1v-2Zm5-3a3 3 0 0 0-3 3v1a3 3 0 0 0 3-3V9Z"/></g><path fill-rule="evenodd" clip-rule="evenodd" d="M2 10C2 4.477 6.477 0 12 0s10 4.477 10 10c0 3.703-2.017 6.924-5 8.65V23a1 1 0 0 1-1 1H8a1 1 0 0 1-1-1v-4.35A9.978 9.978 0 0 1 2 10Zm10-8a8 8 0 0 0-8 8 7.992 7.992 0 0 0 4.446 7.158 1 1 0 0 1 .554.895V22h6v-3.947a1 1 0 0 1 .554-.895A7.992 7.992 0 0 0 20 10a8 8 0 0 0-8-8Z"/></svg>