<svg width="24" height="24" viewBox="0 0 24 24" xmlns="http://www.w3.org/2000/svg"><path fill-rule="evenodd" clip-rule="evenodd" d="M4 12a1 1 0 0 1 1-1h2a1 1 0 0 1 1 1v1a1 1 0 0 1-1 1H5a1 1 0 0 1-1-1v-1Zm6 0a1 1 0 0 1 1-1h2a1 1 0 0 1 1 1v1a1 1 0 0 1-1 1h-2a1 1 0 0 1-1-1v-1Zm-6 5a1 1 0 0 1 1-1h2a1 1 0 0 1 1 1v1a1 1 0 0 1-1 1H5a1 1 0 0 1-1-1v-1Zm6 0a1 1 0 0 1 1-1h2a1 1 0 0 1 1 1v1a1 1 0 0 1-1 1h-2a1 1 0 0 1-1-1v-1Zm6-5a1 1 0 0 1 1-1h2a1 1 0 0 1 1 1v1a1 1 0 0 1-1 1h-2a1 1 0 0 1-1-1v-1ZM6 0a1 1 0 0 1 1 1v3a1 1 0 0 1-2 0V1a1 1 0 0 1 1-1Zm12 0a1 1 0 0 1 1 1v3a1 1 0 1 1-2 0V1a1 1 0 0 1 1-1Z"/><path opacity=".7" fill-rule="evenodd" clip-rule="evenodd" d="M2 5a1 1 0 0 1 1-1h18a1 1 0 0 1 1 1v2H2V5ZM0 8V5a3 3 0 0 1 3-3h18a3 3 0 0 1 3 3v15a3 3 0 0 1-3 3H3a3 3 0 0 1-3-3V8Zm22 1v11a1 1 0 0 1-1 1H3a1 1 0 0 1-1-1V9h20Z"/></svg>