<svg width="24" height="24" viewBox="0 0 24 24" xmlns="http://www.w3.org/2000/svg"><path fill-rule="evenodd" clip-rule="evenodd" d="M3.067 7.353C3.627 3.247 7.204 0 11.5 0c4.246 0 7.686 3.079 8.39 7.08A5.014 5.014 0 0 1 24 12c0 2.353-1.609 4.365-3.771 4.873a1 1 0 1 1-.458-1.946C21.009 14.635 22 13.447 22 12c0-1.648-1.352-3-3-3a1 1 0 0 1-.997-.923C17.742 4.68 14.96 2 11.5 2 8.036 2 5.172 4.78 4.999 8.151a1 1 0 0 1-.77.922C2.991 9.365 2 10.553 2 12c0 1.407.959 2.551 2.282 2.94a1 1 0 0 1-.564 1.92C1.64 16.248 0 14.392 0 12c0-2.09 1.269-3.91 3.067-4.647Z"/><path opacity=".5" fill-rule="evenodd" clip-rule="evenodd" d="M12 16a1 1 0 0 1 1 1v6a1 1 0 1 1-2 0v-6a1 1 0 0 1 1-1Zm-4-3a1 1 0 0 1 1 1v6a1 1 0 1 1-2 0v-6a1 1 0 0 1 1-1Zm8 0a1 1 0 0 1 1 1v6a1 1 0 1 1-2 0v-6a1 1 0 0 1 1-1Z"/></svg>