<svg xmlns="http://www.w3.org/2000/svg" width="24" height="24" viewBox="0 0 24 24"><path fill-rule="evenodd" d="M7.744 6.272a.97.97 0 0 1 0 1.313L3.112 12.5l4.632 4.915a.97.97 0 0 1 0 1.313.84.84 0 0 1-1.238 0l-5.25-5.571a.97.97 0 0 1 0-1.314l5.25-5.571a.84.84 0 0 1 1.238 0Zm8.512 0a.84.84 0 0 1 1.238 0l5.25 5.571a.97.97 0 0 1 0 1.314l-5.25 5.571a.84.84 0 0 1-1.238 0 .97.97 0 0 1 0-1.313l4.632-4.915-4.632-4.915a.97.97 0 0 1 0-1.313Z" clip-rule="evenodd"/><path fill-rule="evenodd" d="M13.765 3.286a.674.674 0 0 1 .556.805l-3.556 17.603a.738.738 0 0 1-.836.578.674.674 0 0 1-.557-.805L12.93 3.864a.738.738 0 0 1 .836-.578Z" clip-rule="evenodd" opacity=".55"/></svg>