<svg width="24" height="24" viewBox="0 0 24 24" xmlns="http://www.w3.org/2000/svg"><g clip-path="url(#a)" fill-rule="evenodd" clip-rule="evenodd"><path d="M12 2C6.477 2 2 6.477 2 12s4.477 10 10 10 10-4.477 10-10S17.523 2 12 2ZM0 12C0 5.373 5.373 0 12 0s12 5.373 12 12-5.373 12-12 12S0 18.627 0 12Z"/><path d="M6.293 6.293a1 1 0 0 1 1.414 0l3.59 3.59a1 1 0 0 1-1.414 1.414l-3.59-3.59a1 1 0 0 1 0-1.414Z"/><path d="M12 11a1 1 0 1 0 0 2 1 1 0 0 0 0-2Zm-3 1a3 3 0 1 1 6 0 3 3 0 0 1-6 0Z"/><path opacity=".55" d="M12 4a1 1 0 0 1 1 1v1a1 1 0 1 1-2 0V5a1 1 0 0 1 1-1Zm5.657 2.343a1 1 0 0 1 0 1.414l-.707.707a1 1 0 1 1-1.414-1.414l.707-.707a1 1 0 0 1 1.414 0ZM17 12a1 1 0 0 1 1-1h1a1 1 0 1 1 0 2h-1a1 1 0 0 1-1-1ZM4 12a1 1 0 0 1 1-1h1a1 1 0 1 1 0 2H5a1 1 0 0 1-1-1Z"/></g><defs><clipPath id="a"><path fill="#fff" d="M0 0h24v24H0z"/></clipPath></defs></svg>