<svg width="24" height="24" viewBox="0 0 24 24" fill="none" xmlns="http://www.w3.org/2000/svg">
<path opacity="0.5" fill-rule="evenodd" clip-rule="evenodd" d="M12 2.00603C11.066 2.00603 10.1448 2.22409 9.30994 2.64286C8.47504 3.06163 7.74944 3.66954 7.19091 4.41818C6.63238 5.16682 6.25635 6.03552 6.09275 6.95512C5.92915 7.87471 5.98251 8.8198 6.24857 9.71514C6.40589 10.2445 6.10426 10.8012 5.57485 10.9586C5.04545 11.1159 4.48875 10.8142 4.33143 10.2848C3.97668 9.09106 3.90554 7.83094 4.12367 6.60481C4.3418 5.37869 4.84318 4.22042 5.58788 3.22223C6.33259 2.22404 7.30005 1.4135 8.41325 0.85514C9.52644 0.296781 10.7546 0.00602722 12 0.00602722C13.2454 0.00602722 14.4736 0.296781 15.5868 0.85514C16.7 1.4135 17.6674 2.22404 18.4121 3.22223C19.1568 4.22042 19.6582 5.37869 19.8763 6.60481C20.0945 7.83094 20.0233 9.09106 19.6686 10.2848C19.5113 10.8142 18.9546 11.1159 18.4251 10.9586C17.8957 10.8012 17.5941 10.2445 17.7514 9.71514C18.0175 8.8198 18.0708 7.87471 17.9072 6.95512C17.7437 6.03552 17.3676 5.16682 16.8091 4.41818C16.2506 3.66954 15.525 3.06163 14.6901 2.64286C13.8552 2.22409 12.934 2.00603 12 2.00603Z" fill="black"/>
<path opacity="0.5" fill-rule="evenodd" clip-rule="evenodd" d="M12 14C12.5523 14 13 14.4477 13 15V19C13 19.5523 12.5523 20 12 20C11.4477 20 11 19.5523 11 19V15C11 14.4477 11.4477 14 12 14Z" fill="black"/>
<path opacity="0.5" fill-rule="evenodd" clip-rule="evenodd" d="M7.83205 13.4453C8.1384 13.9048 8.01423 14.5257 7.5547 14.832L5 16.5352V19C5 19.5523 4.55228 20 4 20C3.44772 20 3 19.5523 3 19V16C3 15.6656 3.1671 15.3534 3.4453 15.1679L6.4453 13.1679C6.90483 12.8616 7.5257 12.9858 7.83205 13.4453Z" fill="black"/>
<path opacity="0.5" fill-rule="evenodd" clip-rule="evenodd" d="M16.1679 13.4453C16.4743 12.9858 17.0952 12.8616 17.5547 13.1679L20.5547 15.1679C20.8329 15.3534 21 15.6656 21 16V19C21 19.5523 20.5523 20 20 20C19.4477 20 19 19.5523 19 19V16.5352L16.4453 14.832C15.9858 14.5257 15.8616 13.9048 16.1679 13.4453Z" fill="black"/>
<path fill-rule="evenodd" clip-rule="evenodd" d="M12 6C10.8954 6 10 6.89543 10 8C10 9.10457 10.8954 10 12 10C13.1046 10 14 9.10457 14 8C14 6.89543 13.1046 6 12 6ZM8 8C8 5.79086 9.79086 4 12 4C14.2091 4 16 5.79086 16 8C16 10.2091 14.2091 12 12 12C9.79086 12 8 10.2091 8 8Z" fill="black"/>
<path fill-rule="evenodd" clip-rule="evenodd" d="M12 20C11.4477 20 11 20.4477 11 21C11 21.5523 11.4477 22 12 22C12.5523 22 13 21.5523 13 21C13 20.4477 12.5523 20 12 20ZM9 21C9 19.3431 10.3431 18 12 18C13.6569 18 15 19.3431 15 21C15 22.6569 13.6569 24 12 24C10.3431 24 9 22.6569 9 21Z" fill="black"/>
<path fill-rule="evenodd" clip-rule="evenodd" d="M4 20C3.44772 20 3 20.4477 3 21C3 21.5523 3.44772 22 4 22C4.55228 22 5 21.5523 5 21C5 20.4477 4.55228 20 4 20ZM1 21C1 19.3431 2.34315 18 4 18C5.65685 18 7 19.3431 7 21C7 22.6569 5.65685 24 4 24C2.34315 24 1 22.6569 1 21Z" fill="black"/>
<path fill-rule="evenodd" clip-rule="evenodd" d="M20 20C19.4477 20 19 20.4477 19 21C19 21.5523 19.4477 22 20 22C20.5523 22 21 21.5523 21 21C21 20.4477 20.5523 20 20 20ZM17 21C17 19.3431 18.3431 18 20 18C21.6569 18 23 19.3431 23 21C23 22.6569 21.6569 24 20 24C18.3431 24 17 22.6569 17 21Z" fill="black"/>
</svg>
