<svg width="24" height="24" viewBox="0 0 24 24" xmlns="http://www.w3.org/2000/svg"><path fill-rule="evenodd" clip-rule="evenodd" d="M6 4a1 1 0 0 0-1 1v15a1 1 0 0 0 1 1h12a1 1 0 0 0 1-1V5a1 1 0 0 0-1-1H6ZM3 5a3 3 0 0 1 3-3h12a3 3 0 0 1 3 3v15a3 3 0 0 1-3 3H6a3 3 0 0 1-3-3V5Z"/><path opacity=".7" fill-rule="evenodd" clip-rule="evenodd" d="M14 1a1 1 0 0 1 1-1h2a1 1 0 1 1 0 2h-2a1 1 0 0 1-1-1ZM8 11a1 1 0 0 1 1 1v1a1 1 0 1 1-2 0v-1a1 1 0 0 1 1-1Z"/><path fill-rule="evenodd" clip-rule="evenodd" d="M12 8a1 1 0 0 1 1 1v7a1 1 0 1 1-2 0V9a1 1 0 0 1 1-1Z"/><path opacity=".7" fill-rule="evenodd" clip-rule="evenodd" d="M16 10a1 1 0 0 1 1 1v3a1 1 0 1 1-2 0v-3a1 1 0 0 1 1-1Z"/></svg>