<svg width="24" height="24" viewBox="0 0 24 24" xmlns="http://www.w3.org/2000/svg"><path fill-rule="evenodd" clip-rule="evenodd" d="M12.711 1.297 12 2l-.711-.703a1 1 0 0 1 1.422 0ZM12 3.454a52.247 52.247 0 0 0-3.203 3.812c-.982 1.295-1.945 2.716-2.659 4.095C5.413 12.762 5 14.015 5 15c0 4.452 3.551 7 7 7 3.448 0 7-2.548 7-7 0-.985-.413-2.238-1.138-3.639-.714-1.379-1.677-2.8-2.659-4.094A52.24 52.24 0 0 0 12 3.454ZM12 2l-.711-.703-.008.008-.019.02a17.209 17.209 0 0 0-.332.345 54.226 54.226 0 0 0-3.727 4.388c-1.018 1.344-2.055 2.866-2.841 4.384C3.587 11.938 3 13.535 3 15c0 5.748 4.649 9 9 9 4.352 0 9-3.252 9-9 0-1.465-.587-3.062-1.362-4.558-.786-1.518-1.823-3.04-2.841-4.384a54.234 54.234 0 0 0-4.06-4.734l-.018-.02-.007-.006L12 2Z"/><path opacity=".5" fill-rule="evenodd" clip-rule="evenodd" d="M9 14a1 1 0 0 1 1 1c0 .836.358 1.293.77 1.578.463.321 1.01.422 1.23.422a1 1 0 1 1 0 2c-.58 0-1.533-.2-2.37-.778C8.743 17.607 8 16.564 8 15a1 1 0 0 1 1-1Z"/></svg>