<svg width="24" height="24" viewBox="0 0 24 24" xmlns="http://www.w3.org/2000/svg"><path opacity=".55" fill-rule="evenodd" clip-rule="evenodd" d="M1 22a1 1 0 0 1 1-1h20a1 1 0 1 1 0 2H2a1 1 0 0 1-1-1Z"/><path fill-rule="evenodd" clip-rule="evenodd" d="M16.414 3 19 5.586 8.507 16.079l-3.232.646.646-3.232L16.414 3Zm1.415-1.414a1.999 1.999 0 0 0-2.83 0L4.294 12.293a1 1 0 0 0-.274.51l-1 5a1 1 0 0 0 1.177 1.178l5-1a1 1 0 0 0 .511-.274L20.413 7.001a2 2 0 0 0 .001-2.83L17.83 1.587Z"/><path fill-rule="evenodd" clip-rule="evenodd" d="M12.293 4.293a1 1 0 0 1 1.414 0l4 4a1 1 0 0 1-1.414 1.414l-4-4a1 1 0 0 1 0-1.414Z"/></svg>