<svg width="24" height="24" viewBox="0 0 24 24" xmlns="http://www.w3.org/2000/svg"><path opacity=".7" fill-rule="evenodd" clip-rule="evenodd" d="M12 3.1a1 1 0 0 1 1 1v9.8a1 1 0 1 1-2 0V4.1a1 1 0 0 1 1-1Zm6 1a1 1 0 0 1 1 1v7.8a1 1 0 1 1-2 0V5.1a1 1 0 0 1 1-1Z"/><path fill-rule="evenodd" clip-rule="evenodd" d="M2 0a1 1 0 0 1 1 1v22a1 1 0 1 1-2 0V1a1 1 0 0 1 1-1Zm3.357 2.234a1 1 0 0 1 .817-.219l17 3A1 1 0 0 1 24 6v6a1 1 0 0 1-.826.985l-17 3A1 1 0 0 1 5 15V3a1 1 0 0 1 .357-.766ZM7 4.192v9.616l15-2.647V6.839L7 4.192Z"/></svg>