<svg xmlns="http://www.w3.org/2000/svg" width="24" height="24" viewBox="0 0 24 24"><path fill-rule="evenodd" d="M5 2a1 1 0 0 1 1-1h4a1 1 0 0 1 1 1v4a1 1 0 0 1-1 1H6a1 1 0 0 1-1-1V2Zm2 1v2h2V3H7Z" clip-rule="evenodd"/><path fill-rule="evenodd" d="M5 10a1 1 0 0 1 1-1h4a1 1 0 0 1 1 1v4a1 1 0 0 1-1 1H6a1 1 0 0 1-1-1v-4Zm2 1v2h2v-2H7Z" clip-rule="evenodd" opacity=".55"/><path fill-rule="evenodd" d="M5 18a1 1 0 0 1 1-1h4a1 1 0 0 1 1 1v4a1 1 0 0 1-1 1H6a1 1 0 0 1-1-1v-4Zm2 1v2h2v-2H7Z" clip-rule="evenodd"/><path fill-rule="evenodd" d="M13 2a1 1 0 0 1 1-1h4a1 1 0 0 1 1 1v4a1 1 0 0 1-1 1h-4a1 1 0 0 1-1-1V2Zm2 1v2h2V3h-2Z" clip-rule="evenodd" opacity=".55"/><path fill-rule="evenodd" d="M13 10a1 1 0 0 1 1-1h4a1 1 0 0 1 1 1v4a1 1 0 0 1-1 1h-4a1 1 0 0 1-1-1v-4Zm2 1v2h2v-2h-2Z" clip-rule="evenodd"/><path fill-rule="evenodd" d="M13 18a1 1 0 0 1 1-1h4a1 1 0 0 1 1 1v4a1 1 0 0 1-1 1h-4a1 1 0 0 1-1-1v-4Zm2 1v2h2v-2h-2Z" clip-rule="evenodd" opacity=".55"/></svg>