<svg width="24" height="24" viewBox="0 0 24 24" fill="none" xmlns="http://www.w3.org/2000/svg">
<g clip-path="url(#clip0_1727_890)">
<path fill-rule="evenodd" clip-rule="evenodd" d="M2.05185 3.0499C4.78538 0.316375 9.21754 0.316375 11.9511 3.0499C11.9678 3.06664 11.9844 3.08344 12.001 3.10031C12.0175 3.08345 12.0341 3.06664 12.0509 3.0499C14.7844 0.316375 19.2165 0.316375 21.9501 3.0499C24.6836 5.78342 24.6836 10.2156 21.9501 12.9491L12.7071 22.1921C12.5195 22.3797 12.2651 22.485 11.9999 22.485C11.7347 22.485 11.4803 22.3796 11.2928 22.192L2.05185 12.9491C2.05183 12.9491 2.0518 12.9491 2.05178 12.949C-0.681672 10.2155 -0.681646 5.7834 2.05185 3.0499ZM10.5369 4.46411C8.58438 2.51164 5.41854 2.51164 3.46607 4.46411C1.51359 6.41659 1.51359 9.58242 3.46607 11.5349L3.46614 11.535L12 20.0707L20.5359 11.5349C22.4883 9.58242 22.4883 6.41659 20.5359 4.46411C18.5834 2.51164 15.4175 2.51164 13.4651 4.46411C13.2253 4.7039 13.0161 4.96281 12.8342 5.23694C12.6489 5.51616 12.3361 5.68401 12.001 5.68401C11.6659 5.68401 11.353 5.51616 11.1677 5.23694C10.9859 4.96292 10.7757 4.70299 10.5369 4.46411Z" fill="black"/>
</g>
<defs>
<clipPath id="clip0_1727_890">
<rect width="24" height="24" fill="white"/>
</clipPath>
</defs>
</svg>
