<svg width="24" height="24" viewBox="0 0 24 24" fill="none" xmlns="http://www.w3.org/2000/svg">
<path fill-rule="evenodd" clip-rule="evenodd" d="M13.4258 2.09518C13.8232 2.2822 14.0521 2.70663 13.99 3.14142L13.153 9H21C21.3958 9 21.7544 9.23346 21.9145 9.59544C22.0747 9.95742 22.0062 10.3798 21.74 10.6727L11.74 21.6727C11.4445 21.9977 10.9716 22.0918 10.5742 21.9048C10.1768 21.7178 9.94796 21.2934 10.0101 20.8586L10.847 15H3.00002C2.6042 15 2.24563 14.7665 2.08551 14.4045C1.92538 14.0426 1.99382 13.6202 2.26008 13.3273L12.2601 2.32732C12.5555 2.00234 13.0284 1.90817 13.4258 2.09518ZM5.26057 13H12C12.2899 13 12.5655 13.1258 12.7555 13.3448C12.9454 13.5638 13.031 13.8544 12.99 14.1414L12.4505 17.9179L18.7395 11H12C11.7101 11 11.4345 10.8742 11.2446 10.6552C11.0546 10.4362 10.9691 10.1456 11.0101 9.85857L11.5496 6.0821L5.26057 13Z" fill="black"/>
</svg>
