<svg xmlns="http://www.w3.org/2000/svg" width="24" height="24" viewBox="0 0 24 24"><path fill-rule="evenodd" d="M12 2a4 4 0 0 0-4 4v1a4 4 0 0 0 8 0V6a4 4 0 0 0-4-4ZM6 6a6 6 0 0 1 12 0v1A6 6 0 0 1 6 7V6Z" clip-rule="evenodd"/><path fill-rule="evenodd" d="M4.671 16.087C6.608 15.56 9.29 15 12 15s5.392.559 7.329 1.087m-14.658 0A4.99 4.99 0 0 0 1 20.908V24h22v-3.092a4.99 4.99 0 0 0-3.671-4.82M12 17c-2.461 0-4.952.511-6.803 1.017A2.99 2.99 0 0 0 3 20.908V22h18v-1.092a2.99 2.99 0 0 0-2.197-2.891C16.953 17.512 14.461 17 12 17Z" clip-rule="evenodd" opacity=".55"/></svg>