<svg xmlns="http://www.w3.org/2000/svg" width="24" height="24" viewBox="0 0 24 24"><g fill-rule="evenodd" clip-rule="evenodd" opacity=".55"><path d="M12.136 15.767a1 1 0 0 1 1.366-.364 3 3 0 1 1-4.104 4.091 1 1 0 0 1 1.734-.997 1 1 0 1 0 1.368-1.364 1 1 0 0 1-.364-1.366Zm-6.5-4.131A8.975 8.975 0 0 1 12 9a8.975 8.975 0 0 1 6.364 2.636 1 1 0 0 1-1.414 1.414A6.975 6.975 0 0 0 12 11a6.975 6.975 0 0 0-4.95 2.05 1 1 0 0 1-1.414-1.414Z"/><path d="M1.394 7.394A14.952 14.952 0 0 1 12 3c4.142 0 7.893 1.68 10.606 4.394a1 1 0 1 1-1.414 1.414A12.953 12.953 0 0 0 12 5C8.41 5 5.161 6.454 2.808 8.808a1 1 0 0 1-1.414-1.414Z"/></g><path fill-rule="evenodd" d="M22.707 1.293a1 1 0 0 1 0 1.414l-18 18a1 1 0 0 1-1.414-1.414l18-18a1 1 0 0 1 1.414 0Z" clip-rule="evenodd"/></svg>