<svg width="24" height="24" viewBox="0 0 24 24" xmlns="http://www.w3.org/2000/svg"><path fill-rule="evenodd" clip-rule="evenodd" d="M12 2C8.551 2 5 4.548 5 9c0 .985.413 2.238 1.138 3.639.714 1.379 1.677 2.8 2.659 4.094A52.23 52.23 0 0 0 12 20.546a52.223 52.223 0 0 0 3.203-3.812c.982-1.295 1.945-2.716 2.659-4.095C18.587 11.238 19 9.985 19 9c0-4.452-3.552-7-7-7Zm0 20c-.711.703-.712.702-.712.702l-.007-.007-.019-.02a24.226 24.226 0 0 1-.332-.345 54.22 54.22 0 0 1-3.727-4.388c-1.018-1.344-2.055-2.866-2.841-4.384C3.587 12.062 3 10.465 3 9c0-5.748 4.649-9 9-9 4.352 0 9 3.252 9 9 0 1.465-.587 3.062-1.362 4.558-.786 1.518-1.823 3.04-2.841 4.384a54.228 54.228 0 0 1-4.06 4.734l-.018.02-.007.006L12 22Zm0 0 .711.703-.711.72-.712-.72L12 22Z"/><path opacity=".55" fill-rule="evenodd" clip-rule="evenodd" d="M12 7a2 2 0 1 0 0 4 2 2 0 0 0 0-4ZM8 9a4 4 0 1 1 8 0 4 4 0 0 1-8 0Z"/></svg>