<svg width="24" height="24" viewBox="0 0 24 24" xmlns="http://www.w3.org/2000/svg"><g clip-path="url(#a)" fill-rule="evenodd" clip-rule="evenodd"><path d="M10.08 6.003a1 1 0 0 1 .848.626l3.252 8.128 1.962-3.271A1 1 0 0 1 17 11h6a1 1 0 1 1 0 2h-5.434l-2.708 4.515a1 1 0 0 1-1.787-.144l-3.25-8.128-1.964 3.271A1 1 0 0 1 7 13H1a1 1 0 1 1 0-2h5.434l2.709-4.514a1 1 0 0 1 .937-.483Z"/><path d="M4 15a1 1 0 0 1 1 1v4.998A1.006 1.006 0 0 0 6.002 22h11.996A1.006 1.006 0 0 0 19 20.998V16a1 1 0 1 1 2 0v5.003A3.006 3.006 0 0 1 18.003 24H5.997A3.006 3.006 0 0 1 3 21.003V16a1 1 0 0 1 1-1ZM6 0h12.003A3.006 3.006 0 0 1 21 2.997V8a1 1 0 1 1-2 0V3.002A1.006 1.006 0 0 0 17.998 2H6.002A1.006 1.006 0 0 0 5 3.002V8a1 1 0 0 1-2 0V2.997A3.006 3.006 0 0 1 5.997 0H6Z" opacity=".55"/></g><defs><clipPath id="a"><path fill="#fff" d="M0 0h24v24H0z"/></clipPath></defs></svg>