<svg width="24" height="24" viewBox="0 0 24 24" fill="none" xmlns="http://www.w3.org/2000/svg">
<path fill-rule="evenodd" clip-rule="evenodd" d="M10.0799 6.00319C10.4586 6.03354 10.7874 6.27586 10.9285 6.62861L14.1797 14.7568L16.1425 11.4855C16.3232 11.1843 16.6487 11 17 11H23C23.5523 11 24 11.4477 24 12C24 12.5523 23.5523 13 23 13H17.5662L14.8575 17.5145C14.662 17.8403 14.2988 18.0271 13.9201 17.9968C13.5414 17.9665 13.2126 17.7241 13.0715 17.3714L9.82026 9.24322L7.85749 12.5145C7.67677 12.8157 7.35126 13 7 13H1C0.447715 13 0 12.5523 0 12C0 11.4477 0.447715 11 1 11H6.43381L9.14251 6.4855C9.33797 6.15972 9.70117 5.97285 10.0799 6.00319Z" fill="black"/>
<g opacity="0.55">
<path fill-rule="evenodd" clip-rule="evenodd" d="M4.00002 15C4.5523 15 5.00002 15.4477 5.00002 16V18.9983C5.00113 19.2636 5.10702 19.5177 5.29466 19.7054C5.4823 19.893 5.73647 19.9989 6.0018 20H17.9982C18.2636 19.9989 18.5177 19.893 18.7054 19.7054C18.893 19.5177 18.9989 19.2636 19 18.9983V16C19 15.4477 19.4477 15 20 15C20.5523 15 21 15.4477 21 16V19L21 19.003C20.9976 19.7971 20.6811 20.558 20.1196 21.1196C19.5581 21.6811 18.7971 21.9976 18.003 22L18 22H6.00002L5.99703 22C5.2029 21.9976 4.44198 21.6811 3.88044 21.1196C3.31891 20.558 3.00239 19.7971 3.00002 19.003L3.00002 19V16C3.00002 15.4477 3.44773 15 4.00002 15Z" fill="black"/>
<path fill-rule="evenodd" clip-rule="evenodd" d="M6 2H18.003C18.7971 2.00238 19.558 2.31889 20.1196 2.88043C20.6811 3.44196 20.9976 4.20289 21 4.99701L21 5L21 8C21 8.55228 20.5523 9 20 9C19.4477 9 19 8.55228 19 8V5.00168C18.9989 4.73638 18.893 4.48226 18.7054 4.29464C18.5177 4.10701 18.2636 4.00112 17.9983 4H6.00175C5.73643 4.00112 5.48227 4.10701 5.29464 4.29464C5.10701 4.48227 5.00112 4.73643 5 5.00175V8C5 8.55228 4.55228 9 4 9C3.44772 9 3 8.55228 3 8V4.99701C3.00237 4.20289 3.31889 3.44196 3.88043 2.88043C4.44196 2.31889 5.20289 2.00238 5.99701 2L6 2Z" fill="black"/>
</g>
</svg>
