<svg width="24" height="24" viewBox="0 0 24 24" xmlns="http://www.w3.org/2000/svg"><path opacity=".7" fill-rule="evenodd" clip-rule="evenodd" d="M22.555 2.168a1 1 0 0 1 .277 1.387l-6 9a1 1 0 0 1-1.413.259L9.37 8.494l-2.477 4.953a1 1 0 1 1-1.788-.894l3-6a1 1 0 0 1 1.475-.367l6.16 4.4 5.427-8.14a1 1 0 0 1 1.387-.278ZM4.693 15.614a1 1 0 0 1 .447 1.341l-2.246 4.492a1 1 0 1 1-1.788-.894l2.246-4.492a1 1 0 0 1 1.341-.447Z"/><path fill-rule="evenodd" clip-rule="evenodd" d="M1 13a1 1 0 0 1 1-1h4c.155 0 .308.036.447.106l9.481 4.74 5.517-3.678a1 1 0 0 1 1.11 1.664l-6 4a1 1 0 0 1-1.002.062L5.763 14H2a1 1 0 0 1-1-1Z"/></svg>