<svg width="24" height="24" viewBox="0 0 24 24" xmlns="http://www.w3.org/2000/svg"><g clip-path="url(#a)"><path fill-rule="evenodd" clip-rule="evenodd" d="M12 2a10 10 0 1 0 10 10 1 1 0 1 1 2 0A12 12 0 1 1 12 0a1 1 0 1 1 0 2Z"/><path d="M12 14a2 2 0 1 0 0-4 2 2 0 0 0 0 4Z"/><path d="M12.976 7.096A5 5 0 0 0 7 12a1 1 0 1 1-2 0 7 7 0 1 1 7 7 1 1 0 1 1 0-2 5 5 0 0 0 .976-9.904Zm2.093-5.71A1 1 0 0 1 16.365.82a12.035 12.035 0 0 1 6.816 6.815 1 1 0 1 1-1.862.73 10.034 10.034 0 0 0-5.684-5.683 1 1 0 0 1-.566-1.296Z" opacity=".55" fill-rule="evenodd" clip-rule="evenodd"/></g><defs><clipPath id="a"><path fill="#fff" d="M0 0h24v24H0z"/></clipPath></defs></svg>