<svg xmlns="http://www.w3.org/2000/svg" width="24" height="24" viewBox="0 0 24 24"><g fill-rule="evenodd" clip-path="url(#a)" clip-rule="evenodd"><path d="M12 2a5 5 0 1 0 0 10 5 5 0 0 0 0-10M5 7a7 7 0 1 1 14 0A7 7 0 0 1 5 7"/><path d="M12 12a1 1 0 0 1 1 1v6a1 1 0 1 1-2 0v-6a1 1 0 0 1 1-1"/><path d="M8.994 17.1a1 1 0 0 1-.888 1.1c-2 .212-3.653.58-4.777 1.02-.567.222-.944.442-1.161.628A.924.924 0 0 0 2.02 20c.04.056.14.168.386.327.435.28 1.13.57 2.079.83C6.368 21.67 9.025 22 12 22c2.975 0 5.632-.33 7.515-.843.949-.26 1.644-.55 2.079-.83.246-.159.347-.271.386-.327a.923.923 0 0 0-.148-.152c-.217-.186-.594-.406-1.16-.628-1.125-.44-2.778-.808-4.778-1.02a1 1 0 0 1 .212-1.99c2.097.224 3.944.618 5.295 1.148.672.263 1.277.581 1.732.97.449.384.867.944.867 1.672 0 .944-.689 1.6-1.323 2.008-.678.438-1.594.794-2.636 1.078-2.098.572-4.94.914-8.041.914-3.1 0-5.943-.342-8.041-.914-1.042-.284-1.958-.64-2.636-1.078C.689 21.6 0 20.944 0 20c0-.729.418-1.288.868-1.672.454-.389 1.06-.707 1.73-.97 1.352-.53 3.199-.924 5.296-1.147a1 1 0 0 1 1.1.888Zm13.012 2.944-.002-.005zm-20.012 0 .002-.005a.02.02 0 0 1-.002.005" opacity=".55"/></g><defs><clipPath id="a"><path fill="#fff" d="M0 0h24v24H0z"/></clipPath></defs></svg>