<svg xmlns="http://www.w3.org/2000/svg" width="24" height="24" viewBox="0 0 24 24"><path fill-rule="evenodd" d="M12.707 8.293 12 9l-.707-.707a1 1 0 0 1 1.414 0ZM12 10.455l-.041.046a31.635 31.635 0 0 0-1.666 1.984c-.607.788-1.195 1.644-1.627 2.465C8.222 15.794 8 16.494 8 17c0 2.546 2.045 4 4 4s4-1.454 4-4c0-.506-.222-1.206-.666-2.05-.432-.821-1.02-1.677-1.627-2.465a32.135 32.135 0 0 0-1.666-1.984zm-.707-2.162L12 9l.707-.707.005.005.013.013.045.046a32.468 32.468 0 0 1 .751.799 34.126 34.126 0 0 1 1.772 2.11c.643.836 1.305 1.793 1.81 2.753.494.937.897 1.987.897 2.981 0 3.854-3.155 6-6 6s-6-2.146-6-6c0-.994.403-2.044.896-2.981.506-.96 1.168-1.917 1.811-2.754a34.158 34.158 0 0 1 2.523-2.908l.045-.046.013-.013.005-.005Z" clip-rule="evenodd"/><path fill-rule="evenodd" d="M20.719 1.305 20 2l-.719-.695a1 1 0 0 1 1.438 0ZM20 3.503c-.215.255-.456.555-.696.88-.357.48-.696.996-.942 1.484C18.105 6.376 18 6.758 18 7c0 1.262.963 2 2 2s2-.738 2-2c0-.242-.105-.624-.362-1.133a10.643 10.643 0 0 0-.942-1.484c-.24-.325-.482-.625-.696-.88M20 2c-.719-.695-.718-.696-.719-.695l-.001.001-.003.003-.008.008-.028.03-.103.11a21.119 21.119 0 0 0-1.441 1.735 12.62 12.62 0 0 0-1.121 1.775C16.27 5.574 16 6.292 16 7c0 2.538 2.037 4 4 4s4-1.462 4-4c0-.708-.27-1.426-.576-2.033a12.62 12.62 0 0 0-1.12-1.775 21.119 21.119 0 0 0-1.545-1.845l-.028-.03-.009-.008-.002-.003-.001-.001zM4.719 1.305 4 2l-.719-.695a1 1 0 0 1 1.438 0ZM4 3.503a18.4 18.4 0 0 0-.696.88c-.357.48-.696.996-.942 1.484C2.105 6.376 2 6.758 2 7c0 1.262.963 2 2 2s2-.738 2-2c0-.242-.105-.624-.362-1.133a10.648 10.648 0 0 0-.942-1.484A18.4 18.4 0 0 0 4 3.503M4 2c-.719-.695-.718-.696-.719-.695l-.001.001-.002.003-.009.008-.028.03-.103.11a21.098 21.098 0 0 0-1.441 1.735A12.614 12.614 0 0 0 .575 4.967C.27 5.574 0 6.292 0 7c0 2.538 2.037 4 4 4s4-1.462 4-4c0-.708-.27-1.426-.576-2.033a12.614 12.614 0 0 0-1.12-1.775 21.098 21.098 0 0 0-1.545-1.845l-.028-.03-.009-.008-.002-.003-.001-.001z" clip-rule="evenodd" opacity=".55"/></svg>