<svg xmlns="http://www.w3.org/2000/svg" width="24" height="24" viewBox="0 0 24 24"><path fill-rule="evenodd" d="M12 2.006a6 6 0 0 0-5.751 7.71 1 1 0 0 1-1.918.569 8 8 0 1 1 15.338 0 1 1 0 0 1-1.918-.57A6 6 0 0 0 12 2.006M12 14a1 1 0 0 1 1 1v4a1 1 0 1 1-2 0v-4a1 1 0 0 1 1-1m-4.168-.555a1 1 0 0 1-.277 1.387L5 16.535V19a1 1 0 1 1-2 0v-3a1 1 0 0 1 .445-.832l3-2a1 1 0 0 1 1.387.277m8.336 0a1 1 0 0 1 1.387-.277l3 2A1 1 0 0 1 21 16v3a1 1 0 1 1-2 0v-2.465l-2.555-1.703a1 1 0 0 1-.277-1.387" clip-rule="evenodd" opacity=".5"/><path fill-rule="evenodd" d="M12 6a2 2 0 1 0 0 4 2 2 0 0 0 0-4M8 8a4 4 0 1 1 8 0 4 4 0 0 1-8 0m4 12a1 1 0 1 0 0 2 1 1 0 0 0 0-2m-3 1a3 3 0 1 1 6 0 3 3 0 0 1-6 0m-5-1a1 1 0 1 0 0 2 1 1 0 0 0 0-2m-3 1a3 3 0 1 1 6 0 3 3 0 0 1-6 0m19-1a1 1 0 1 0 0 2 1 1 0 0 0 0-2m-3 1a3 3 0 1 1 6 0 3 3 0 0 1-6 0" clip-rule="evenodd"/></svg>