<svg xmlns="http://www.w3.org/2000/svg" width="24" height="24" viewBox="0 0 24 24"><g clip-path="url(#a)"><path d="M13 17a1 1 0 1 0-2 0 1 1 0 0 0 2 0m2 0a3 3 0 1 1-6 0 3 3 0 0 1 6 0" opacity=".55"/><path d="M20 13a1 1 0 0 0-1-1H5a1 1 0 0 0-1 1v8a1 1 0 0 0 1 1h14a1 1 0 0 0 1-1zm2 8a3 3 0 0 1-3 3H5a3 3 0 0 1-3-3v-8a3 3 0 0 1 3-3h14a3 3 0 0 1 3 3zM16 7V5.99a3.95 3.95 0 0 0-3.715-3.983L12.09 2h-.1A3.95 3.95 0 0 0 8 5.91V7a1 1 0 0 1-2 0V5.89l.01-.296A5.95 5.95 0 0 1 12 .001L12.11 0A5.95 5.95 0 0 1 18 6v1a1 1 0 1 1-2 0"/></g><defs><clipPath id="a"><path fill="#fff" d="M0 0h24v24H0z"/></clipPath></defs></svg>