<svg xmlns="http://www.w3.org/2000/svg" width="24" height="24" viewBox="0 0 24 24"><path fill-rule="evenodd" d="M12 3c-4.948 0-9 4.052-9 9a1 1 0 1 1-2 0C1 5.948 5.948 1 12 1c4.283 0 8.032 2.418 9.8 6.064a1 1 0 1 1-1.8.872C18.568 4.982 15.517 3 12 3m10 8a1 1 0 0 1 1 1c0 6.052-4.948 11-11 11-4.283 0-8.032-2.419-9.8-6.064a1 1 0 1 1 1.8-.872C5.432 19.018 8.483 21 12 21c4.948 0 9-4.052 9-9a1 1 0 0 1 1-1" clip-rule="evenodd" opacity=".55"/><path fill-rule="evenodd" d="M21.934.71a1 1 0 0 1 .857 1.124l-.8 5.9a1 1 0 0 1-1.123.857l-6-.8a1 1 0 0 1 .264-1.982l5.011.668.666-4.911a1 1 0 0 1 1.125-.857ZM2.01 16.266a1 1 0 0 1 1.122-.857l6 .8a1 1 0 1 1-.264 1.982l-5.011-.668-.666 4.911a1 1 0 0 1-1.982-.268l.8-5.9Z" clip-rule="evenodd"/></svg>