<svg xmlns="http://www.w3.org/2000/svg" width="24" height="24" viewBox="0 0 24 24"><path d="m12.083 10.75.128.006a1.25 1.25 0 0 1-.117 2.494h-.188a1.25 1.25 0 0 1 .011-2.5zm-6.915.073a1.25 1.25 0 0 1 1.436-.862l.125.031.069.02.078.024a1.25 1.25 0 0 1-.706 2.399l-.09-.028-.081-.024-.12-.043a1.25 1.25 0 0 1-.711-1.517m12.662 1.612a1.25 1.25 0 0 1-.706-2.399zm-.434-2.474A1.25 1.25 0 0 1 18 12.383l-.08.024-.09.028-.707-2.399.078-.023.07-.02zM1.313 11.955a1.25 1.25 0 0 1 1.458.063l.054.042.098.083A1.25 1.25 0 0 1 2 14.295a1.247 1.247 0 0 1-.826-2.235l.054-.042zm20 0a1.25 1.25 0 0 1 1.459.063l.053.042.098.083A1.25 1.25 0 0 1 22 14.295a1.247 1.247 0 0 1-.826-2.235l.053-.042zM17.5 16.321a1 1 0 0 1 .787.384 6 6 0 0 0 4.373 2.285L23 19l.102.006a1 1 0 0 1 0 1.989L23 21l-.453-.013a8 8 0 0 1-3.044-.793 8 8 0 0 1-2.003-1.395 8 8 0 0 1-2.003 1.395A7.985 7.985 0 0 1 6.5 18.799a8 8 0 0 1-2.003 1.395A8 8 0 0 1 1 21a1 1 0 1 1 0-2 5.99 5.99 0 0 0 4.713-2.295l.075-.086a1 1 0 0 1 1.5.086l.217.262a5.986 5.986 0 0 0 9.208-.262l.075-.086a1 1 0 0 1 .712-.298m0-14a1 1 0 0 1 .787.384A6 6 0 0 0 22.66 4.99L23 5l.102.006a1 1 0 0 1 0 1.989L23 7l-.453-.013a8 8 0 0 1-3.044-.793 8 8 0 0 1-2.004-1.395 8 8 0 0 1-.577.502v.001a7.99 7.99 0 0 1-10.425-.5 8 8 0 0 1-2 1.392A8 8 0 0 1 1 7a1 1 0 0 1 0-2 5.99 5.99 0 0 0 4.713-2.295l.075-.086a1 1 0 0 1 1.5.086 5.986 5.986 0 0 0 8.402 1.022l.279-.231q.408-.361.743-.791l.076-.086a1 1 0 0 1 .712-.298"/></svg>