<svg xmlns="http://www.w3.org/2000/svg" width="24" height="24" viewBox="0 0 24 24"><path fill-rule="evenodd" d="M23 8a1 1 0 0 1 1 1v6a1 1 0 1 1-2 0V9a1 1 0 0 1 1-1ZM3 6a1 1 0 0 0-1 1v10a1 1 0 0 0 1 1h15a1 1 0 0 0 1-1V7a1 1 0 0 0-1-1H3ZM0 7a3 3 0 0 1 3-3h15a3 3 0 0 1 3 3v10a3 3 0 0 1-3 3H3a3 3 0 0 1-3-3V7Z" clip-rule="evenodd"/><path fill-rule="evenodd" d="M9.507 9.13a1 1 0 0 1 1.008.013l5 3a1 1 0 0 1-1.03 1.714L11 11.768V14a1 1 0 0 1-1.514.857l-5-3a1 1 0 0 1 1.028-1.714L9 12.232V10a1 1 0 0 1 .507-.87Z" clip-rule="evenodd" opacity=".55"/></svg>