<svg xmlns="http://www.w3.org/2000/svg" width="24" height="24" viewBox="0 0 24 24"><path fill-rule="evenodd" d="M3.067 10.353C3.627 6.247 7.204 3 11.5 3c4.246 0 7.686 3.079 8.39 7.08A5.014 5.014 0 0 1 24 15c0 2.752-2.248 5-5 5H5c-2.752 0-5-2.248-5-5 0-2.09 1.269-3.91 3.067-4.647M11.5 5c-3.464 0-6.328 2.78-6.501 6.151a1 1 0 0 1-.77.922C2.991 12.365 2 13.553 2 15c0 1.648 1.352 3 3 3h14c1.648 0 3-1.352 3-3s-1.352-3-3-3a1 1 0 0 1-.997-.923C17.742 7.68 14.96 5 11.5 5" clip-rule="evenodd" opacity=".5"/><path d="M12 10a2 2 0 1 1-4 0 2 2 0 0 1 4 0m3.915 1a1.5 1.5 0 1 1-3 0 1.5 1.5 0 0 1 3 0M13 14.5a1.5 1.5 0 1 1-3 0 1.5 1.5 0 0 1 3 0m-4 0a1.5 1.5 0 1 1-3 0 1.5 1.5 0 0 1 3 0m8.5 0a1.5 1.5 0 1 1-3 0 1.5 1.5 0 0 1 3 0"/></svg>