<svg xmlns="http://www.w3.org/2000/svg" width="24" height="24" viewBox="0 0 24 24"><path fill-rule="evenodd" d="M22.707 12.707a1 1 0 0 1-1.414 0L12 3.414l-9.293 9.293a1 1 0 0 1-1.414-1.414l10-10a1 1 0 0 1 1.414 0l10 10a1 1 0 0 1 0 1.414Z" clip-rule="evenodd"/><g fill-rule="evenodd" clip-rule="evenodd" opacity=".55"><path d="M22.707 22.707a1 1 0 0 1-1.414 0L12 13.414l-9.293 9.293a1 1 0 0 1-1.414-1.414l10-10a1 1 0 0 1 1.414 0l10 10a1 1 0 0 1 0 1.414"/><path d="M22.707 17.707a1 1 0 0 1-1.414 0L12 8.414l-9.293 9.293a1 1 0 0 1-1.414-1.414l10-10a1 1 0 0 1 1.414 0l10 10a1 1 0 0 1 0 1.414"/></g></svg>