<svg xmlns="http://www.w3.org/2000/svg" width="24" height="24" viewBox="0 0 24 24"><path d="M2.766 11.006a3.845 3.845 0 0 0 3.845 3.846h3.846V7.16H6.61a3.845 3.845 0 0 0-3.845 3.845" opacity=".55"/><path d="M2 11.006a4.62 4.62 0 0 1 4.611-4.611h3.83c.286-.015 5.153-.36 9.794-4.258a1.54 1.54 0 0 1 2.531 1.179v15.38a1.539 1.539 0 0 1-2.53 1.18c-3.628-3.05-7.406-3.92-9.006-4.168v3.056a1.54 1.54 0 0 1-.683 1.277l-1.06.706a1.54 1.54 0 0 1-2.342-.894L6.01 15.588A4.62 4.62 0 0 1 2 11.006m19.226 7.683V3.316c-4.115 3.454-8.328 4.326-9.996 4.543v6.294c1.668.218 5.88 1.097 9.996 4.536m-12.594.774v.007l1.059-.706v-3.146H7.61zm-2.02-5.378H9.69V7.927H6.61a3.08 3.08 0 0 0 0 6.159"/></svg>