<svg xmlns="http://www.w3.org/2000/svg" width="24" height="24" viewBox="0 0 24 24"><g fill-rule="evenodd" clip-path="url(#a)" clip-rule="evenodd"><path d="M0 12a1 1 0 0 1 1-1h1a1 1 0 1 1 0 2H1a1 1 0 0 1-1-1m3.493-8.507a1 1 0 0 1 1.414 0l.7.7a1 1 0 1 1-1.414 1.414l-.7-.7a1 1 0 0 1 0-1.414M12 0a1 1 0 0 1 1 1v1a1 1 0 1 1-2 0V1a1 1 0 0 1 1-1m8.507 3.493a1 1 0 0 1 0 1.414l-.7.7a1 1 0 1 1-1.414-1.414l.7-.7a1 1 0 0 1 1.414 0M21 12a1 1 0 0 1 1-1h1a1 1 0 1 1 0 2h-1a1 1 0 0 1-1-1m-2.607 6.393a1 1 0 0 1 1.414 0l.7.7a1 1 0 0 1-1.414 1.414l-.7-.7a1 1 0 0 1 0-1.414M12 21a1 1 0 0 1 1 1v1a1 1 0 1 1-2 0v-1a1 1 0 0 1 1-1m-6.393-2.607a1 1 0 0 1 0 1.414l-.7.7a1 1 0 0 1-1.414-1.414l.7-.7a1 1 0 0 1 1.414 0" opacity=".5"/><path d="M12 7a5 5 0 1 0 0 10 5 5 0 0 0 0-10m-7 5a7 7 0 1 1 14 0 7 7 0 0 1-14 0"/></g><defs><clipPath id="a"><path fill="#fff" d="M0 0h24v24H0z"/></clipPath></defs></svg>