<svg width="24" height="24" viewBox="0 0 24 24" fill="none" xmlns="http://www.w3.org/2000/svg">
<g opacity="0.55">
<path fill-rule="evenodd" clip-rule="evenodd" d="M22.5547 2.16795C23.0142 2.4743 23.1384 3.09517 22.8321 3.5547L16.8321 12.5547C16.6818 12.78 16.4467 12.9348 16.1803 12.9836C15.9139 13.0324 15.6391 12.9711 15.4188 12.8137L9.37106 8.49395L6.89443 13.4472C6.64744 13.9412 6.04676 14.1414 5.55279 13.8944C5.05881 13.6474 4.85858 13.0468 5.10557 12.5528L8.10557 6.55279C8.23636 6.2912 8.47511 6.09999 8.75895 6.02949C9.04278 5.95899 9.34325 6.01628 9.58124 6.18627L15.7408 10.586L21.1679 2.4453C21.4743 1.98577 22.0952 1.8616 22.5547 2.16795Z" fill="black"/>
<path fill-rule="evenodd" clip-rule="evenodd" d="M4.69321 15.6136C5.18719 15.8606 5.38742 16.4612 5.14043 16.9552L2.89443 21.4472C2.64744 21.9412 2.04676 22.1414 1.55279 21.8944C1.05881 21.6474 0.858583 21.0468 1.10557 20.5528L3.35157 16.0608C3.59856 15.5668 4.19923 15.3666 4.69321 15.6136Z" fill="black"/>
</g>
<path fill-rule="evenodd" clip-rule="evenodd" d="M1 13C1 12.4477 1.44772 12 2 12H6C6.15525 12 6.30836 12.0361 6.44721 12.1056L15.9282 16.846L21.4453 13.1679C21.9048 12.8616 22.5257 12.9858 22.8321 13.4453C23.1384 13.9048 23.0142 14.5257 22.5547 14.8321L16.5547 18.8321C16.2561 19.0311 15.8738 19.0549 15.5528 18.8944L5.76393 14H2C1.44772 14 1 13.5523 1 13Z" fill="black"/>
</svg>
