<svg width="24" height="24" viewBox="0 0 24 24" fill="none" xmlns="http://www.w3.org/2000/svg">
<path opacity="0.55" fill-rule="evenodd" clip-rule="evenodd" d="M12 4C7.02944 4 3 8.02944 3 13C3 17.9706 7.02944 22 12 22C16.9706 22 21 17.9706 21 13C21 8.02944 16.9706 4 12 4ZM1 13C1 6.92487 5.92487 2 12 2C18.0751 2 23 6.92487 23 13C23 19.0751 18.0751 24 12 24C5.92487 24 1 19.0751 1 13Z" fill="black"/>
<path fill-rule="evenodd" clip-rule="evenodd" d="M12 8C12.5523 8 13 8.44772 13 9V16C13 16.5523 12.5523 17 12 17C11.4477 17 11 16.5523 11 16V9C11 8.44772 11.4477 8 12 8Z" fill="black"/>
</svg>
