<svg xmlns="http://www.w3.org/2000/svg" width="24" height="24" viewBox="0 0 24 24"><path fill-rule="evenodd" d="M12 10.5a1 1 0 0 1 1 1v11a1 1 0 1 1-2 0v-11a1 1 0 0 1 1-1" clip-rule="evenodd"/><path fill-rule="evenodd" d="M2.126 6.014a1 1 0 0 1 1.36-.388L12 10.356l8.514-4.73a1 1 0 0 1 .972 1.748l-9 5a1 1 0 0 1-.972 0l-9-5a1 1 0 0 1-.388-1.36Z" clip-rule="evenodd"/><path fill-rule="evenodd" d="M11.514.626a1 1 0 0 1 .972 0l9 5A1 1 0 0 1 22 6.5v11a1 1 0 0 1-.514.874l-9 5a1 1 0 0 1-.972 0l-9-5A1 1 0 0 1 2 17.5v-11a1 1 0 0 1 .514-.874l9-5ZM4 7.088v9.824l8 4.444 8-4.444V7.088l-8-4.444-8 4.444Z" clip-rule="evenodd"/></svg>