<svg xmlns="http://www.w3.org/2000/svg" width="24" height="24" viewBox="0 0 24 24"><path fill-rule="evenodd" d="M16.13 3.807a1 1 0 0 1 1.363-.377C20.806 5.307 23 8.94 23 13c0 6.052-4.948 11-11 11S1 19.052 1 13c0-4.076 2.206-7.59 5.486-9.557a1 1 0 0 1 1.029 1.714C4.794 6.79 3 9.677 3 13c0 4.948 4.052 9 9 9s9-4.052 9-9c0-3.34-1.806-6.307-4.493-7.83a1 1 0 0 1-.377-1.363" clip-rule="evenodd" opacity=".55"/><path fill-rule="evenodd" d="M12 0a1 1 0 0 1 1 1v7a1 1 0 1 1-2 0V1a1 1 0 0 1 1-1" clip-rule="evenodd"/></svg>