<svg width="24" height="24" viewBox="0 0 24 24" fill="none" xmlns="http://www.w3.org/2000/svg">
<path fill-rule="evenodd" clip-rule="evenodd" d="M12 17C11.4477 17 11 17.4477 11 18C11 18.5523 11.4477 19 12 19C12.5523 19 13 18.5523 13 18C13 17.4477 12.5523 17 12 17ZM9 18C9 16.3431 10.3431 15 12 15C13.6569 15 15 16.3431 15 18C15 19.6569 13.6569 21 12 21C10.3431 21 9 19.6569 9 18Z" fill="black"/>
<path opacity="0.55" fill-rule="evenodd" clip-rule="evenodd" d="M5.61767 11.5689C7.28311 10.0145 9.52094 9 12 9C14.479 9 16.7169 10.0145 18.3823 11.5689C18.7861 11.9458 18.8079 12.5786 18.431 12.9823C18.0542 13.3861 17.4214 13.4079 17.0177 13.0311C15.6831 11.7855 13.9209 11 12 11C10.079 11 8.31687 11.7855 6.98231 13.0311C6.57856 13.4079 5.94577 13.3861 5.56894 12.9823C5.1921 12.5786 5.21392 11.9458 5.61767 11.5689Z" fill="black"/>
<path fill-rule="evenodd" clip-rule="evenodd" d="M1.3929 7.39289C4.07064 4.71515 7.82125 3 12 3C16.1788 3 19.9294 4.71515 22.6071 7.39289C22.9976 7.78342 22.9976 8.41658 22.6071 8.80711C22.2166 9.19763 21.5834 9.19763 21.1929 8.80711C18.8706 6.48485 15.6213 5 12 5C8.37876 5 5.12937 6.48485 2.80711 8.80711C2.41659 9.19763 1.78342 9.19763 1.3929 8.80711C1.00238 8.41658 1.00238 7.78342 1.3929 7.39289Z" fill="black"/>
</svg>
