<svg xmlns="http://www.w3.org/2000/svg" width="24" height="24" viewBox="0 0 24 24"><path fill-rule="evenodd" d="M10.08 6.003a1 1 0 0 1 .848.626l3.252 8.128 1.962-3.271A1 1 0 0 1 17 11h6a1 1 0 1 1 0 2h-5.434l-2.708 4.515a1 1 0 0 1-1.787-.144l-3.25-8.128-1.964 3.271A1 1 0 0 1 7 13H1a1 1 0 1 1 0-2h5.434l2.709-4.514a1 1 0 0 1 .937-.483" clip-rule="evenodd"/><path fill-rule="evenodd" d="M4 15a1 1 0 0 1 1 1v3.998A1.006 1.006 0 0 0 6.002 21h11.996A1.006 1.006 0 0 0 19 19.998V16a1 1 0 1 1 2 0v4.003A3.006 3.006 0 0 1 18.003 23H5.997A3.006 3.006 0 0 1 3 20.003V16a1 1 0 0 1 1-1M6 1h12.003A3.006 3.006 0 0 1 21 3.997V8a1 1 0 1 1-2 0V4.002A1.006 1.006 0 0 0 17.998 3H6.002A1.006 1.006 0 0 0 5 4.002V8a1 1 0 1 1-2 0V3.997A3.006 3.006 0 0 1 5.997 1z" clip-rule="evenodd" opacity=".5"/></svg>