<svg width="24" height="24" viewBox="0 0 24 24" fill="none" xmlns="http://www.w3.org/2000/svg">
<path d="M23 22H1C0.447 22 0 21.553 0 21C0 20.447 0.447 20 1 20H23C23.553 20 24 20.447 24 21C24 21.553 23.553 22 23 22Z" fill="black"/>
<path d="M17 10H7C6.447 10 6 9.553 6 9C6 8.447 6.447 8 7 8H17C17.553 8 18 8.447 18 9C18 9.553 17.553 10 17 10Z" fill="black"/>
<g opacity="0.55">
<path d="M20 16H4C3.447 16 3 15.553 3 15C3 14.447 3.447 14 4 14H20C20.553 14 21 14.447 21 15C21 15.553 20.553 16 20 16Z" fill="black"/>
<path d="M14 4H10C9.447 4 9 3.553 9 3C9 2.447 9.447 2 10 2H14C14.553 2 15 2.447 15 3C15 3.553 14.553 4 14 4Z" fill="black"/>
</g>
</svg>
