<svg xmlns="http://www.w3.org/2000/svg" width="24" height="24" viewBox="0 0 24 24"><g clip-path="url(#a)"><path d="M19.987 8.103V5.594a.62.62 0 0 0-.338-.552l-.093-.038-7.44-2.38a.63.63 0 0 0-.38 0h-.002l-7.437 2.38a.62.62 0 0 0-.43.59v9.24c0 1.713 1.336 3.188 3.177 4.378 1.571 1.017 3.321 1.7 4.315 2.043l.376.126h.001a.6.6 0 0 0 .38 0c1.221-.395 4.55-1.617 6.483-3.603l.06-.056a.797.797 0 0 1 1.083 1.167l-.213.212c-2.247 2.166-5.737 3.413-6.92 3.796v.001a2.2 2.2 0 0 1-1.366 0c-.917-.296-3.098-1.074-5.065-2.347-1.924-1.244-3.906-3.135-3.906-5.717v-9.24c0-.964.623-1.814 1.538-2.108l7.442-2.381.002-.001a2.23 2.23 0 0 1 1.347 0l7.441 2.382a2.21 2.21 0 0 1 1.54 2.108v2.509a.798.798 0 0 1-1.595 0" opacity=".5"/><path d="M20.34 14.48v-1.328h-2.746a3.63 3.63 0 1 1 .001-1.595h5.669l.082.004a.797.797 0 0 1 0 1.586l-.082.005h-1.329v1.328a.797.797 0 0 1-1.594 0m-8.325-2.126a2.037 2.037 0 1 0 4.075-.001 2.037 2.037 0 0 0-4.075.001"/></g><defs><clipPath id="a"><path fill="#fff" d="M0 0h24v24H0z"/></clipPath></defs></svg>