<svg xmlns="http://www.w3.org/2000/svg" width="24" height="24" viewBox="0 0 24 24"><path fill-rule="evenodd" d="M3 18a1 1 0 0 1 1 1v3a1 1 0 1 1-2 0v-3a1 1 0 0 1 1-1m12 0a1 1 0 0 1 1 1v3a1 1 0 1 1-2 0v-3a1 1 0 0 1 1-1" clip-rule="evenodd" opacity=".55"/><path fill-rule="evenodd" d="M21.293 1.293a1 1 0 1 1 1.414 1.414l-7 7a1 1 0 0 1-1.414 0L9 4.414l-6.293 6.293a1 1 0 0 1-1.414-1.414l7-7a1 1 0 0 1 1.414 0L15 7.586zM9 11a1 1 0 0 1 1 1v10a1 1 0 1 1-2 0V12a1 1 0 0 1 1-1m12 0a1 1 0 0 1 1 1v10a1 1 0 1 1-2 0V12a1 1 0 0 1 1-1" clip-rule="evenodd"/></svg>