<svg xmlns="http://www.w3.org/2000/svg" width="24" height="24" viewBox="0 0 24 24"><g clip-path="url(#a)"><path d="M10 10a2 2 0 1 0-4 0 2 2 0 0 0 4 0m2 0a4 4 0 1 1-8 0 4 4 0 0 1 8 0m-4 5a8 8 0 0 1 8 8 1 1 0 0 1-1 1H1a1 1 0 0 1-1-1 8 8 0 0 1 8-8m0 2a6 6 0 0 0-5.915 5h11.83A6 6 0 0 0 8 17"/><path d="M18 4a2 2 0 1 0-4 0 2 2 0 0 0 4 0m2 0a4 4 0 1 1-8 0 4 4 0 0 1 8 0m-4 5a8 8 0 0 1 8 8 1 1 0 0 1-1 1h-6a1 1 0 1 1 0-2h4.915a6 6 0 0 0-6.772-4.94l-.103.01a1 1 0 0 1-.183-1.989l.283-.035Q15.565 9 16 9" opacity=".55"/></g><defs><clipPath id="a"><path fill="#fff" d="M0 0h24v24H0z"/></clipPath></defs></svg>