<svg xmlns="http://www.w3.org/2000/svg" width="24" height="24" viewBox="0 0 24 24"><path fill-rule="evenodd" d="M6 6a1 1 0 0 1 1-1h8a1 1 0 1 1 0 2H7a1 1 0 0 1-1-1M4.894 7.787a1 1 0 0 1 1.341.447l4.66 9.319a1 1 0 1 1-1.79.894L4.448 9.128a1 1 0 0 1 .447-1.341" clip-rule="evenodd" opacity=".55"/><path fill-rule="evenodd" d="M4 4a2 2 0 1 0 0 4 2 2 0 0 0 0-4M0 6a4 4 0 1 1 8 0 4 4 0 0 1-8 0m16.106-4.447a1 1 0 0 1 1.09-.534l5 1a1 1 0 1 1-.392 1.962l-4.251-.85L16.118 6l1.435 2.87 4.25-.85a1 1 0 0 1 .393 1.96l-5 1a1 1 0 0 1-1.09-.533l-2-4a1 1 0 0 1 0-.894zM1 18a1 1 0 0 1 1-1h16a1 1 0 0 1 1 1v4a1 1 0 0 1-1 1H2a1 1 0 0 1-1-1zm2 1v2h14v-2z" clip-rule="evenodd"/></svg>