<svg width="24" height="24" viewBox="0 0 24 24" fill="none" xmlns="http://www.w3.org/2000/svg">
<path fill-rule="evenodd" clip-rule="evenodd" d="M13.4258 2.09519C13.8232 2.28221 14.0521 2.70663 13.9899 3.14142L13.153 9H21C21.3958 9 21.7544 9.23347 21.9145 9.59545C22.0746 9.95743 22.0062 10.3798 21.7399 10.6727L11.7399 21.6727C11.4445 21.9977 10.9716 22.0918 10.5742 21.9048C10.1768 21.7178 9.94793 21.2934 10.01 20.8586L10.847 15H2.99999C2.60417 15 2.2456 14.7665 2.08547 14.4046C1.92535 14.0426 1.99379 13.6202 2.26005 13.3273L12.26 2.32733C12.5555 2.00235 13.0284 1.90817 13.4258 2.09519ZM5.26054 13H12C12.2899 13 12.5655 13.1258 12.7554 13.3448C12.9454 13.5638 13.0309 13.8544 12.9899 14.1414L12.4504 17.9179L18.7394 11H12C11.7101 11 11.4345 10.8742 11.2445 10.6552C11.0546 10.4362 10.969 10.1456 11.01 9.85858L11.5495 6.08211L5.26054 13Z" fill="black" style="fill:black;fill-opacity:1;"/>
</svg>
