<svg xmlns="http://www.w3.org/2000/svg" width="24" height="24" viewBox="0 0 24 24"><path d="M21 5.637a.82.82 0 0 0-.818-.819H3.818A.82.82 0 0 0 3 5.637v12.727a.82.82 0 0 0 .818.817h16.364a.82.82 0 0 0 .818-.817zm2 12.727a2.82 2.82 0 0 1-2.818 2.817H3.818A2.82 2.82 0 0 1 1 18.365V5.637a2.82 2.82 0 0 1 2.818-2.819h16.364A2.82 2.82 0 0 1 23 5.637z" opacity=".55"/><path d="M12 15.545a1 1 0 0 1 0 2H5.636a1 1 0 1 1 0-2zm6.364 0 .101.005a1 1 0 0 1 0 1.99l-.101.005h-2.728a1 1 0 1 1 0-2zm-1-5.363a2.5 2.5 0 0 0-.828-1.856l-.107-.091-.077-.069a1 1 0 0 1 1.245-1.551l.082.06.193.162a4.497 4.497 0 0 1-.192 6.852 1 1 0 1 1-1.25-1.56 2.5 2.5 0 0 0 .934-1.947m-3.546 1.364a1.364 1.364 0 1 0 0-2.728 1.364 1.364 0 0 0 0 2.728"/></svg>