<svg width="24" height="24" viewBox="0 0 24 24" fill="none" xmlns="http://www.w3.org/2000/svg">
<path opacity="0.5" fill-rule="evenodd" clip-rule="evenodd" d="M20.1562 0.65625C20.5705 0.65625 20.9062 0.992036 20.9062 1.40625C20.9062 1.8538 21.084 2.28303 21.4005 2.59949C21.717 2.91596 22.1462 3.09375 22.5938 3.09375C23.008 3.09375 23.3438 3.42954 23.3438 3.84375C23.3438 4.25796 23.008 4.59375 22.5938 4.59375C22.1462 4.59375 21.717 4.77154 21.4005 5.08801C21.084 5.40448 20.9062 5.8337 20.9062 6.28125C20.9062 6.69546 20.5705 7.03125 20.1562 7.03125C19.742 7.03125 19.4062 6.69546 19.4062 6.28125C19.4062 5.8337 19.2285 5.40448 18.912 5.08801C18.5955 4.77154 18.1663 4.59375 17.7188 4.59375C17.3045 4.59375 16.9688 4.25796 16.9688 3.84375C16.9688 3.42954 17.3045 3.09375 17.7188 3.09375C18.1663 3.09375 18.5955 2.91596 18.912 2.59949C19.2285 2.28303 19.4062 1.8538 19.4062 1.40625C19.4062 0.992036 19.742 0.65625 20.1562 0.65625ZM20.1562 3.46022C20.0981 3.52918 20.0369 3.5959 19.9727 3.66015C19.9084 3.72441 19.8417 3.78564 19.7727 3.84375C19.8417 3.90186 19.9084 3.96309 19.9727 4.02735C20.0369 4.0916 20.0981 4.15832 20.1562 4.22728C20.2144 4.15832 20.2756 4.0916 20.3398 4.02735C20.4041 3.96309 20.4708 3.90186 20.5398 3.84375C20.4708 3.78564 20.4041 3.72441 20.3398 3.66015C20.2756 3.5959 20.2144 3.52918 20.1562 3.46022Z" fill="black" style="fill:black;fill-opacity:1;"/>
<path fill-rule="evenodd" clip-rule="evenodd" d="M10.8475 2.02232C10.9346 2.56769 10.5631 3.0804 10.0177 3.16749C5.28251 3.92362 2 7.23789 2 11C2 15.2689 6.25459 19 12 19L12.0204 19.0002C12.9685 19.0195 13.9143 18.8975 14.8265 18.6381C15.0412 18.5771 15.2701 18.5896 15.4768 18.6737L19.8131 20.4376L19.4066 16.9146C19.3714 16.6097 19.4782 16.3055 19.6963 16.0895C20.4537 15.3393 21.0561 14.4474 21.4691 13.4646C21.6831 12.9554 22.2693 12.7161 22.7784 12.9301C23.2876 13.1441 23.5269 13.7303 23.3129 14.2394C22.8623 15.3116 22.2309 16.297 21.4474 17.153L21.9934 21.8854C22.0339 22.2363 21.8862 22.5826 21.6049 22.7963C21.3236 23.01 20.9504 23.0594 20.6232 22.9263L15.0342 20.6528C14.0398 20.9031 13.0161 21.02 11.9899 21C5.53962 20.9955 0 16.7281 0 11C0 5.96211 4.31749 2.05238 9.70231 1.19251C10.2477 1.10543 10.7604 1.47694 10.8475 2.02232Z" fill="black" style="fill:black;fill-opacity:1;"/>
<path fill-rule="evenodd" clip-rule="evenodd" d="M14.4688 4.71875C14.883 4.71875 15.2188 5.05454 15.2188 5.46875C15.2188 6.34728 15.5677 7.18983 16.189 7.81104C16.8102 8.43226 17.6527 8.78125 18.5312 8.78125C18.9455 8.78125 19.2812 9.11704 19.2812 9.53125C19.2812 9.94546 18.9455 10.2812 18.5312 10.2812C17.6527 10.2812 16.8102 10.6302 16.189 11.2515C15.5677 11.8727 15.2188 12.7152 15.2188 13.5938C15.2188 14.008 14.883 14.3438 14.4688 14.3438C14.0545 14.3438 13.7188 14.008 13.7188 13.5938C13.7188 13.1587 13.6331 12.728 13.4666 12.3261C13.3001 11.9242 13.0561 11.5591 12.7485 11.2515C12.4409 10.9439 12.0758 10.6999 11.6739 10.5334C11.272 10.3669 10.8413 10.2812 10.4062 10.2812C9.99204 10.2812 9.65625 9.94546 9.65625 9.53125C9.65625 9.11704 9.99204 8.78125 10.4062 8.78125C10.8413 8.78125 11.272 8.69557 11.6739 8.5291C12.0758 8.36263 12.4409 8.11864 12.7485 7.81104C13.0561 7.50345 13.3001 7.13828 13.4666 6.73639C13.6331 6.3345 13.7188 5.90375 13.7188 5.46875C13.7188 5.05454 14.0545 4.71875 14.4688 4.71875ZM14.4687 8.04874C14.2802 8.34569 14.0591 8.62178 13.8092 8.8717C13.5593 9.12163 13.2832 9.34266 12.9862 9.53125C13.2832 9.71984 13.5593 9.94087 13.8092 10.1908C14.0591 10.4407 14.2802 10.7168 14.4687 11.0138C14.6563 10.7184 14.877 10.4421 15.1283 10.1908C15.3796 9.93948 15.6559 9.71883 15.9512 9.53125C15.6559 9.34367 15.3796 9.12302 15.1283 8.8717C14.877 8.62038 14.6563 8.34412 14.4687 8.04874Z" fill="black" style="fill:black;fill-opacity:1;"/>
</svg>
