<svg width="24" height="24" viewBox="0 0 24 24" fill="none" xmlns="http://www.w3.org/2000/svg">
<path opacity="0.5" fill-rule="evenodd" clip-rule="evenodd" d="M12.7115 1.2973L12 2L11.2885 1.2973C11.4764 1.10707 11.7326 1 12 1C12.2674 1 12.5236 1.10707 12.7115 1.2973ZM12 3.45432C11.8498 3.61696 11.6799 3.80312 11.4943 4.01C10.7567 4.83215 9.77554 5.97602 8.79682 7.26672C7.81545 8.5609 6.852 9.98248 6.13802 11.3614C5.41279 12.762 5 14.0152 5 15C5 19.452 8.55148 22 12 22C15.4485 22 19 19.452 19 15C19 14.0152 18.5872 12.762 17.862 11.3614C17.148 9.98248 16.1845 8.5609 15.2032 7.26672C14.2245 5.97602 13.2433 4.83215 12.5057 4.01C12.3201 3.80312 12.1502 3.61696 12 3.45432ZM12 2C11.2885 1.2973 11.2887 1.29713 11.2885 1.2973L11.281 1.30489L11.2622 1.32415C11.2459 1.34081 11.2222 1.36507 11.1917 1.3966C11.1307 1.45964 11.0421 1.55173 10.9301 1.67011C10.706 1.90681 10.3874 2.24896 10.0057 2.67438C9.2433 3.5241 8.22446 4.71148 7.20318 6.05828C6.18455 7.4016 5.148 8.92377 4.36198 10.4417C3.58721 11.938 3 13.5348 3 15C3 20.748 7.64852 24 12 24C16.3515 24 21 20.748 21 15C21 13.5348 20.4128 11.938 19.638 10.4417C18.852 8.92377 17.8155 7.4016 16.7968 6.05828C15.7755 4.71148 14.7567 3.5241 13.9943 2.67438C13.6126 2.24896 13.294 1.90681 13.0699 1.67011C12.9579 1.55173 12.8693 1.45964 12.8083 1.3966C12.7778 1.36507 12.7541 1.34081 12.7378 1.32415L12.719 1.30489L12.7123 1.29809C12.7121 1.29792 12.7115 1.2973 12 2Z" fill="black" style="fill:black;fill-opacity:1;"/>
<path d="M13 8C13 8.55228 12.5523 9 12 9C11.4477 9 11 8.55228 11 8C11 7.44772 11.4477 7 12 7C12.5523 7 13 7.44772 13 8Z" fill="black" style="fill:black;fill-opacity:1;"/>
<path d="M12 14.5C12 15.3284 11.3284 16 10.5 16C9.67157 16 9 15.3284 9 14.5C9 13.6716 9.67157 13 10.5 13C11.3284 13 12 13.6716 12 14.5Z" fill="black" style="fill:black;fill-opacity:1;"/>
<path d="M17 15.5C17 16.3284 16.3284 17 15.5 17C14.6716 17 14 16.3284 14 15.5C14 14.6716 14.6716 14 15.5 14C16.3284 14 17 14.6716 17 15.5Z" fill="black" style="fill:black;fill-opacity:1;"/>
<path d="M14 19C14 19.5523 13.5523 20 13 20C12.4477 20 12 19.5523 12 19C12 18.4477 12.4477 18 13 18C13.5523 18 14 18.4477 14 19Z" fill="black" style="fill:black;fill-opacity:1;"/>
<path d="M10 18C10 18.5523 9.55228 19 9 19C8.44772 19 8 18.5523 8 18C8 17.4477 8.44772 17 9 17C9.55228 17 10 17.4477 10 18Z" fill="black" style="fill:black;fill-opacity:1;"/>
<path d="M15 12C15 12.5523 14.5523 13 14 13C13.4477 13 13 12.5523 13 12C13 11.4477 13.4477 11 14 11C14.5523 11 15 11.4477 15 12Z" fill="black" style="fill:black;fill-opacity:1;"/>
<path d="M10 11C10 11.5523 9.55228 12 9 12C8.44772 12 8 11.5523 8 11C8 10.4477 8.44772 10 9 10C9.55228 10 10 10.4477 10 11Z" fill="black" style="fill:black;fill-opacity:1;"/>
</svg>
