<svg xmlns="http://www.w3.org/2000/svg" width="24" height="24" viewBox="0 0 24 24"><path fill-rule="evenodd" d="M.293 8.293A1 1 0 0 1 1 8a10 10 0 0 1 10 10v4a1 1 0 0 1-1 1A10 10 0 0 1 0 13V9a1 1 0 0 1 .293-.707M2 10.063V13a8 8 0 0 0 7 7.937V18a8 8 0 0 0-7-7.937" clip-rule="evenodd" opacity=".5"/><path fill-rule="evenodd" d="M13.1 5.1A14 14 0 0 1 23 1a1 1 0 0 1 1 1v7a14 14 0 0 1-14 14 1 1 0 0 1-1-1v-7a14 14 0 0 1 4.1-9.9M22 3.043A12 12 0 0 0 11 15v5.958A12.003 12.003 0 0 0 22 9z" clip-rule="evenodd"/></svg>