<svg xmlns="http://www.w3.org/2000/svg" width="24" height="24" viewBox="0 0 24 24"><g fill-rule="evenodd" clip-path="url(#a)" clip-rule="evenodd"><g opacity=".5"><path d="M1 3a1 1 0 0 1 1 1v4c0 .246.225.737 1.204 1.227.92.46 2.26.773 3.796.773 1.535 0 2.876-.313 3.796-.773C11.775 8.737 12 8.246 12 8V4a1 1 0 1 1 2 0v4c0 1.411-1.118 2.42-2.31 3.016C10.438 11.642 8.779 12 7 12s-3.438-.358-4.69-.984C1.118 10.42 0 9.41 0 8V4a1 1 0 0 1 1-1"/><path d="M1 7a1 1 0 0 1 1 1v4c0 .246.225.737 1.204 1.227.92.46 2.26.773 3.796.773 1.42 0 2.679-.27 3.592-.678a1 1 0 0 1 .816 1.826C10.198 15.69 8.653 16 7 16c-1.779 0-3.438-.358-4.69-.984C1.118 14.42 0 13.41 0 12V8a1 1 0 0 1 1-1"/><path d="M1 11a1 1 0 0 1 1 1v4c0 .246.225.737 1.204 1.227.92.46 2.26.773 3.796.773 1.422 0 2.68-.269 3.591-.677a1 1 0 1 1 .818 1.826C10.198 19.69 8.652 20 7 20c-1.779 0-3.438-.358-4.69-.984C1.118 18.42 0 17.41 0 16v-4a1 1 0 0 1 1-1m2.205-8.227C2.225 3.263 2 3.754 2 4s.225.737 1.205 1.227C4.125 5.687 5.465 6 7 6s2.876-.313 3.795-.773C11.775 4.737 12 4.246 12 4s-.225-.737-1.205-1.227C9.875 2.313 8.535 2 7 2s-2.876.313-3.795.773M2.31.984C3.562.358 5.222 0 7 0s3.438.358 4.69.984C12.882 1.58 14 2.59 14 4s-1.118 2.42-2.31 3.016C10.438 7.642 8.778 8 7 8s-3.438-.358-4.69-.984C1.118 6.42 0 5.41 0 4S1.118 1.58 2.31.984"/></g><path d="M11 11a1 1 0 0 1 1 1v4c0 .246.225.737 1.204 1.227.92.46 2.26.773 3.796.773 1.535 0 2.876-.313 3.796-.773C21.775 16.737 22 16.246 22 16v-4a1 1 0 1 1 2 0v4c0 1.411-1.118 2.42-2.31 3.016-1.252.626-2.911.984-4.69.984s-3.438-.358-4.69-.984C11.118 18.42 10 17.41 10 16v-4a1 1 0 0 1 1-1"/><path d="M11 15a1 1 0 0 1 1 1v4c0 .246.225.737 1.204 1.227.92.46 2.26.773 3.796.773 1.535 0 2.876-.313 3.796-.773C21.775 20.737 22 20.246 22 20v-4a1 1 0 1 1 2 0v4c0 1.411-1.118 2.42-2.31 3.016-1.252.626-2.911.984-4.69.984s-3.438-.358-4.69-.984C11.118 22.42 10 21.41 10 20v-4a1 1 0 0 1 1-1"/><path d="M13.205 10.773c-.98.49-1.205.981-1.205 1.227s.225.737 1.205 1.227c.92.46 2.26.773 3.795.773s2.876-.313 3.795-.773C21.775 12.737 22 12.246 22 12s-.225-.737-1.205-1.227c-.92-.46-2.26-.773-3.795-.773s-2.876.313-3.795.773m-.895-1.789C13.562 8.358 15.222 8 17 8s3.438.358 4.69.984C22.882 9.58 24 10.59 24 12s-1.118 2.42-2.31 3.016c-1.252.626-2.912.984-4.69.984s-3.438-.358-4.69-.984C11.118 14.42 10 13.41 10 12s1.118-2.42 2.31-3.016"/></g><defs><clipPath id="a"><path fill="#fff" d="M0 0h24v24H0z"/></clipPath></defs></svg>