<svg xmlns="http://www.w3.org/2000/svg" width="24" height="24" viewBox="0 0 24 24"><path fill-rule="evenodd" d="M5.618 11.569C7.283 10.014 9.52 9 12 9s4.717 1.014 6.382 2.569a1 1 0 1 1-1.364 1.462C15.683 11.786 13.92 11 12 11c-1.921 0-3.683.786-5.018 2.031a1 1 0 0 1-1.364-1.462" clip-rule="evenodd" opacity=".55"/><path fill-rule="evenodd" d="M12 17a1 1 0 1 0 0 2 1 1 0 0 0 0-2m-3 1a3 3 0 1 1 6 0 3 3 0 0 1-6 0M1.393 7.393A14.98 14.98 0 0 1 12 3c4.179 0 7.93 1.715 10.607 4.393a1 1 0 0 1-1.414 1.414A12.98 12.98 0 0 0 12 5a12.98 12.98 0 0 0-9.193 3.807 1 1 0 0 1-1.414-1.414" clip-rule="evenodd"/></svg>