<svg xmlns="http://www.w3.org/2000/svg" width="24" height="24" viewBox="0 0 24 24"><path fill-rule="evenodd" d="M8 12a1 1 0 0 1 1-1h12a1 1 0 1 1 0 2H9a1 1 0 0 1-1-1Z" clip-rule="evenodd"/><path fill-rule="evenodd" d="M16.293 7.293a1 1 0 0 1 1.414 0l4 4a1 1 0 0 1 0 1.414l-4 4a1 1 0 0 1-1.414-1.414L19.586 12l-3.293-3.293a1 1 0 0 1 0-1.414Z" clip-rule="evenodd"/><path fill-rule="evenodd" d="M4 1a1 1 0 0 1 1-1h14a1 1 0 0 1 1 1v3a1 1 0 1 1-2 0V2H6v20h12v-2a1 1 0 1 1 2 0v3a1 1 0 0 1-1 1H5a1 1 0 0 1-1-1V1Z" clip-rule="evenodd" opacity=".55"/></svg>