<svg xmlns="http://www.w3.org/2000/svg" width="24" height="24" viewBox="0 0 24 24"><path fill-rule="evenodd" d="M7 9a1 1 0 0 1 1-1h3a1 1 0 1 1 0 2H8a1 1 0 0 1-1-1m0 4a1 1 0 0 1 1-1h3a1 1 0 1 1 0 2H8a1 1 0 0 1-1-1m0 4a1 1 0 0 1 1-1h3a1 1 0 1 1 0 2H8a1 1 0 0 1-1-1" clip-rule="evenodd" opacity=".5"/><path fill-rule="evenodd" d="M4 1a1 1 0 0 1 1-1h14a1 1 0 0 1 1 1v4a1 1 0 0 1-1 1h-2v13a5 5 0 0 1-10 0V6H5a1 1 0 0 1-1-1zm2 1v2h2a1 1 0 0 1 1 1v14a3 3 0 0 0 6 0V5a1 1 0 0 1 1-1h2V2z" clip-rule="evenodd"/></svg>