<svg width="24" height="24" viewBox="0 0 24 24" fill="none" xmlns="http://www.w3.org/2000/svg">
<path opacity="0.55" fill-rule="evenodd" clip-rule="evenodd" d="M16.13 3.80699C16.4023 3.32649 17.0125 3.1577 17.493 3.42998C20.8057 5.30719 23 8.93916 23 13C23 19.0523 18.0523 24 12 24C5.94771 24 1 19.0523 1 13C1 8.92377 3.20634 5.41001 6.4855 3.44251C6.95908 3.15836 7.57334 3.31193 7.85749 3.78551C8.14164 4.25909 7.98808 4.87335 7.5145 5.15749C4.79366 6.79 3 9.67623 3 13C3 17.9477 7.05228 22 12 22C16.9477 22 21 17.9477 21 13C21 9.66084 19.1943 6.69281 16.507 5.17002C16.0265 4.89774 15.8577 4.28749 16.13 3.80699Z" fill="black"/>
<path fill-rule="evenodd" clip-rule="evenodd" d="M12 0C12.5523 0 13 0.447715 13 1V8C13 8.55228 12.5523 9 12 9C11.4477 9 11 8.55228 11 8V1C11 0.447715 11.4477 0 12 0Z" fill="black"/>
</svg>
