<svg xmlns="http://www.w3.org/2000/svg" width="24" height="24" viewBox="0 0 24 24"><path fill-rule="evenodd" d="M1 7a1 1 0 0 1 1-1h5a1 1 0 0 1 1 1v5a1 1 0 0 1-1 1H2a1 1 0 0 1-1-1zm2 1v3h3V8z" clip-rule="evenodd" opacity=".55"/><path fill-rule="evenodd" d="M6 2a1 1 0 0 1 1-1h5a1 1 0 0 1 1 1v5a1 1 0 0 1-1 1H7a1 1 0 0 1-1-1zm2 1v3h3V3z" clip-rule="evenodd" opacity=".55"/><path fill-rule="evenodd" d="M1 2a1 1 0 0 1 1-1h5a1 1 0 0 1 1 1v5a1 1 0 0 1-1 1H2a1 1 0 0 1-1-1zm2 1v3h3V3z" clip-rule="evenodd"/><path fill-rule="evenodd" d="M16 2a1 1 0 0 1 1-1h5a1 1 0 0 1 1 1v5a1 1 0 0 1-1 1h-5a1 1 0 0 1-1-1zm2 1v3h3V3z" clip-rule="evenodd" opacity=".55"/><path fill-rule="evenodd" d="M16 12a1 1 0 0 1 1-1h5a1 1 0 0 1 1 1v5a1 1 0 0 1-1 1h-5a1 1 0 0 1-1-1zm2 1v3h3v-3zM1 17a1 1 0 0 1 1-1h5a1 1 0 0 1 1 1v5a1 1 0 0 1-1 1H2a1 1 0 0 1-1-1zm2 1v3h3v-3z" clip-rule="evenodd"/><path fill-rule="evenodd" d="M6 12a1 1 0 0 1 1-1h5a1 1 0 0 1 1 1v5a1 1 0 0 1-1 1H7a1 1 0 0 1-1-1zm2 1v3h3v-3z" clip-rule="evenodd"/><path fill-rule="evenodd" d="M11 17a1 1 0 0 1 1-1h5a1 1 0 0 1 1 1v5a1 1 0 0 1-1 1h-5a1 1 0 0 1-1-1zm2 1v3h3v-3z" clip-rule="evenodd" opacity=".55"/></svg>