<svg xmlns="http://www.w3.org/2000/svg" width="24" height="24" viewBox="0 0 24 24"><path fill-rule="evenodd" d="M2 15a1 1 0 0 1 1 1v4a1 1 0 0 0 1 1h16a1 1 0 0 0 1-1v-4a1 1 0 1 1 2 0v4a3 3 0 0 1-3 3H4a3 3 0 0 1-3-3v-4a1 1 0 0 1 1-1" clip-rule="evenodd" opacity=".55"/><path fill-rule="evenodd" d="M12 0a1 1 0 0 1 1 1v15a1 1 0 1 1-2 0V1a1 1 0 0 1 1-1" clip-rule="evenodd"/><path fill-rule="evenodd" d="M6.293 10.293a1 1 0 0 1 1.414 0L12 14.586l4.293-4.293a1 1 0 1 1 1.414 1.414l-5 5a1 1 0 0 1-1.414 0l-5-5a1 1 0 0 1 0-1.414Z" clip-rule="evenodd"/></svg>