<svg xmlns="http://www.w3.org/2000/svg" width="24" height="24" viewBox="0 0 24 24"><g fill-rule="evenodd" clip-path="url(#a)" clip-rule="evenodd"><path d="M9 3a3 3 0 1 1 6 0v.523q.448.158.874.361l.369-.37a3 3 0 1 1 4.242 4.243l-.37.37q.204.425.362.873H21a3 3 0 1 1 0 6h-.523q-.158.448-.361.874l.37.369a3 3 0 1 1-4.243 4.242l-.37-.37a9 9 0 0 1-.873.362V21a3 3 0 1 1-6 0v-.523a9 9 0 0 1-.874-.361l-.369.37a3 3 0 1 1-4.242-4.243l.37-.37A9 9 0 0 1 3.522 15H3a3 3 0 1 1 0-6h.523a9 9 0 0 1 .361-.874l-.37-.369a3 3 0 1 1 4.243-4.242l.37.37A9 9 0 0 1 9 3.522zm3-1a1 1 0 0 0-1 1v1.262a1 1 0 0 1-.75.968 7 7 0 0 0-1.8.745 1 1 0 0 1-1.215-.154l-.892-.892a1 1 0 1 0-1.414 1.414l.892.892a1 1 0 0 1 .154 1.215 7 7 0 0 0-.745 1.8 1 1 0 0 1-.968.75H3a1 1 0 0 0 0 2h1.262a1 1 0 0 1 .968.75c.166.64.418 1.244.745 1.8a1 1 0 0 1-.154 1.215l-.892.892a1 1 0 1 0 1.414 1.414l.892-.892a1 1 0 0 1 1.215-.154c.555.327 1.159.58 1.8.745a1 1 0 0 1 .75.968V21a1 1 0 0 0 2 0v-1.262a1 1 0 0 1 .75-.968 7 7 0 0 0 1.8-.745 1 1 0 0 1 1.215.154l.892.892a1 1 0 1 0 1.414-1.414l-.892-.892a1 1 0 0 1-.154-1.216c.327-.554.58-1.158.745-1.799a1 1 0 0 1 .968-.75H21a1 1 0 0 0 0-2h-1.262a1 1 0 0 1-.968-.75 7 7 0 0 0-.745-1.8 1 1 0 0 1 .154-1.215l.892-.892a1 1 0 1 0-1.414-1.414l-.892.892a1 1 0 0 1-1.215.154 7 7 0 0 0-1.8-.745 1 1 0 0 1-.75-.968V3a1 1 0 0 0-1-1"/><path d="M12 10a2 2 0 1 0 0 4 2 2 0 0 0 0-4m-4 2a4 4 0 1 1 8 0 4 4 0 0 1-8 0" opacity=".55"/></g><defs><clipPath id="a"><path fill="#fff" d="M0 0h24v24H0z"/></clipPath></defs></svg>