<svg xmlns="http://www.w3.org/2000/svg" width="24" height="24" viewBox="0 0 24 24"><path d="M5.583 22.083S8.333 14.75 12 14.75s6.417 7.333 6.417 7.333z" opacity=".55" style="fill:#000;fill-opacity:1"/><path fill-rule="evenodd" d="M2.833 1.917c0-.507.41-.917.917-.917h16.5a.917.917 0 1 1 0 1.833H3.75a.917.917 0 0 1-.917-.916m0 20.166c0-.506.41-.916.917-.916h16.5a.917.917 0 1 1 0 1.833H3.75a.917.917 0 0 1-.917-.917" clip-rule="evenodd" style="fill:#000;fill-opacity:1"/><path fill-rule="evenodd" d="M5.583 1c.507 0 .917.41.917.917V6.5c0 1.013.706 2.165 1.602 3.172a13.5 13.5 0 0 0 1.668 1.572l.025.019.005.004a.917.917 0 0 1 0 1.466l-.005.004-.025.02-.103.081a13.5 13.5 0 0 0-1.565 1.49C7.206 15.335 6.5 16.488 6.5 17.5v4.583a.917.917 0 1 1-1.833 0V17.5c0-1.737 1.127-3.335 2.065-4.39A15 15 0 0 1 7.83 12a15 15 0 0 1-1.098-1.11C5.794 9.835 4.667 8.237 4.667 6.5V1.917c0-.507.41-.917.916-.917m12.834 0c.506 0 .916.41.916.917V6.5c0 1.737-1.127 3.335-2.064 4.39-.388.437-.775.814-1.1 1.11.325.296.712.673 1.1 1.11.937 1.055 2.064 2.653 2.064 4.39v4.583a.917.917 0 1 1-1.833 0V17.5c0-1.013-.706-2.165-1.602-3.172a13.5 13.5 0 0 0-1.668-1.572l-.025-.019-.005-.004a.917.917 0 0 1 0-1.466l.005-.004.025-.02.103-.081a13.5 13.5 0 0 0 1.565-1.49C16.794 8.665 17.5 7.512 17.5 6.5V1.917c0-.507.41-.917.917-.917" clip-rule="evenodd" style="fill:#000;fill-opacity:1"/></svg>