<svg xmlns="http://www.w3.org/2000/svg" width="24" height="24" viewBox="0 0 24 24"><path d="M21.934.71a1 1 0 0 1 .857 1.124l-.8 5.9a1 1 0 0 1-1.123.857l-4.02-.536a3 3 0 0 0-2.477-2.032 1 1 0 0 1 .761-.214l3.033.404c.242.032.48.02.704-.03C17.24 4.222 14.764 3 12 3c-4.948 0-9 4.052-9 9a1 1 0 1 1-2 0C1 5.948 5.948 1 12 1c3.329 0 6.336 1.461 8.34 3.824q.048-.157.071-.325l.398-2.933a1 1 0 0 1 1.125-.857M7.152 15.945l-4.02-.536a1 1 0 0 0-1.123.857l-.8 5.9a1 1 0 0 0 1.982.268l.398-2.933q.023-.168.071-.325C5.664 21.54 8.671 23 12 23c6.052 0 11-4.948 11-11a1 1 0 1 0-2 0c0 4.948-4.052 9-9 9-2.764 0-5.24-1.224-6.869-3.182q.34-.078.704-.031l3.033.404a1 1 0 0 0 .761-.214 3 3 0 0 1-2.477-2.032" opacity=".5"/><path d="M10.182 8H8.364A.364.364 0 0 0 8 8.364v7.272a.364.364 0 0 0 .364.364h1.818a.363.363 0 0 0 .364-.364V8.364A.364.364 0 0 0 10.182 8m5.454 0h-1.818a.363.363 0 0 0-.364.364v7.272a.364.364 0 0 0 .364.364h1.818a.364.364 0 0 0 .364-.364V8.364A.364.364 0 0 0 15.636 8"/></svg>