<svg xmlns="http://www.w3.org/2000/svg" width="24" height="24" viewBox="0 0 24 24"><path fill-rule="evenodd" d="M4 5a1 1 0 0 1 1-1h14a1 1 0 1 1 0 2H5a1 1 0 0 1-1-1m3-4a1 1 0 0 1 1-1h8a1 1 0 1 1 0 2H8a1 1 0 0 1-1-1" clip-rule="evenodd" opacity=".55"/><path fill-rule="evenodd" d="M1 9a1 1 0 0 1 1-1h20a1 1 0 0 1 1 1v14a1 1 0 0 1-1 1H2a1 1 0 0 1-1-1zm2 1v12h18V10z" clip-rule="evenodd"/><path fill-rule="evenodd" d="M8 13a1 1 0 0 1 1 1v1h6v-1a1 1 0 1 1 2 0v2a1 1 0 0 1-1 1H8a1 1 0 0 1-1-1v-2a1 1 0 0 1 1-1" clip-rule="evenodd"/></svg>