<svg xmlns="http://www.w3.org/2000/svg" width="24" height="24" viewBox="0 0 24 24"><path fill-rule="evenodd" d="M5 1a1 1 0 0 1 1-1h12a1 1 0 0 1 1 1v4a1 1 0 0 1-1 1H6a1 1 0 0 1-1-1zm2 1v2h10V2z" clip-rule="evenodd" opacity=".55"/><path fill-rule="evenodd" d="M9 7a1 1 0 0 1 1 1v5a1 1 0 0 1-.22.625l-4.75 5.938A1.5 1.5 0 0 0 6.2 22h11.6a1.501 1.501 0 0 0 1.172-2.437l-4.753-5.938A1 1 0 0 1 14 13V8a1 1 0 1 1 2 0v4.65l4.534 5.663A3.5 3.5 0 0 1 17.8 24H6.2a3.502 3.502 0 0 1-3.477-3.897 3.5 3.5 0 0 1 .745-1.79L8 12.65V8a1 1 0 0 1 1-1" clip-rule="evenodd"/></svg>