<svg xmlns="http://www.w3.org/2000/svg" width="24" height="24" viewBox="0 0 24 24"><path fill-rule="evenodd" d="M12.712 1.297 12 2l-.711-.703a1 1 0 0 1 1.422 0M12 3.454q-.226.246-.506.556a52 52 0 0 0-2.697 3.257C7.815 8.56 6.852 9.982 6.138 11.36 5.413 12.762 5 14.015 5 15c0 4.452 3.551 7 7 7s7-2.548 7-7c0-.985-.413-2.238-1.138-3.639-.714-1.379-1.677-2.8-2.659-4.094A52 52 0 0 0 12 3.454M12 2l-.711-.703-.008.008-.019.02a17 17 0 0 0-.332.345 54 54 0 0 0-3.727 4.388c-1.018 1.344-2.055 2.866-2.841 4.384C3.587 11.938 3 13.535 3 15c0 5.748 4.649 9 9 9 4.352 0 9-3.252 9-9 0-1.465-.587-3.062-1.362-4.558-.786-1.518-1.823-3.04-2.841-4.384a54 54 0 0 0-4.06-4.734l-.018-.02-.007-.006z" clip-rule="evenodd"/><path fill-rule="evenodd" d="M9 14a1 1 0 0 1 1 1c0 .836.358 1.293.77 1.578.463.321 1.01.422 1.23.422a1 1 0 1 1 0 2c-.58 0-1.533-.2-2.37-.778C8.743 17.607 8 16.564 8 15a1 1 0 0 1 1-1" clip-rule="evenodd" opacity=".5"/></svg>