<svg xmlns="http://www.w3.org/2000/svg" width="24" height="24" viewBox="0 0 24 24"><path fill-rule="evenodd" d="M12 9a1 1 0 0 1 1 1v8a1 1 0 1 1-2 0v-8a1 1 0 0 1 1-1m-4 6a1 1 0 0 1 1 1v2a1 1 0 1 1-2 0v-2a1 1 0 0 1 1-1m8-3a1 1 0 0 1 1 1v5a1 1 0 1 1-2 0v-5a1 1 0 0 1 1-1" clip-rule="evenodd"/><path fill-rule="evenodd" d="M0 2a1 1 0 0 1 1-1h8a1 1 0 0 1 .8.4L12.5 5H23a1 1 0 0 1 1 1v14a3 3 0 0 1-3 3H3a3 3 0 0 1-3-3zm2 1v17a1 1 0 0 0 1 1h18a1 1 0 0 0 1-1V7H12a1 1 0 0 1-.8-.4L8.5 3z" clip-rule="evenodd" opacity=".55"/></svg>