<svg width="24" height="24" viewBox="0 0 24 24" fill="none" xmlns="http://www.w3.org/2000/svg">
<path fill-rule="evenodd" clip-rule="evenodd" d="M1 1C1 0.447715 1.44772 0 2 0H22C22.5523 0 23 0.447715 23 1V4C23 4.26522 22.8946 4.51957 22.7071 4.70711L15 12.4142V20C15 20.3788 14.786 20.725 14.4472 20.8944L10.4472 22.8944C10.1372 23.0494 9.76908 23.0329 9.47427 22.8507C9.17945 22.6684 9 22.3466 9 22V12.4142L1.29289 4.70711C1.10536 4.51957 1 4.26522 1 4V1ZM3 2V3.58579L10.7071 11.2929C10.8946 11.4804 11 11.7348 11 12V20.382L13 19.382V12C13 11.7348 13.1054 11.4804 13.2929 11.2929L21 3.58579V2H3Z" fill="black" style="fill:black;fill-opacity:1;"/>
</svg>
