<svg xmlns="http://www.w3.org/2000/svg" width="24" height="24" viewBox="0 0 24 24"><g fill-rule="evenodd" clip-rule="evenodd" opacity=".5"><path d="M15.5 12.5a1 1 0 0 1 1 1v8a1 1 0 1 1-2 0v-8a1 1 0 0 1 1-1m-7 0a1 1 0 0 1 1 1V18a1 1 0 1 1-2 0v-4.5a1 1 0 0 1 1-1"/><path d="M22.566 2.676A1 1 0 0 1 23 3.5V19a1 1 0 0 1-.641.933l-6.5 2.5a1 1 0 0 1-.806-.039l-6.606-3.302-6.088 2.341A1 1 0 0 1 1 20.5V5a1 1 0 0 1 .641-.933l2.042-.786a1 1 0 1 1 .718 1.867L3 5.687v13.357l5.141-1.977a1 1 0 0 1 .806.039l6.606 3.302L21 18.313V4.956l-.676.26a1 1 0 1 1-.718-1.867l2.035-.782a1 1 0 0 1 .925.109"/></g><path fill-rule="evenodd" d="M7 5a5 5 0 0 1 10 0c0 2.737-2.058 4.884-4.42 6.565a1 1 0 0 1-1.16 0C9.058 9.885 7 7.737 7 5m5-3a3 3 0 0 0-3 3c0 1.533 1.07 3.019 3 4.506C13.93 8.02 15 6.533 15 5a3 3 0 0 0-3-3" clip-rule="evenodd"/><path d="M12 6.25a1.25 1.25 0 1 0 0-2.5 1.25 1.25 0 0 0 0 2.5"/></svg>