<svg width="24" height="24" viewBox="0 0 24 24" fill="none" xmlns="http://www.w3.org/2000/svg">
<path opacity="0.55" d="M21 5.63654C21 5.41954 20.9142 5.21087 20.7607 5.05743C20.6073 4.904 20.3986 4.81818 20.1816 4.81818H3.81836C3.60136 4.81818 3.3927 4.904 3.23926 5.05743C3.08582 5.21087 3 5.41954 3 5.63654V18.3641C3.00012 18.5808 3.08603 18.7889 3.23926 18.9422C3.3927 19.0956 3.60136 19.1815 3.81836 19.1815H20.1816C20.3986 19.1815 20.6073 19.0956 20.7607 18.9422C20.914 18.7889 20.9999 18.5808 21 18.3641V5.63654ZM23 18.3641C22.9999 19.1113 22.7031 19.8279 22.1748 20.3563C21.6463 20.8848 20.9291 21.1815 20.1816 21.1815H3.81836C3.07093 21.1815 2.35371 20.8848 1.8252 20.3563C1.2969 19.8279 1.00012 19.1113 1 18.3641V5.63654C1 4.88911 1.29668 4.17188 1.8252 3.64337C2.35371 3.11486 3.07093 2.81818 3.81836 2.81818H20.1816C20.9291 2.81818 21.6463 3.11486 22.1748 3.64337C22.7033 4.17188 23 4.88911 23 5.63654V18.3641Z" fill="black" style="fill:black;fill-opacity:1;"/>
<path d="M11.9996 15.5454C12.5519 15.5454 12.9996 15.9932 12.9996 16.5454C12.9996 17.0977 12.5519 17.5454 11.9996 17.5454H5.63636C5.08408 17.5454 4.63636 17.0977 4.63636 16.5454C4.63636 15.9932 5.08408 15.5454 5.63636 15.5454H11.9996Z" fill="black" style="fill:black;fill-opacity:1;"/>
<path d="M18.3639 15.5454L18.4655 15.5503C18.9699 15.6013 19.3639 16.0275 19.3639 16.5454C19.3639 17.0634 18.9699 17.4896 18.4655 17.5406L18.3639 17.5454H15.6364C15.0841 17.5454 14.6364 17.0977 14.6364 16.5454C14.6364 15.9932 15.0841 15.5454 15.6364 15.5454H18.3639Z" fill="black" style="fill:black;fill-opacity:1;"/>
<path d="M17.3641 10.1821C17.3641 9.80831 17.2798 9.43899 17.118 9.10201C16.9765 8.80725 16.7785 8.54357 16.536 8.32565L16.4295 8.23483L16.3524 8.16647C15.9913 7.81118 15.9508 7.23343 16.2743 6.82955C16.5983 6.42542 17.172 6.33888 17.5975 6.61471L17.6795 6.67428L17.8719 6.83736C18.3092 7.23007 18.6657 7.70547 18.9208 8.23678C19.2121 8.84384 19.3641 9.50874 19.3641 10.1821C19.3641 10.8554 19.2121 11.5204 18.9208 12.1274C18.6294 12.7344 18.2049 13.2678 17.6795 13.6889C17.2486 14.0343 16.6197 13.9655 16.2743 13.5346C15.9288 13.1037 15.9986 12.4738 16.4295 12.1284C16.7209 11.8947 16.9564 11.5988 17.118 11.2622C17.2797 10.9252 17.3641 10.5558 17.3641 10.1821Z" fill="black" style="fill:black;fill-opacity:1;"/>
<path d="M13.8182 11.5455C14.5713 11.5455 15.1818 10.9349 15.1818 10.1818C15.1818 9.42871 14.5713 8.81819 13.8182 8.81819C13.0651 8.81819 12.4545 9.42871 12.4545 10.1818C12.4545 10.9349 13.0651 11.5455 13.8182 11.5455Z" fill="black" style="fill:black;fill-opacity:1;"/>
</svg>
