<svg xmlns="http://www.w3.org/2000/svg" width="24" height="24" viewBox="0 0 24 24"><path fill-rule="evenodd" d="M20.156.656a.75.75 0 0 1 .75.75 1.687 1.687 0 0 0 1.688 1.688.75.75 0 0 1 0 1.5 1.69 1.69 0 0 0-1.688 1.687.75.75 0 1 1-1.5 0 1.687 1.687 0 0 0-1.687-1.687.75.75 0 1 1 0-1.5 1.69 1.69 0 0 0 1.687-1.688.75.75 0 0 1 .75-.75m0 2.804a3 3 0 0 1-.383.384 3 3 0 0 1 .383.383 3 3 0 0 1 .384-.383 3 3 0 0 1-.384-.384" clip-rule="evenodd" opacity=".55" style="fill:#000;fill-opacity:1"/><path fill-rule="evenodd" d="M10.848 2.022a1 1 0 0 1-.83 1.145C5.283 3.924 2 7.237 2 11c0 4.269 4.255 8 10 8h.02a9.6 9.6 0 0 0 2.807-.362 1 1 0 0 1 .65.036l4.336 1.764-.406-3.523a1 1 0 0 1 .29-.825 8.1 8.1 0 0 0 1.772-2.625 1 1 0 1 1 1.844.774 10.1 10.1 0 0 1-1.866 2.914l.546 4.732a1 1 0 0 1-1.37 1.041l-5.589-2.273A11.6 11.6 0 0 1 11.99 21C5.54 20.995 0 16.728 0 11c0-5.038 4.317-8.948 9.702-9.807a1 1 0 0 1 1.146.83" clip-rule="evenodd" style="fill:#000;fill-opacity:1"/><path fill-rule="evenodd" d="M14.469 4.719a.75.75 0 0 1 .75.75A3.31 3.31 0 0 0 18.53 8.78a.75.75 0 1 1 0 1.5 3.31 3.31 0 0 0-3.312 3.313.75.75 0 0 1-1.5 0 3.31 3.31 0 0 0-3.313-3.313.75.75 0 0 1 0-1.5 3.31 3.31 0 0 0 3.315-3.31.75.75 0 0 1 .75-.75m0 3.33a4.8 4.8 0 0 1-1.483 1.482 4.8 4.8 0 0 1 1.483 1.483 4.8 4.8 0 0 1 1.48-1.485 4.8 4.8 0 0 1-1.48-1.48" clip-rule="evenodd" style="fill:#000;fill-opacity:1"/></svg>