<svg width="24" height="24" viewBox="0 0 24 24" fill="none" xmlns="http://www.w3.org/2000/svg">
<path fill-rule="evenodd" clip-rule="evenodd" d="M8.90677 3.55111C10.7267 2.88506 12.7129 2.82422 14.5702 3.37765C16.4274 3.93108 18.0564 5.06921 19.2149 6.62277C20.3733 8.17626 20.9994 10.0624 21 12.0003V13C21 13.5304 20.7893 14.0391 20.4142 14.4142C20.0391 14.7893 19.5304 15 19 15C18.4696 15 17.9609 14.7893 17.5858 14.4142C17.2107 14.0391 17 13.5304 17 13V8.00001C17 7.44772 16.5523 7.00001 16 7.00001C15.4478 7.00001 15.0002 7.44753 15 7.99964C14.1643 7.37195 13.1256 7 12 7C9.23858 7 7 9.23858 7 12C7 14.7614 9.23858 17 12 17C13.4881 17 14.8244 16.3499 15.7403 15.3183C15.8687 15.4989 16.0128 15.6696 16.1716 15.8284C16.9217 16.5786 17.9391 17 19 17C20.0609 17 21.0783 16.5786 21.8284 15.8284C22.5786 15.0783 23 14.0609 23 13V11.9997C22.9993 9.63112 22.2341 7.326 20.8182 5.4272C19.4023 3.5284 17.4113 2.13735 15.1413 1.46093C12.8714 0.784521 10.4437 0.858879 8.21939 1.67295C5.99508 2.48702 4.09294 3.99732 2.79589 5.97922C1.49883 7.96112 0.876147 10.3087 1.02044 12.6729C1.16473 15.0371 2.06828 17.2916 3.59673 19.1011C5.12517 20.9105 7.19685 22.1783 9.50365 22.7158C11.8105 23.2534 14.2291 23.032 16.4 22.0845C16.9062 21.8636 17.1374 21.2742 16.9165 20.768C16.6956 20.2618 16.1062 20.0306 15.6 20.2515C13.8238 21.0267 11.8449 21.2078 9.95754 20.768C8.07015 20.3282 6.37514 19.291 5.1246 17.8105C3.87405 16.33 3.13478 14.4855 3.01672 12.5511C2.89867 10.6168 3.40814 8.69598 4.46937 7.07442C5.53059 5.45287 7.08688 4.21717 8.90677 3.55111ZM9 12C9 10.3431 10.3431 9 12 9C13.6569 9 15 10.3431 15 12C15 13.6569 13.6569 15 12 15C10.3431 15 9 13.6569 9 12Z" fill="black" style="fill:black;fill-opacity:1;"/>
</svg>
