<svg width="24" height="24" viewBox="0 0 24 24" fill="none" xmlns="http://www.w3.org/2000/svg">
<g clip-path="url(#clip0_837_983)">
<path fill-rule="evenodd" clip-rule="evenodd" d="M12 2C10.0222 2 8.08879 2.58649 6.4443 3.6853C4.79981 4.78412 3.51809 6.3459 2.76121 8.17317C2.00433 10.0004 1.8063 12.0111 2.19215 13.9509C2.578 15.8907 3.53041 17.6725 4.92894 19.0711C6.32746 20.4696 8.10929 21.422 10.0491 21.8079C11.9889 22.1937 13.9996 21.9957 15.8268 21.2388C17.6541 20.4819 19.2159 19.2002 20.3147 17.5557C21.4135 15.9112 22 13.9778 22 12C22 11.4477 22.4477 11 23 11C23.5523 11 24 11.4477 24 12C24 14.3734 23.2962 16.6935 21.9776 18.6668C20.6591 20.6402 18.7849 22.1783 16.5922 23.0866C14.3995 23.9948 11.9867 24.2324 9.65892 23.7694C7.33115 23.3064 5.19296 22.1635 3.51472 20.4853C1.83649 18.8071 0.693605 16.6689 0.230582 14.3411C-0.232441 12.0133 0.00519949 9.60051 0.913451 7.4078C1.8217 5.21509 3.35977 3.34094 5.33316 2.02236C7.30655 0.703788 9.62663 0 12 0C12.5523 0 13 0.447715 13 1C13 1.55228 12.5523 2 12 2Z" fill="black"/>
<path d="M12 14C13.1046 14 14 13.1046 14 12C14 10.8954 13.1046 10 12 10C10.8954 10 10 10.8954 10 12C10 13.1046 10.8954 14 12 14Z" fill="black"/>
<g opacity="0.55">
<path fill-rule="evenodd" clip-rule="evenodd" d="M12.9755 7.09607C12.0055 6.90315 11.0002 7.00216 10.0866 7.3806C9.17295 7.75904 8.39206 8.3999 7.84265 9.22215C7.29324 10.0444 7 11.0111 7 12C7 12.5523 6.55228 13 6 13C5.44772 13 5 12.5523 5 12C5 10.6155 5.41054 9.26215 6.17971 8.11101C6.94888 6.95986 8.04213 6.06266 9.32122 5.53284C10.6003 5.00303 12.0078 4.86441 13.3656 5.1345C14.7235 5.4046 15.9708 6.07129 16.9497 7.05025C17.9287 8.02922 18.5954 9.2765 18.8655 10.6344C19.1356 11.9922 18.997 13.3997 18.4672 14.6788C17.9373 15.9579 17.0401 17.0511 15.889 17.8203C14.7378 18.5895 13.3845 19 12 19C11.4477 19 11 18.5523 11 18C11 17.4477 11.4477 17 12 17C12.9889 17 13.9556 16.7068 14.7779 16.1573C15.6001 15.6079 16.241 14.827 16.6194 13.9134C16.9978 12.9998 17.0969 11.9945 16.9039 11.0245C16.711 10.0546 16.2348 9.16373 15.5355 8.46447C14.8363 7.7652 13.9454 7.289 12.9755 7.09607Z" fill="black"/>
<path fill-rule="evenodd" clip-rule="evenodd" d="M15.0689 1.38631C15.2703 0.872062 15.8504 0.618459 16.3647 0.819872C17.9092 1.4248 19.312 2.34248 20.485 3.5153C21.658 4.68811 22.5759 6.09075 23.1811 7.63516C23.3826 8.14938 23.1291 8.72958 22.6148 8.93107C22.1006 9.13257 21.5204 8.87906 21.3189 8.36484C20.8143 7.07708 20.049 5.90754 19.0709 4.92962C18.0928 3.9517 16.9231 3.18653 15.6353 2.68213C15.1211 2.48072 14.8675 1.90056 15.0689 1.38631Z" fill="black"/>
</g>
</g>
<defs>
<clipPath id="clip0_837_983">
<rect width="24" height="24" fill="white"/>
</clipPath>
</defs>
</svg>
