<svg xmlns="http://www.w3.org/2000/svg" width="24" height="24" viewBox="0 0 24 24"><path fill-rule="evenodd" d="M12 21a1 1 0 0 1 1 1v1a1 1 0 1 1-2 0v-1a1 1 0 0 1 1-1m-5-3a1 1 0 0 1 1 1v1a1 1 0 1 1-2 0v-1a1 1 0 0 1 1-1m10 0a1 1 0 0 1 1 1v1a1 1 0 1 1-2 0v-1a1 1 0 0 1 1-1" clip-rule="evenodd" opacity=".55"/><path fill-rule="evenodd" d="M12 0a1 1 0 0 1 1 1v3a1 1 0 1 1-2 0V1a1 1 0 0 1 1-1M2 15a1 1 0 0 1 1-1h18a1 1 0 1 1 0 2H3a1 1 0 0 1-1-1" clip-rule="evenodd"/><path fill-rule="evenodd" d="M5.636 5.636A9 9 0 0 1 21 12v3a1 1 0 1 1-2 0v-3a7 7 0 0 0-14 0v3a1 1 0 1 1-2 0v-3a9 9 0 0 1 2.636-6.364" clip-rule="evenodd"/></svg>