<svg xmlns="http://www.w3.org/2000/svg" width="24" height="24" viewBox="0 0 24 24"><path fill-rule="evenodd" d="M13 2a1 1 0 0 1 1-1h8a1 1 0 0 1 1 1v8a1 1 0 0 1-1 1h-8a1 1 0 0 1-1-1V2Zm2 1v6h6V3h-6ZM1 14a1 1 0 0 1 1-1h8a1 1 0 0 1 1 1v8a1 1 0 0 1-1 1H2a1 1 0 0 1-1-1v-8Zm2 1v6h6v-6H3Z" clip-rule="evenodd" opacity=".55"/><path fill-rule="evenodd" d="M1 2a1 1 0 0 1 1-1h8a1 1 0 0 1 1 1v8a1 1 0 0 1-1 1H2a1 1 0 0 1-1-1V2Zm2 1v6h6V3H3Zm10 11a1 1 0 0 1 1-1h8a1 1 0 0 1 1 1v8a1 1 0 0 1-1 1h-8a1 1 0 0 1-1-1v-8Zm2 1v6h6v-6h-6Z" clip-rule="evenodd"/></svg>