<svg xmlns="http://www.w3.org/2000/svg" width="24" height="24" viewBox="0 0 24 24"><g clip-path="url(#a)"><path d="M20 11a1 1 0 0 1 1 1v10a1 1 0 0 1-1 1H4a1 1 0 0 1-1-1V12a1 1 0 1 1 2 0v9h14v-9a1 1 0 0 1 1-1M11.438.173a1 1 0 0 1 1.195.053l11 9a1 1 0 0 1-1.266 1.548L12 2.292 1.633 10.774A1 1 0 0 1 .367 9.226l11-9z"/><path d="M12 14a5 5 0 0 1 4.842 3.749A1.006 1.006 0 0 1 15.868 19H8.132a1.005 1.005 0 0 1-.974-1.251A5 5 0 0 1 12 14m0-5a2 2 0 1 1 0 4 2 2 0 0 1 0-4" opacity=".55"/></g><defs><clipPath id="a"><path fill="#fff" d="M0 0h24v24H0z"/></clipPath></defs></svg>