<svg xmlns="http://www.w3.org/2000/svg" width="24" height="24" viewBox="0 0 24 24"><path fill-rule="evenodd" d="M4 12a1 1 0 0 1 1-1h2a1 1 0 0 1 1 1v1a1 1 0 0 1-1 1H5a1 1 0 0 1-1-1zm6 0a1 1 0 0 1 1-1h2a1 1 0 0 1 1 1v1a1 1 0 0 1-1 1h-2a1 1 0 0 1-1-1zm-6 5a1 1 0 0 1 1-1h2a1 1 0 0 1 1 1v1a1 1 0 0 1-1 1H5a1 1 0 0 1-1-1zm6 0a1 1 0 0 1 1-1h2a1 1 0 0 1 1 1v1a1 1 0 0 1-1 1h-2a1 1 0 0 1-1-1zm6-5a1 1 0 0 1 1-1h2a1 1 0 0 1 1 1v1a1 1 0 0 1-1 1h-2a1 1 0 0 1-1-1zM6 0a1 1 0 0 1 1 1v3a1 1 0 0 1-2 0V1a1 1 0 0 1 1-1m12 0a1 1 0 0 1 1 1v3a1 1 0 1 1-2 0V1a1 1 0 0 1 1-1" clip-rule="evenodd"/><path fill-rule="evenodd" d="M2 5a1 1 0 0 1 1-1h18a1 1 0 0 1 1 1v2H2zM0 8V5a3 3 0 0 1 3-3h18a3 3 0 0 1 3 3v15a3 3 0 0 1-3 3H3a3 3 0 0 1-3-3zm22 1v11a1 1 0 0 1-1 1H3a1 1 0 0 1-1-1V9z" clip-rule="evenodd" opacity=".55"/></svg>