<svg xmlns="http://www.w3.org/2000/svg" width="24" height="24" viewBox="0 0 24 24"><g fill-rule="evenodd" clip-path="url(#a)" clip-rule="evenodd"><path d="M5 8v13a1 1 0 0 0 1 1h12a1 1 0 0 0 1-1V8h2v13a3 3 0 0 1-3 3H6a3 3 0 0 1-3-3V8zM0 4h24v2H0z"/><path d="M7 0h10v6h-2V2H9v4H7z"/><g opacity=".55"><path d="M16.414 11.985 9 19.399l-1.414-1.414L15 10.571z"/><path d="m9 10.57 7.414 7.415L15 19.399l-7.414-7.414z"/></g></g><defs><clipPath id="a"><path fill="#fff" d="M0 0h24v24H0z"/></clipPath></defs></svg>