<svg width="24" height="24" viewBox="0 0 24 24" fill="none" xmlns="http://www.w3.org/2000/svg">
<path fill-rule="evenodd" clip-rule="evenodd" d="M6.50001 9.321C6.80749 9.321 7.09786 9.46245 7.2874 9.70456C7.84726 10.4197 8.56252 10.998 9.37901 11.3957C10.1955 11.7935 11.0918 12.0002 12 12.0002C12.9082 12.0002 13.8045 11.7935 14.621 11.3957C15.4375 10.998 16.1527 10.4197 16.7126 9.70456C16.9021 9.46245 17.1925 9.321 17.5 9.321C17.8075 9.32099 18.0978 9.46244 18.2874 9.70454C18.8473 10.4196 19.5625 10.9979 20.379 11.3956C21.1955 11.7933 22.0918 12 23 12C23.5523 12 24 12.4477 24 13C24 13.5523 23.5523 14 23 14C21.7883 14 20.5925 13.7243 19.5032 13.1937C18.7662 12.8347 18.091 12.3654 17.5 11.8039C16.909 12.3654 16.2339 12.8348 15.4968 13.1938C14.4075 13.7244 13.2117 14.0002 12 14.0002C10.7883 14.0002 9.59249 13.7244 8.50316 13.1938C7.76615 12.8348 7.09096 12.3654 6.49998 11.8039C5.90899 12.3654 5.2338 12.8347 4.4968 13.1937C3.40747 13.7243 2.21167 14 0.999982 14C0.447697 14 -1.01326e-05 13.5523 1.72008e-10 13C1.0133e-05 12.4477 0.447734 12 1.00002 12C1.90821 12 2.8045 11.7933 3.62099 11.3956C4.43748 10.9979 5.15275 10.4196 5.71262 9.70454C5.90216 9.46244 6.19254 9.32099 6.50001 9.321Z" fill="black" style="fill:black;fill-opacity:1;"/>
<g opacity="0.5">
<path fill-rule="evenodd" clip-rule="evenodd" d="M6.50001 16.321C6.80749 16.321 7.09786 16.4625 7.2874 16.7046C7.84726 17.4197 8.56252 17.998 9.37901 18.3957C10.1955 18.7935 11.0918 19.0002 12 19.0002C12.9082 19.0002 13.8045 18.7935 14.621 18.3957C15.4375 17.998 16.1527 17.4197 16.7126 16.7046C16.9021 16.4625 17.1925 16.321 17.5 16.321C17.8075 16.321 18.0978 16.4624 18.2874 16.7045C18.8473 17.4196 19.5625 17.9979 20.379 18.3956C21.1955 18.7933 22.0918 19 23 19C23.5523 19 24 19.4477 24 20C24 20.5523 23.5523 21 23 21C21.7883 21 20.5925 20.7243 19.5032 20.1937C18.7662 19.8347 18.091 19.3654 17.5 18.8039C16.909 19.3654 16.2339 19.8348 15.4968 20.1938C14.4075 20.7244 13.2117 21.0002 12 21.0002C10.7883 21.0002 9.59249 20.7244 8.50316 20.1938C7.76615 19.8348 7.09096 19.3654 6.49998 18.8039C5.90899 19.3654 5.2338 19.8347 4.4968 20.1937C3.40747 20.7243 2.21167 21 0.999982 21C0.447697 21 -1.01326e-05 20.5523 1.72008e-10 20C1.0133e-05 19.4477 0.447734 19 1.00002 19C1.90821 19 2.8045 18.7933 3.62099 18.3956C4.43748 17.9979 5.15275 17.4196 5.71262 16.7045C5.90216 16.4624 6.19254 16.321 6.50001 16.321Z" fill="black" style="fill:black;fill-opacity:1;"/>
<path fill-rule="evenodd" clip-rule="evenodd" d="M6.50001 2.321C6.80748 2.321 7.09786 2.46245 7.2874 2.70456C7.77191 3.32343 8.37357 3.84082 9.05804 4.22716C9.7425 4.61351 10.4964 4.86126 11.2766 4.95626C12.0568 5.05126 12.8481 4.99165 13.6053 4.78084C14.3624 4.57003 15.0707 4.21215 15.6895 3.72762C16.0706 3.42964 16.4143 3.086 16.7123 2.70497C16.9017 2.4627 17.1922 2.32108 17.4997 2.321C17.8073 2.32091 18.0978 2.46236 18.2874 2.70454C18.8473 3.41963 19.5625 3.99794 20.379 4.39564C21.1955 4.79334 22.0918 5.00002 23 5C23.5523 4.99999 24 5.4477 24 5.99998C24 6.55227 23.5523 6.99999 23 7C21.7883 7.00002 20.5925 6.72429 19.5032 6.19368C18.7663 5.83473 18.0911 5.36549 17.5002 4.80408C17.3158 4.97917 17.1231 5.14548 16.9225 5.30238C16.0968 5.94882 15.1519 6.4263 14.1417 6.70756C13.1315 6.98882 12.0758 7.06835 11.0348 6.9416C9.9939 6.81485 8.98812 6.48431 8.07493 5.96886C7.50283 5.64594 6.9741 5.2544 6.49998 4.80394C5.90899 5.36541 5.2338 5.8347 4.4968 6.19368C3.40747 6.72429 2.21167 7.00002 0.999982 7C0.447697 6.99999 -1.01326e-05 6.55227 1.72008e-10 5.99998C1.0133e-05 5.4477 0.447734 4.99999 1.00002 5C1.90821 5.00002 2.8045 4.79334 3.62099 4.39564C4.43748 3.99794 5.15275 3.41963 5.71262 2.70454C5.90216 2.46244 6.19254 2.321 6.50001 2.321Z" fill="black" style="fill:black;fill-opacity:1;"/>
</g>
</svg>
