<svg width="24" height="24" viewBox="0 0 24 24" fill="none" xmlns="http://www.w3.org/2000/svg">
<path fill-rule="evenodd" clip-rule="evenodd" d="M8 3C5.23858 3 3 5.23858 3 8C3 10.7614 5.23858 13 8 13C10.7614 13 13 10.7614 13 8C13 5.23858 10.7614 3 8 3ZM1 8C1 4.13401 4.13401 1 8 1C11.866 1 15 4.13401 15 8C15 11.866 11.866 15 8 15C4.13401 15 1 11.866 1 8Z" fill="black"/>
<path fill-rule="evenodd" clip-rule="evenodd" d="M18 15C16.3431 15 15 16.3431 15 18C15 19.6569 16.3431 21 18 21C19.6569 21 21 19.6569 21 18C21 16.3431 19.6569 15 18 15ZM13 18C13 15.2386 15.2386 13 18 13C20.7614 13 23 15.2386 23 18C23 20.7614 20.7614 23 18 23C15.2386 23 13 20.7614 13 18Z" fill="black"/>
<path opacity="0.55" fill-rule="evenodd" clip-rule="evenodd" d="M20 6C19.4477 6 19 6.44772 19 7C19 7.55228 19.4477 8 20 8C20.5523 8 21 7.55228 21 7C21 6.44772 20.5523 6 20 6ZM17 7C17 5.34315 18.3431 4 20 4C21.6569 4 23 5.34315 23 7C23 8.65685 21.6569 10 20 10C18.3431 10 17 8.65685 17 7Z" fill="black"/>
</svg>
