<svg xmlns="http://www.w3.org/2000/svg" width="24" height="24" viewBox="0 0 24 24"><path fill-rule="evenodd" d="M6.5 9.321a1 1 0 0 1 .787.384 5.984 5.984 0 0 0 9.426 0 1 1 0 0 1 1.574 0A5.99 5.99 0 0 0 23 12a1 1 0 1 1 0 2 8 8 0 0 1-5.5-2.196 7.984 7.984 0 0 1-11 0A8 8 0 0 1 1 14a1 1 0 1 1 0-2 5.99 5.99 0 0 0 4.713-2.295A1 1 0 0 1 6.5 9.32Z" clip-rule="evenodd"/><path fill-rule="evenodd" d="M6.5 16.321a1 1 0 0 1 .787.384 5.985 5.985 0 0 0 9.426 0 1 1 0 0 1 1.574 0A5.99 5.99 0 0 0 23 19a1 1 0 1 1 0 2 8 8 0 0 1-5.5-2.196 7.984 7.984 0 0 1-11 0A8 8 0 0 1 1 21a1 1 0 1 1 0-2 5.99 5.99 0 0 0 4.713-2.296 1 1 0 0 1 .787-.383m0-14a1 1 0 0 1 .787.384 5.985 5.985 0 0 0 9.425 0 1 1 0 0 1 1.575 0A5.99 5.99 0 0 0 23 5a1 1 0 1 1 0 2 8 8 0 0 1-5.5-2.196 8 8 0 0 1-3.358 1.904A7.99 7.99 0 0 1 6.5 4.804 8 8 0 0 1 1 7a1 1 0 1 1 0-2 5.99 5.99 0 0 0 4.713-2.295A1 1 0 0 1 6.5 2.32Z" clip-rule="evenodd" opacity=".55"/></svg>