<svg width="24" height="24" viewBox="0 0 24 24" fill="none" xmlns="http://www.w3.org/2000/svg">
<path d="M23 2H1C0.447 2 0 2.447 0 3C0 3.553 0.447 4 1 4H23C23.553 4 24 3.553 24 3C24 2.447 23.553 2 23 2Z" fill="black"/>
<path d="M17 14H7C6.447 14 6 14.447 6 15C6 15.553 6.447 16 7 16H17C17.553 16 18 15.553 18 15C18 14.447 17.553 14 17 14Z" fill="black"/>
<g opacity="0.55">
<path d="M20 8H4C3.447 8 3 8.447 3 9C3 9.553 3.447 10 4 10H20C20.553 10 21 9.553 21 9C21 8.447 20.553 8 20 8Z" fill="black"/>
<path d="M14 20H10C9.447 20 9 20.447 9 21C9 21.553 9.447 22 10 22H14C14.553 22 15 21.553 15 21C15 20.447 14.553 20 14 20Z" fill="black"/>
</g>
</svg>
