<svg xmlns="http://www.w3.org/2000/svg" width="24" height="24" viewBox="0 0 24 24"><path fill-rule="evenodd" d="M6.5 16.321a1 1 0 0 1 .787.383 5.984 5.984 0 0 0 9.426 0 1 1 0 0 1 1.574 0A5.99 5.99 0 0 0 23 19a1 1 0 1 1 0 2 8 8 0 0 1-5.5-2.196 7.983 7.983 0 0 1-11 0A8 8 0 0 1 1 21a1 1 0 1 1 0-2 5.99 5.99 0 0 0 4.713-2.296 1 1 0 0 1 .787-.383m0-14a1 1 0 0 1 .787.384 5.985 5.985 0 0 0 9.425 0 1 1 0 0 1 1.575 0A5.99 5.99 0 0 0 23 5a1 1 0 1 1 0 2 8 8 0 0 1-5.5-2.196 8 8 0 0 1-3.358 1.904A7.99 7.99 0 0 1 6.5 4.804 8 8 0 0 1 1 7a1 1 0 1 1 0-2 5.99 5.99 0 0 0 4.713-2.295A1 1 0 0 1 6.5 2.32" clip-rule="evenodd" opacity=".5"/><path d="M5.624 8.006a.9.9 0 0 1 .467.193l.06.053 2.732 2.74a.72.72 0 0 1 .214.507.72.72 0 0 1-.214.51L6.15 14.745a.9.9 0 0 1-.527.247.96.96 0 0 1-.553-.1.76.76 0 0 1-.396-.507.71.71 0 0 1 .198-.655l2.224-2.232-2.224-2.23a.71.71 0 0 1-.198-.655.76.76 0 0 1 .396-.507l.137-.059a1 1 0 0 1 .416-.042m5.123.001a.9.9 0 0 1 .467.193l.06.053 2.732 2.74a.72.72 0 0 1 .213.507.72.72 0 0 1-.213.51l-2.732 2.737a.9.9 0 0 1-.527.247.96.96 0 0 1-.553-.1.76.76 0 0 1-.396-.507.71.71 0 0 1 .198-.655l2.225-2.232-2.225-2.23a.71.71 0 0 1-.198-.655.76.76 0 0 1 .396-.507l.137-.059a1 1 0 0 1 .416-.042m5.122 0a.9.9 0 0 1 .467.193l.06.053 2.732 2.74a.72.72 0 0 1 .214.507.72.72 0 0 1-.214.51l-2.733 2.737a.9.9 0 0 1-.526.247.96.96 0 0 1-.553-.1.76.76 0 0 1-.396-.507.71.71 0 0 1 .198-.655l2.225-2.232-2.225-2.23a.71.71 0 0 1-.198-.655.76.76 0 0 1 .396-.507l.137-.059a1 1 0 0 1 .416-.042"/></svg>