<svg xmlns="http://www.w3.org/2000/svg" width="24" height="24" viewBox="0 0 24 24"><g fill-rule="evenodd" clip-path="url(#a)" clip-rule="evenodd"><path d="M12 12.979a1 1 0 0 1 1.041-.958c2.906.119 5.55.734 7.505 1.701C22.428 14.653 24 16.095 24 18c0 2.014-1.75 3.51-3.808 4.446C18.044 23.422 15.147 24 12 24s-6.044-.578-8.192-1.554C1.75 21.51 0 20.014 0 18c0-1.136.574-2.117 1.398-2.894.82-.775 1.95-1.411 3.25-1.9a1 1 0 1 1 .703 1.873c-1.142.43-2.013.945-2.58 1.481C2.204 17.094 2 17.583 2 18c0 .747.712 1.75 2.636 2.625C6.469 21.458 9.072 22 12 22s5.531-.542 7.364-1.375C21.288 19.751 22 18.747 22 18c0-.703-.625-1.636-2.34-2.485-1.645-.814-4-1.385-6.701-1.496a1 1 0 0 1-.958-1.04" opacity=".5"/><path d="M8.45 1.165a1 1 0 0 1 .944-.084l7 3a1 1 0 0 1 0 1.838L10 8.66V18a1 1 0 1 1-2 0V2a1 1 0 0 1 .45-.835M10 6.483 13.461 5 10 3.517z"/></g><defs><clipPath id="a"><path fill="#fff" d="M0 0h24v24H0z"/></clipPath></defs></svg>