<svg width="24" height="24" viewBox="0 0 24 24" fill="none" xmlns="http://www.w3.org/2000/svg">
<path opacity="0.5" fill-rule="evenodd" clip-rule="evenodd" d="M0.292893 8.29289C0.48043 8.10536 0.734784 8 1 8C2.31322 8 3.61358 8.25866 4.82683 8.7612C6.04009 9.26375 7.14248 10.0003 8.07107 10.9289C8.99965 11.8575 9.73625 12.9599 10.2388 14.1732C10.7413 15.3864 11 16.6868 11 18V22C11 22.2652 10.8946 22.5196 10.7071 22.7071C10.5196 22.8946 10.2652 23 10 23C7.34784 23 4.8043 21.9464 2.92893 20.0711C1.05357 18.1957 0 15.6522 0 13V9C0 8.73478 0.105357 8.48043 0.292893 8.29289ZM2 10.0627V13C2 15.1217 2.84285 17.1566 4.34315 18.6569C5.60577 19.9195 7.247 20.7165 9 20.9373V18C9 16.9494 8.79307 15.9091 8.39104 14.9385C7.989 13.9679 7.39972 13.086 6.65685 12.3431C5.91399 11.6003 5.03207 11.011 4.06147 10.609C3.40038 10.3351 2.70697 10.1518 2 10.0627Z" fill="black" style="fill:black;fill-opacity:1;"/>
<path fill-rule="evenodd" clip-rule="evenodd" d="M13.1005 5.1005C15.726 2.475 19.287 1 23 1C23.2652 1 23.5196 1.10536 23.7071 1.29289C23.8946 1.48043 24 1.73478 24 2V9C24 10.8385 23.6379 12.659 22.9343 14.3576C22.2307 16.0561 21.1995 17.5995 19.8995 18.8995C18.5995 20.1995 17.0561 21.2307 15.3576 21.9343C13.659 22.6379 11.8385 23 10 23C9.44772 23 9 22.5523 9 22V15C9 11.287 10.475 7.72601 13.1005 5.1005ZM22 3.04171C19.1837 3.27712 16.5282 4.50119 14.5147 6.51472C12.2643 8.76516 11 11.8174 11 15V20.9583C12.2332 20.8551 13.4452 20.5617 14.5922 20.0866C16.0481 19.4835 17.371 18.5996 18.4853 17.4853C19.5996 16.371 20.4835 15.0481 21.0866 13.5922C21.6896 12.1363 22 10.5759 22 9V3.04171Z" fill="black" style="fill:black;fill-opacity:1;"/>
</svg>
