<svg xmlns="http://www.w3.org/2000/svg" width="24" height="24" viewBox="0 0 24 24"><path fill-rule="evenodd" d="M6.5 16.321a1 1 0 0 1 .787.383 5.984 5.984 0 0 0 9.426 0 1 1 0 0 1 1.574 0A5.99 5.99 0 0 0 23 19a1 1 0 1 1 0 2 8 8 0 0 1-5.5-2.196 7.983 7.983 0 0 1-11 0A8 8 0 0 1 1 21a1 1 0 1 1 0-2 5.99 5.99 0 0 0 4.713-2.296 1 1 0 0 1 .787-.383m0-14a1 1 0 0 1 .787.384 5.985 5.985 0 0 0 9.425 0 1 1 0 0 1 1.575 0A5.99 5.99 0 0 0 23 5a1 1 0 1 1 0 2 8 8 0 0 1-5.5-2.196 8 8 0 0 1-3.358 1.904A7.99 7.99 0 0 1 6.5 4.804 8 8 0 0 1 1 7a1 1 0 1 1 0-2 5.99 5.99 0 0 0 4.713-2.295A1 1 0 0 1 6.5 2.32" clip-rule="evenodd" opacity=".5"/><path d="M18.375 8.006a.9.9 0 0 0-.467.192l-.06.055-2.732 2.738a.72.72 0 0 0-.214.509.72.72 0 0 0 .214.508l2.733 2.739a.9.9 0 0 0 .526.247.96.96 0 0 0 .553-.102.76.76 0 0 0 .397-.506.71.71 0 0 0-.198-.656l-2.226-2.23 2.226-2.23a.71.71 0 0 0 .198-.656.76.76 0 0 0-.397-.507l-.137-.058a1 1 0 0 0-.416-.043m-5.121 0a.9.9 0 0 0-.467.192l-.06.055-2.732 2.738a.72.72 0 0 0-.215.509.72.72 0 0 0 .215.508l2.732 2.739a.9.9 0 0 0 .527.247.96.96 0 0 0 .553-.102.76.76 0 0 0 .396-.506.71.71 0 0 0-.198-.656l-2.226-2.23 2.226-2.23a.71.71 0 0 0 .198-.656.76.76 0 0 0-.396-.507l-.137-.058a1 1 0 0 0-.416-.043m-5.122 0a.9.9 0 0 0-.467.192l-.06.055-2.732 2.738a.72.72 0 0 0-.215.509.72.72 0 0 0 .215.508l2.732 2.739a.9.9 0 0 0 .527.247.96.96 0 0 0 .553-.102.76.76 0 0 0 .396-.506.71.71 0 0 0-.198-.656L6.657 11.5l2.226-2.23a.71.71 0 0 0 .198-.656.76.76 0 0 0-.396-.507l-.137-.058a1 1 0 0 0-.416-.043"/></svg>