<svg width="24" height="24" viewBox="0 0 24 24" xmlns="http://www.w3.org/2000/svg"><g clip-path="url(#a)" fill-rule="evenodd" clip-rule="evenodd"><path d="M0 12a1 1 0 0 1 1-1h1a1 1 0 1 1 0 2H1a1 1 0 0 1-1-1Zm3.493-8.507a1 1 0 0 1 1.414 0l.7.7a1 1 0 1 1-1.414 1.414l-.7-.7a1 1 0 0 1 0-1.414ZM12 0a1 1 0 0 1 1 1v1a1 1 0 1 1-2 0V1a1 1 0 0 1 1-1Zm8.507 3.493a1 1 0 0 1 0 1.414l-.7.7a1 1 0 1 1-1.414-1.414l.7-.7a1 1 0 0 1 1.414 0ZM21 12a1 1 0 0 1 1-1h1a1 1 0 1 1 0 2h-1a1 1 0 0 1-1-1Zm-2.607 6.393a1 1 0 0 1 1.414 0l.7.7a1 1 0 0 1-1.414 1.414l-.7-.7a1 1 0 0 1 0-1.414ZM12 21a1 1 0 0 1 1 1v1a1 1 0 1 1-2 0v-1a1 1 0 0 1 1-1Zm-6.393-2.607a1 1 0 0 1 0 1.414l-.7.7a1 1 0 0 1-1.414-1.414l.7-.7a1 1 0 0 1 1.414 0Z" opacity=".55"/><path d="M12 7a5 5 0 1 0 0 10 5 5 0 0 0 0-10Zm-7 5a7 7 0 1 1 14 0 7 7 0 0 1-14 0Z"/></g><defs><clipPath id="a"><path fill="#fff" d="M0 0h24v24H0z"/></clipPath></defs></svg>