<svg width="24" height="24" viewBox="0 0 24 24" xmlns="http://www.w3.org/2000/svg"><path fill-rule="evenodd" clip-rule="evenodd" d="M12.172 1.172A4 4 0 0 1 19 4v7.252a7 7 0 1 1-8 0V4a4 4 0 0 1 1.172-2.828ZM15 2a2 2 0 0 0-2 2v7.8a1 1 0 0 1-.5.866 5 5 0 1 0 5 0 1 1 0 0 1-.5-.866V4a2 2 0 0 0-2-2Z"/><path opacity=".55" d="M15 20a3 3 0 0 0 3-3h-6a3 3 0 0 0 3 3Z"/><path fill-rule="evenodd" clip-rule="evenodd" d="M2 3a1 1 0 0 1 1-1h4a1 1 0 0 1 0 2H3a1 1 0 0 1-1-1Zm0 5a1 1 0 0 1 1-1h4a1 1 0 0 1 0 2H3a1 1 0 0 1-1-1Zm0 5a1 1 0 0 1 1-1h2a1 1 0 1 1 0 2H3a1 1 0 0 1-1-1Z"/></svg>