<svg width="24" height="24" viewBox="0 0 24 24" xmlns="http://www.w3.org/2000/svg"><path fill-rule="evenodd" clip-rule="evenodd" d="M3 2a1 1 0 0 1 1 1v17.87c.022.018.053.041.096.07.233.15.665.333 1.362.502 1.38.335 3.54.558 6.542.558 3.003 0 5.163-.223 6.542-.558.697-.169 1.129-.351 1.362-.503a1.09 1.09 0 0 0 .096-.068V3a1 1 0 1 1 2 0v18c0 .773-.518 1.3-1.008 1.618-.505.327-1.184.575-1.978.768-1.602.389-3.942.614-7.014.614s-5.412-.225-7.014-.614c-.794-.193-1.473-.441-1.978-.768C2.518 22.3 2 21.773 2 21V3a1 1 0 0 1 1-1Zm17.046 18.826-.006.008a.033.033 0 0 1 .006-.008Zm-16.092 0s.003.002.006.008a.034.034 0 0 1-.006-.008Z"/><path fill-rule="evenodd" clip-rule="evenodd" d="m3.954 3.174.006-.008a.036.036 0 0 1-.006.008ZM4.197 3c.25-.138.655-.295 1.26-.442C6.838 2.223 8.998 2 12 2s5.163.223 6.542.558c.606.147 1.012.304 1.26.442-.248.138-.654.295-1.26.442C17.162 3.777 15.002 4 12 4c-3.003 0-5.163-.223-6.542-.558-.606-.147-1.012-.304-1.26-.442Zm15.85.174-.008-.008c.006.005.008.008.007.008Zm-.008-.34a.036.036 0 0 1 .007-.008l-.006.008Zm-16.079 0c-.005-.005-.007-.008-.006-.008l.006.008ZM4.986.614C6.588.225 8.928 0 12 0s5.412.225 7.014.614c.794.193 1.473.441 1.978.768C21.482 1.7 22 2.227 22 3c0 .773-.518 1.3-1.008 1.618-.505.327-1.184.575-1.978.768C17.412 5.775 15.072 6 12 6s-5.412-.225-7.014-.614c-.794-.193-1.473-.441-1.978-.768C2.518 4.3 2 3.773 2 3c0-.773.518-1.3 1.008-1.618.505-.327 1.184-.575 1.978-.768Z"/><path opacity=".55" d="M12 19c1.933 0 4-1.512 4-4.125C16 12.469 12 8 12 8s-4 4.469-4 6.875C8 17.488 10.067 19 12 19Z"/></svg>