<svg width="24" height="24" viewBox="0 0 24 24" fill="none" xmlns="http://www.w3.org/2000/svg">
<path opacity="0.5" fill-rule="evenodd" clip-rule="evenodd" d="M12.1358 15.7666C12.4127 15.2887 13.0246 15.1259 13.5024 15.4028C14.3951 15.9202 15 16.8886 15 18C15 19.6573 13.6573 21 12 21C10.8861 21 9.91439 20.3924 9.39809 19.4945C9.1228 19.0157 9.28775 18.4044 9.76653 18.1291C10.2453 17.8538 10.8566 18.0188 11.1319 18.4975C11.3056 18.7996 11.6299 19 12 19C12.5527 19 13 18.5527 13 18C13 17.6314 12.8009 17.3078 12.4996 17.1332C12.0217 16.8563 11.8589 16.2444 12.1358 15.7666Z" fill="black"/>
<path opacity="0.5" fill-rule="evenodd" clip-rule="evenodd" d="M5.6359 11.6359C7.26384 10.008 9.51524 9 12 9C14.4848 9 16.7362 10.008 18.3641 11.6359C18.7546 12.0264 18.7546 12.6596 18.3641 13.0501C17.9736 13.4406 17.3404 13.4406 16.9499 13.0501C15.6818 11.782 13.9332 11 12 11C10.0668 11 8.31817 11.782 7.05011 13.0501C6.65958 13.4406 6.02642 13.4406 5.6359 13.0501C5.24537 12.6596 5.24537 12.0264 5.6359 11.6359Z" fill="black"/>
<path opacity="0.5" fill-rule="evenodd" clip-rule="evenodd" d="M1.39375 7.39403C4.10669 4.68002 7.85814 3 12 3C16.1419 3 19.8933 4.68002 22.6062 7.39403C22.9967 7.78463 22.9966 8.4178 22.606 8.80825C22.2154 9.19869 21.5822 9.19857 21.1918 8.80797C18.8387 6.45398 15.5901 5 12 5C8.40986 5 5.16131 6.45398 2.80824 8.80797C2.4178 9.19857 1.78463 9.19869 1.39403 8.80825C1.00343 8.4178 1.0033 7.78463 1.39375 7.39403Z" fill="black"/>
<path fill-rule="evenodd" clip-rule="evenodd" d="M22.7071 1.29289C23.0976 1.68342 23.0976 2.31658 22.7071 2.70711L4.70711 20.7071C4.31658 21.0976 3.68342 21.0976 3.29289 20.7071C2.90237 20.3166 2.90237 19.6834 3.29289 19.2929L21.2929 1.29289C21.6834 0.902369 22.3166 0.902369 22.7071 1.29289Z" fill="black"/>
</svg>
