<svg width="24" height="24" viewBox="0 0 24 24" fill="none" xmlns="http://www.w3.org/2000/svg">
<path opacity="0.5" fill-rule="evenodd" clip-rule="evenodd" d="M13.8 3C12.9274 3 12.2116 3.52745 11.9487 4.31623C11.774 4.84017 11.2077 5.12333 10.6838 4.94868C10.1598 4.77404 9.87667 4.20772 10.0513 3.68377C10.5884 2.07255 12.0726 1 13.8 1C16.0523 1 17.8 2.74772 17.8 5C17.8 7.25228 16.0523 9 13.8 9H1C0.447715 9 0 8.55228 0 8C0 7.44772 0.447715 7 1 7H13.8C14.9477 7 15.8 6.14772 15.8 5C15.8 3.85228 14.9477 3 13.8 3Z" fill="black"/>
<path opacity="0.5" fill-rule="evenodd" clip-rule="evenodd" d="M0 16C0 15.4477 0.447715 15 1 15H7.8C10.0523 15 11.8 16.7477 11.8 19C11.8 21.2523 10.0523 23 7.8 23C6.07262 23 4.58839 21.9275 4.05132 20.3162C3.87667 19.7923 4.15983 19.226 4.68377 19.0513C5.20772 18.8767 5.77404 19.1598 5.94868 19.6838C6.21161 20.4725 6.92738 21 7.8 21C8.94772 21 9.8 20.1477 9.8 19C9.8 17.8523 8.94772 17 7.8 17H1C0.447715 17 0 16.5523 0 16Z" fill="black"/>
<path fill-rule="evenodd" clip-rule="evenodd" d="M0 12C0 11.4477 0.447715 11 1 11H20C22.2523 11 24 12.7477 24 15C24 17.2523 22.2523 19 20 19C18.2726 19 16.7884 17.9275 16.2513 16.3162C16.0767 15.7923 16.3598 15.226 16.8838 15.0513C17.4077 14.8767 17.974 15.1598 18.1487 15.6838C18.4116 16.4725 19.1274 17 20 17C21.1477 17 22 16.1477 22 15C22 13.8523 21.1477 13 20 13H1C0.447715 13 0 12.5523 0 12Z" fill="black"/>
</svg>
