<svg width="24" height="24" viewBox="0 0 24 24" xmlns="http://www.w3.org/2000/svg"><path opacity=".7" fill-rule="evenodd" clip-rule="evenodd" d="M13.8 3c-.873 0-1.588.527-1.851 1.316a1 1 0 0 1-1.898-.632C10.588 2.073 12.073 1 13.8 1c2.252 0 4 1.748 4 4s-1.748 4-4 4H1a1 1 0 0 1 0-2h12.8c1.148 0 2-.852 2-2 0-1.148-.852-2-2-2ZM0 16a1 1 0 0 1 1-1h6.8c2.252 0 4 1.748 4 4s-1.748 4-4 4c-1.727 0-3.212-1.073-3.749-2.684a1 1 0 0 1 1.898-.632C6.212 20.472 6.927 21 7.8 21c1.148 0 2-.852 2-2 0-1.148-.852-2-2-2H1a1 1 0 0 1-1-1Z"/><path fill-rule="evenodd" clip-rule="evenodd" d="M0 12a1 1 0 0 1 1-1h19c2.252 0 4 1.748 4 4s-1.748 4-4 4c-1.727 0-3.212-1.073-3.749-2.684a1 1 0 0 1 1.898-.632C18.412 16.473 19.127 17 20 17c1.148 0 2-.852 2-2 0-1.148-.852-2-2-2H1a1 1 0 0 1-1-1Z"/></svg>