<svg width="24" height="24" viewBox="0 0 24 24" fill="none" xmlns="http://www.w3.org/2000/svg">
<g clip-path="url(#clip0_659_8829)">
<path fill-rule="evenodd" clip-rule="evenodd" d="M11.4855 0.142507C11.8022 -0.0475024 12.1978 -0.0475024 12.5145 0.142507L22.5145 6.14251C22.8157 6.32323 23 6.64874 23 7C23 7.35126 22.8157 7.67677 22.5145 7.85749L12.5145 13.8575C12.1978 14.0475 11.8022 14.0475 11.4855 13.8575L1.48553 7.85749C1.18433 7.67677 1.00003 7.35126 1.00003 7C1.00003 6.64874 1.18433 6.32323 1.48553 6.14251L11.4855 0.142507ZM3.94368 7L12 11.8338L20.0564 7L12 2.16619L3.94368 7ZM1.14254 11.4855C1.42668 11.0119 2.04094 10.8584 2.51452 11.1425L12 16.8338L21.4855 11.1425C21.9591 10.8584 22.5734 11.0119 22.8575 11.4855C23.1417 11.9591 22.9881 12.5733 22.5145 12.8575L12.5145 18.8575C12.1978 19.0475 11.8022 19.0475 11.4855 18.8575L1.48553 12.8575C1.01195 12.5733 0.858388 11.9591 1.14254 11.4855ZM2.51452 16.1425C2.04094 15.8584 1.42668 16.0119 1.14254 16.4855C0.858388 16.9591 1.01195 17.5733 1.48553 17.8575L11.4855 23.8575C11.8022 24.0475 12.1978 24.0475 12.5145 23.8575L22.5145 17.8575C22.9881 17.5733 23.1417 16.9591 22.8575 16.4855C22.5734 16.0119 21.9591 15.8584 21.4855 16.1425L12 21.8338L2.51452 16.1425Z" fill="black"/>
</g>
<defs>
<clipPath id="clip0_659_8829">
<rect width="24" height="24" fill="white"/>
</clipPath>
</defs>
</svg>
