<svg width="24" height="24" viewBox="0 0 24 24" fill="none" xmlns="http://www.w3.org/2000/svg">
<g clip-path="url(#clip0_659_8917)">
<path fill-rule="evenodd" clip-rule="evenodd" d="M22.5303 2.53033C22.8232 2.23744 22.8232 1.76256 22.5303 1.46967C22.2374 1.17678 21.7626 1.17678 21.4697 1.46967L19.4967 3.44266H2.40006C1.07458 3.44266 6.10352e-05 4.51718 6.10352e-05 5.84266V18.0141C6.10352e-05 19.3396 1.07458 20.4141 2.40006 20.4141H2.52526L1.46967 21.4697C1.17677 21.7626 1.17677 22.2374 1.46967 22.5303C1.76256 22.8232 2.23743 22.8232 2.53033 22.5303L22.5303 2.53033ZM4.02526 18.9141L8.53515 14.4042H6.30494L5.54324 16.728H3.59985L6.86019 7.69081H9.10968L10.732 12.2073L17.9967 4.94266H2.40006C1.903 4.94266 1.50006 5.3456 1.50006 5.84266V18.0141C1.50006 18.5111 1.903 18.9141 2.40006 18.9141H4.02526ZM7.94471 18.9141H21.6001C22.0971 18.9141 22.5001 18.5111 22.5001 18.0141V5.84266C22.5001 5.43107 22.2238 5.08401 21.8465 4.97683L22.9574 3.86311C23.5871 4.29571 24.0001 5.02096 24.0001 5.84266V18.0141C24.0001 19.3396 22.9255 20.4141 21.6001 20.4141H6.44853L7.94471 18.9141ZM10.2663 16.5863L11.7651 15.0836L12.3558 16.728H10.3127L10.2663 16.5863ZM13.4307 13.4138L17.1182 9.71687C17.7557 9.88853 18.2272 10.2601 18.4351 10.7694H18.5205V8.31101L19.6146 7.21412H20.3999V16.728H18.5561V15.6025H18.4636C18.2287 16.3176 17.346 16.8141 16.2497 16.8141C14.5412 16.8141 13.4307 15.6621 13.4307 13.7355V13.4138ZM18.5205 12.7159C18.5205 11.6632 17.8371 11.0012 16.8975 11.0012C15.9507 11.0012 15.3527 11.6698 15.3527 12.8682V13.5501C15.3527 14.7551 15.9578 15.4304 16.926 15.4304C17.8799 15.4304 18.5205 14.7683 18.5205 13.6229V12.7159ZM9.16663 13.0734L7.97782 9.41881H7.8924L6.70358 13.0734H9.16663Z" fill="black"/>
</g>
<defs>
<clipPath id="clip0_659_8917">
<rect width="24" height="24" fill="white"/>
</clipPath>
</defs>
</svg>
