<svg width="12" height="12" viewBox="0 0 12 12" fill="none" xmlns="http://www.w3.org/2000/svg">
<g clip-path="url(#clip0_1112_719)">
<path d="M6 5.25C7.44975 5.25 8.625 4.07475 8.625 2.625C8.625 1.17525 7.44975 0 6 0C4.55025 0 3.375 1.17525 3.375 2.625C3.375 4.07475 4.55025 5.25 6 5.25Z" fill="black"/>
<path d="M6 6.375C4.6081 6.37659 3.27367 6.93022 2.28944 7.91444C1.30522 8.89867 0.751588 10.2331 0.75 11.625C0.75 11.7245 0.789509 11.8198 0.859835 11.8902C0.930161 11.9605 1.02554 12 1.125 12H10.875C10.9745 12 11.0698 11.9605 11.1402 11.8902C11.2105 11.8198 11.25 11.7245 11.25 11.625C11.2484 10.2331 10.6948 8.89867 9.71056 7.91444C8.72633 6.93022 7.3919 6.37659 6 6.375Z" fill="black"/>
</g>
<defs>
<clipPath id="clip0_1112_719">
<rect width="12" height="12" fill="white"/>
</clipPath>
</defs>
</svg>
