<svg width="12" height="12" viewBox="0 0 12 12" fill="none" xmlns="http://www.w3.org/2000/svg">
<g clip-path="url(#clip0_1207_669)">
<path d="M7.50001 10.5H4.5C4.5 10.8978 4.65804 11.2793 4.93934 11.5606C5.22065 11.842 5.60218 12 6.00001 12C6.39783 12 6.77937 11.842 7.06067 11.5606C7.34198 11.2793 7.50001 10.8978 7.50001 10.5Z" fill="black"/>
<path d="M0.750003 9.74998H2.25001L9.52054 2.47945C9.26636 1.75014 8.7901 1.11878 8.15866 0.674058C7.52722 0.229333 6.77233 -0.00641146 6.00003 -6.04403e-05C5.5062 -0.00497249 5.01636 0.0886703 4.55917 0.275387C4.10197 0.462103 3.68662 0.738142 3.33742 1.08735C2.98821 1.43655 2.71217 1.8519 2.52546 2.3091C2.33874 2.76629 2.2451 3.25613 2.25001 3.74996V5.99997C2.22069 6.43079 2.10615 6.8515 1.91303 7.23773C1.71992 7.62396 1.45207 7.96802 1.125 8.24998H0.750003C0.55109 8.24998 0.360324 8.32899 0.219671 8.46965C0.079018 8.6103 0 8.80107 0 8.99998C0 9.19889 0.079018 9.38966 0.219671 9.53031C0.360324 9.67096 0.55109 9.74998 0.750003 9.74998Z" fill="black"/>
<path d="M11.25 8.24998H10.875C10.548 7.96803 10.2801 7.62397 10.087 7.23774C9.8939 6.85151 9.77936 6.4308 9.75004 5.99998V5.43147L5.43152 9.74999H11.25C11.449 9.74999 11.6397 9.67097 11.7804 9.53032C11.921 9.38967 12 9.1989 12 8.99999C12 8.80107 11.921 8.61031 11.7804 8.46966C11.6397 8.329 11.449 8.24998 11.25 8.24998Z" fill="black"/>
<path d="M0.750088 12C0.601774 12 0.4568 11.956 0.333492 11.8735C0.210184 11.7911 0.114079 11.674 0.0573261 11.537C0.000573322 11.4 -0.014279 11.2492 0.0146468 11.1037C0.0435726 10.9582 0.114978 10.8246 0.219835 10.7197L10.7199 0.21969C10.8613 0.0830709 11.0508 0.0074748 11.2474 0.00918363C11.4441 0.0108924 11.6322 0.0897695 11.7712 0.228826C11.9103 0.367883 11.9892 0.555993 11.9909 0.752641C11.9926 0.94929 11.917 1.13874 11.7804 1.28019L1.28034 11.7802C1.13972 11.9209 0.948985 11.9999 0.750088 12Z" fill="black"/>
</g>
<defs>
<clipPath id="clip0_1207_669">
<rect width="12" height="12" fill="white"/>
</clipPath>
</defs>
</svg>
