<svg xmlns="http://www.w3.org/2000/svg" width="12" height="12" viewBox="0 0 12 12"><g clip-path="url(#a)"><path d="M7.5 10.5h-3a1.5 1.5 0 0 0 3 0ZM.75 9.75h1.5l7.27-7.27A3.696 3.696 0 0 0 6 0a3.713 3.713 0 0 0-3.75 3.75V6a3.263 3.263 0 0 1-1.125 2.25H.75a.75.75 0 1 0 0 1.5Zm10.5-1.5h-.375A3.264 3.264 0 0 1 9.75 6v-.569L5.432 9.75h5.818a.75.75 0 1 0 0-1.5Z"/><path d="M.75 12a.75.75 0 0 1-.53-1.28L10.72.22a.75.75 0 0 1 1.06 1.06l-10.5 10.5a.75.75 0 0 1-.53.22Z"/></g><defs><clipPath id="a"><path fill="#fff" d="M0 0h12v12H0z"/></clipPath></defs></svg>