<svg width="12" height="12" viewBox="0 0 12 12" fill="none" xmlns="http://www.w3.org/2000/svg">
<g clip-path="url(#clip0_933_679)">
<path d="M6.00005 0C5.10854 0.000736692 4.2284 0.200131 3.42362 0.583686C2.61883 0.967241 1.90964 1.52532 1.34759 2.21734C0.785549 2.90936 0.384778 3.71793 0.174422 4.58426C-0.0359345 5.4506 -0.05059 6.35292 0.131521 7.22563C0.313632 8.09834 0.687932 8.91951 1.22721 9.62941C1.76648 10.3393 2.45718 10.9201 3.24908 11.3296C4.04098 11.7391 4.91418 11.967 5.8052 11.9967C6.69621 12.0264 7.58264 11.8571 8.40005 11.5012L9.08705 11.2012L8.48705 9.8265L7.80005 10.1265C6.912 10.5141 5.92258 10.6047 4.97892 10.3848C4.03526 10.1649 3.18777 9.64635 2.56249 8.90617C1.9372 8.166 1.56752 7.24378 1.50843 6.27665C1.44933 5.30952 1.70397 4.34914 2.23448 3.53834C2.76499 2.72754 3.54303 2.10963 4.4529 1.77651C5.36277 1.44338 6.35586 1.41282 7.28449 1.68939C8.21311 1.96595 9.02767 2.53486 9.60702 3.31151C10.1864 4.08816 10.4996 5.03106 10.5 6V6.75C10.5 6.94891 10.421 7.13968 10.2804 7.28033C10.1397 7.42098 9.94896 7.5 9.75005 7.5C9.55113 7.5 9.36037 7.42098 9.21972 7.28033C9.07906 7.13968 9.00005 6.94891 9.00005 6.75V6C9.00573 5.30386 8.77111 4.62707 8.33578 4.08382C7.90045 3.54056 7.29105 3.1641 6.6104 3.01795C5.92975 2.87181 5.21952 2.96492 4.59955 3.28157C3.97958 3.59823 3.48781 4.11905 3.20722 4.75616C2.92663 5.39327 2.87439 6.10767 3.05933 6.77882C3.24426 7.44997 3.65504 8.03678 4.22236 8.44025C4.78968 8.84372 5.47881 9.03915 6.17348 8.99356C6.86814 8.94797 7.52582 8.66415 8.03555 8.19C8.33028 8.54533 8.7276 8.80092 9.17315 8.92182C9.6187 9.04272 10.0907 9.02301 10.5246 8.8654C10.9586 8.70779 11.3332 8.41997 11.5973 8.04131C11.8614 7.66266 12.0021 7.21165 12 6.75V6C11.9983 4.40925 11.3655 2.88416 10.2407 1.75933C9.11588 0.634501 7.5908 0.00178658 6.00005 0V0ZM6.00005 7.5C5.70337 7.5 5.41336 7.41203 5.16669 7.2472C4.92002 7.08238 4.72776 6.84811 4.61423 6.57402C4.5007 6.29994 4.47099 5.99834 4.52887 5.70736C4.58675 5.41639 4.72961 5.14912 4.93939 4.93934C5.14916 4.72956 5.41644 4.5867 5.70741 4.52882C5.99838 4.47094 6.29998 4.50065 6.57407 4.61418C6.84816 4.72771 7.08243 4.91997 7.24725 5.16664C7.41207 5.41332 7.50005 5.70333 7.50005 6C7.50005 6.39782 7.34201 6.77935 7.06071 7.06066C6.7794 7.34196 6.39787 7.5 6.00005 7.5Z" fill="black"/>
</g>
<defs>
<clipPath id="clip0_933_679">
<rect width="12" height="12" fill="white"/>
</clipPath>
</defs>
</svg>
