<svg width="12" height="12" viewBox="0 0 12 12" fill="none" xmlns="http://www.w3.org/2000/svg">
<path d="M5.91096 0.000738065C3.17043 0.0461356 0.852087 2.31748 0.753485 5.05661C0.675192 7.23165 1.92356 9.11892 3.75 9.98798V11.25C3.75 11.6642 4.08579 12 4.5 12H7.5C7.91421 12 8.25 11.6642 8.25 11.25V9.98798C10.0221 9.14478 11.25 7.34307 11.25 5.24999C11.25 2.32085 8.8512 -0.0479744 5.91096 0.000738065ZM8.19205 3.41312C8.17914 3.50889 7.86396 5.77005 6.81111 6.82318C6.29901 7.33547 5.71888 7.49999 5.21218 7.49999C4.76439 7.49999 4.37374 7.37159 4.13795 7.24149L4.06311 7.20015L6.16515 5.1328L3.81015 5.57532C3.89131 5.20083 4.07277 4.81068 4.43568 4.44776C5.39982 3.48348 7.73708 3.08486 7.83632 3.06834L8.24771 2.99976L8.19205 3.41312Z" fill="black"/>
</svg>
