<svg width="12" height="12" viewBox="0 0 12 12" fill="none" xmlns="http://www.w3.org/2000/svg">
<g clip-path="url(#clip0_659_4656)">
<path d="M11 0H1C0.734784 0 0.48043 0.105357 0.292893 0.292893C0.105357 0.48043 0 0.734784 0 1L0 8C0 8.26522 0.105357 8.51957 0.292893 8.70711C0.48043 8.89464 0.734784 9 1 9H3.266L5.616 11.82C5.66293 11.8763 5.72164 11.9215 5.788 11.9526C5.85436 11.9837 5.92673 11.9998 6 11.9998C6.07327 11.9998 6.14564 11.9837 6.212 11.9526C6.27836 11.9215 6.33707 11.8763 6.384 11.82L8.734 9H11C11.2652 9 11.5196 8.89464 11.7071 8.70711C11.8946 8.51957 12 8.26522 12 8V1C12 0.734784 11.8946 0.48043 11.7071 0.292893C11.5196 0.105357 11.2652 0 11 0V0Z" fill="black"/>
</g>
<defs>
<clipPath id="clip0_659_4656">
<rect width="12" height="12" fill="white"/>
</clipPath>
</defs>
</svg>
