<svg width="12" height="12" viewBox="0 0 12 12" fill="none" xmlns="http://www.w3.org/2000/svg">
<path d="M10.293 1.29301L4.00004 7.58601L1.70704 5.29301C1.51844 5.11085 1.26584 5.01006 1.00364 5.01234C0.741443 5.01461 0.49063 5.11978 0.305222 5.30519C0.119814 5.4906 0.0146453 5.74141 0.0123669 6.00361C0.0100885 6.26581 0.110883 6.51841 0.293041 6.70701L3.29304 9.70701C3.48057 9.89448 3.73488 9.9998 4.00004 9.9998C4.26521 9.9998 4.51951 9.89448 4.70704 9.70701L11.707 2.70701C11.8892 2.51841 11.99 2.26581 11.9877 2.00361C11.9854 1.74141 11.8803 1.4906 11.6949 1.30519C11.5095 1.11978 11.2586 1.01461 10.9964 1.01234C10.7342 1.01006 10.4816 1.11085 10.293 1.29301Z" fill="black"/>
</svg>
