<svg width="12" height="12" viewBox="0 0 12 12" fill="none" xmlns="http://www.w3.org/2000/svg">
<path d="M11.025 8.25L10.05 7.125C10.35 6.825 10.5 6.45 10.5 6C10.5 5.25 10.05 3.975 7.575 4.95C7.5 4.2 7.275 1.5 4.5 1.5C2.85 1.5 1.5 2.85 1.5 4.5C1.5 5.475 1.95 6.3 2.7 6.9L1.8 8.1C0.675 7.275 0 5.925 0 4.5C0 2.025 2.025 0 4.5 0C6.45 0 8.1 1.2 8.7 3C10.5 2.85 12 4.275 12 6C12 6.825 11.625 7.65 11.025 8.25Z" fill="black"/>
<path d="M6.75 9.75H5.25V12H6.75V9.75Z" fill="black"/>
<path d="M4.5 8.25H3V10.5H4.5V8.25Z" fill="black"/>
<path d="M9 8.25H7.5V10.5H9V8.25Z" fill="black"/>
</svg>
