<svg width="12" height="12" viewBox="0 0 12 12" fill="none" xmlns="http://www.w3.org/2000/svg">
<path d="M6 4.5C8.175 4.5 10.5 3.825 10.5 2.25C10.5 0.675 8.175 0 6 0C3.825 0 1.5 0.675 1.5 2.25C1.5 3.825 3.825 4.5 6 4.5Z" fill="black"/>
<path d="M1.5 4.875V6C1.5 7.575 3.825 8.25 6 8.25C8.175 8.25 10.5 7.575 10.5 6V4.875C9.45 5.55 7.875 6 6 6C4.125 6 2.55 5.55 1.5 4.875Z" fill="black"/>
<path d="M1.5 8.625V9.75C1.5 11.325 3.825 12 6 12C8.175 12 10.5 11.325 10.5 9.75V8.625C9.45 9.375 7.875 9.75 6 9.75C4.125 9.75 2.55 9.3 1.5 8.625Z" fill="black"/>
</svg>
