<svg xmlns="http://www.w3.org/2000/svg" width="12" height="12" viewBox="0 0 12 12"><g clip-path="url(#a)"><path d="M9 4.5a.75.75 0 0 0 .75-.75 3.75 3.75 0 1 0-7.5 0 .75.75 0 1 0 1.5 0 2.25 2.25 0 0 1 4.5 0A.75.75 0 0 0 9 4.5Z"/><path d="M6 4.5A.75.75 0 1 0 6 3a.75.75 0 0 0 0 1.5Zm.75 4.71V6.75a.75.75 0 1 0-1.5 0v2.46a1.5 1.5 0 1 0 1.5 0Zm4.501 0V7.5a.75.75 0 0 0-.334-.624l-1.5-1a.75.75 0 1 0-.833 1.25l1.167.776V9.21a1.5 1.5 0 1 0 1.5 0ZM2.583 5.877l-1.5 1a.75.75 0 0 0-.334.624V9.21a1.5 1.5 0 1 0 1.5 0V7.903l1.167-.777a.75.75 0 0 0-.833-1.248Z"/></g><defs><clipPath id="a"><path fill="#fff" d="M0 0h12v12H0z"/></clipPath></defs></svg>