<svg width="12" height="12" viewBox="0 0 12 12" fill="none" xmlns="http://www.w3.org/2000/svg">
<g clip-path="url(#clip0_831_808)">
<path d="M9.00054 4.50085C9.19949 4.50085 9.39029 4.42182 9.53097 4.28114C9.67165 4.14046 9.75068 3.94966 9.75068 3.75071C9.75068 2.75596 9.35552 1.80195 8.65212 1.09856C7.94873 0.395163 6.99472 0 5.99997 0C5.00522 0 4.05122 0.395163 3.34782 1.09856C2.64443 1.80195 2.24927 2.75596 2.24927 3.75071C2.24927 3.94966 2.3283 4.14046 2.46898 4.28114C2.60966 4.42182 2.80046 4.50085 2.99941 4.50085C3.19836 4.50085 3.38916 4.42182 3.52984 4.28114C3.67052 4.14046 3.74955 3.94966 3.74955 3.75071C3.74955 3.15386 3.98665 2.58145 4.40868 2.15942C4.83072 1.73738 5.40312 1.50028 5.99997 1.50028C6.59682 1.50028 7.16923 1.73738 7.59126 2.15942C8.0133 2.58145 8.2504 3.15386 8.2504 3.75071C8.2504 3.94966 8.32943 4.14046 8.47011 4.28114C8.61079 4.42182 8.80159 4.50085 9.00054 4.50085Z" fill="black"/>
<path d="M6.00002 4.50086C6.41431 4.50086 6.75016 4.16501 6.75016 3.75072C6.75016 3.33643 6.41431 3.00058 6.00002 3.00058C5.58573 3.00058 5.24988 3.33643 5.24988 3.75072C5.24988 4.16501 5.58573 4.50086 6.00002 4.50086Z" fill="black"/>
<path d="M6.75012 9.20948V6.75127C6.75012 6.55232 6.67109 6.36152 6.53041 6.22084C6.38973 6.08016 6.19893 6.00113 5.99998 6.00113C5.80103 6.00113 5.61023 6.08016 5.46955 6.22084C5.32887 6.36152 5.24984 6.55232 5.24984 6.75127V9.20948C4.96382 9.37462 4.74028 9.62951 4.6139 9.93463C4.48751 10.2398 4.46534 10.5781 4.55082 10.8971C4.63629 11.2161 4.82465 11.498 5.08666 11.699C5.34868 11.9001 5.66971 12.009 5.99998 12.009C6.33024 12.009 6.65128 11.9001 6.91329 11.699C7.17531 11.498 7.36366 11.2161 7.44914 10.8971C7.53462 10.5781 7.51245 10.2398 7.38606 9.93463C7.25967 9.62951 7.03614 9.37462 6.75012 9.20948Z" fill="black"/>
<path d="M11.251 9.2095V7.50143C11.251 7.37796 11.2205 7.25639 11.1623 7.14752C11.1041 7.03865 11.0199 6.94583 10.9172 6.87731L9.41688 5.87737C9.25125 5.76695 9.04855 5.72685 8.85336 5.76589C8.65816 5.80493 8.48647 5.91991 8.37606 6.08553C8.26564 6.25116 8.22554 6.45386 8.26458 6.64906C8.30362 6.84425 8.4186 7.01594 8.58422 7.12635L9.75069 7.90275V9.2095C9.46467 9.37463 9.24114 9.62952 9.11475 9.93465C8.98837 10.2398 8.96619 10.5781 9.05167 10.8971C9.13715 11.2161 9.3255 11.498 9.58752 11.699C9.84953 11.9001 10.1706 12.0091 10.5008 12.0091C10.8311 12.0091 11.1521 11.9001 11.4141 11.699C11.6762 11.498 11.8645 11.2161 11.95 10.8971C12.0355 10.5781 12.0133 10.2398 11.8869 9.93465C11.7605 9.62952 11.537 9.37463 11.251 9.2095Z" fill="black"/>
<path d="M2.58308 5.87735L1.0828 6.87729C0.980089 6.94581 0.895884 7.03863 0.837653 7.1475C0.779421 7.25638 0.748964 7.37794 0.748982 7.50141V9.20948C0.462966 9.37461 0.239429 9.6295 0.113043 9.93463C-0.0133433 10.2398 -0.0355167 10.5781 0.0499618 10.8971C0.13544 11.2161 0.323794 11.498 0.585809 11.699C0.847825 11.9001 1.16886 12.009 1.49912 12.009C1.82939 12.009 2.15042 11.9001 2.41244 11.699C2.67445 11.498 2.86281 11.2161 2.94829 10.8971C3.03376 10.5781 3.01159 10.2398 2.8852 9.93463C2.75882 9.6295 2.53528 9.37461 2.24926 9.20948V7.90273L3.41573 7.12634C3.49769 7.07166 3.56808 7.00138 3.62288 6.91951C3.67768 6.83763 3.71582 6.74576 3.73511 6.64915C3.75441 6.55253 3.75448 6.45306 3.73534 6.35642C3.71619 6.25978 3.6782 6.16785 3.62352 6.08589C3.56885 6.00393 3.49857 5.93354 3.41669 5.87874C3.33482 5.82394 3.24295 5.78581 3.14634 5.76651C3.04972 5.74722 2.95025 5.74714 2.85361 5.76629C2.75696 5.78543 2.66504 5.82343 2.58308 5.8781V5.87735Z" fill="black"/>
</g>
<defs>
<clipPath id="clip0_831_808">
<rect width="12" height="12" fill="white"/>
</clipPath>
</defs>
</svg>
