<svg width="12" height="12" viewBox="0 0 12 12" xmlns="http://www.w3.org/2000/svg"><g clip-path="url(#a)"><path d="M.75 9c.06 0 .121-.008.181-.023l3-.75a.751.751 0 0 0 .35-.197l4.5-4.5a.75.75 0 0 0 0-1.06L6.53.22a.75.75 0 0 0-1.061 0l-4.5 4.5a.752.752 0 0 0-.198.348l-.75 3A.75.75 0 0 0 .75 9Zm1.427-3.367L6 1.81 7.19 3 3.365 6.823l-1.586.396.397-1.586ZM11.25 10.5H.75a.75.75 0 1 0 0 1.5h10.5a.75.75 0 1 0 0-1.5Z"/></g><defs><clipPath id="a"><path fill="#fff" d="M0 0h12v12H0z"/></clipPath></defs></svg>