<svg width="12" height="12" viewBox="0 0 12 12" xmlns="http://www.w3.org/2000/svg"><g clip-path="url(#a)"><path fill-rule="evenodd" clip-rule="evenodd" d="M6 .15c-3.3 0-6 2.7-6 6 0 2.625 1.725 4.875 4.125 5.7.3.075.375-.15.375-.3V10.5c-1.65.375-2.025-.75-2.025-.75-.3-.675-.675-.9-.675-.9-.525-.375.075-.375.075-.375.6.075.9.6.9.6C3.3 10.05 4.2 9.75 4.5 9.6c.075-.375.225-.675.375-.825-1.35-.15-2.7-.675-2.7-3 0-.675.225-1.2.6-1.575-.075-.15-.3-.75.075-1.575 0 0 .525-.15 1.65.6C4.95 3.075 5.475 3 6 3s1.05.075 1.5.225c1.125-.75 1.65-.6 1.65-.6.3.825.15 1.425.075 1.575.375.45.6.975.6 1.575C9.825 8.1 8.4 8.55 7.05 8.7c.225.3.45.675.45 1.2v1.65c0 .15.075.375.45.3 2.4-.825 4.125-3.075 4.125-5.7C12 2.85 9.3.15 6 .15Z"/></g><defs><clipPath id="a"><path fill="#fff" d="M0 0h12v12H0z"/></clipPath></defs></svg>