<svg width="12" height="12" viewBox="0 0 12 12" fill="none" xmlns="http://www.w3.org/2000/svg">
<g clip-path="url(#clip0_1720_848)">
<path fill-rule="evenodd" clip-rule="evenodd" d="M6 0.149994C2.7 0.149994 0 2.84999 0 6.14999C0 8.77499 1.725 11.025 4.125 11.85C4.425 11.925 4.5 11.7 4.5 11.55C4.5 11.4 4.5 11.025 4.5 10.5C2.85 10.875 2.475 9.74999 2.475 9.74999C2.175 9.07499 1.8 8.84999 1.8 8.84999C1.275 8.47499 1.875 8.47499 1.875 8.47499C2.475 8.54999 2.775 9.07499 2.775 9.07499C3.3 10.05 4.2 9.74999 4.5 9.59999C4.575 9.22499 4.725 8.92499 4.875 8.77499C3.525 8.62499 2.175 8.09999 2.175 5.77499C2.175 5.09999 2.4 4.57499 2.775 4.19999C2.7 4.04999 2.475 3.44999 2.85 2.62499C2.85 2.62499 3.375 2.47499 4.5 3.22499C4.95 3.07499 5.475 2.99999 6 2.99999C6.525 2.99999 7.05 3.07499 7.5 3.22499C8.625 2.47499 9.15 2.62499 9.15 2.62499C9.45 3.44999 9.3 4.04999 9.225 4.19999C9.6 4.64999 9.825 5.17499 9.825 5.77499C9.825 8.09999 8.4 8.54999 7.05 8.69999C7.275 8.99999 7.5 9.37499 7.5 9.89999C7.5 10.725 7.5 11.325 7.5 11.55C7.5 11.7 7.575 11.925 7.95 11.85C10.35 11.025 12.075 8.77499 12.075 6.14999C12 2.84999 9.3 0.149994 6 0.149994Z" fill="black"/>
</g>
<defs>
<clipPath id="clip0_1720_848">
<rect width="12" height="12" fill="white"/>
</clipPath>
</defs>
</svg>
