<svg width="16" height="16" viewBox="0 0 16 16" fill="none" xmlns="http://www.w3.org/2000/svg">
<g clip-path="url(#clip0_659_4594)">
<path fill-rule="evenodd" clip-rule="evenodd" d="M8.49998 0.0999939L15.5 4.09999C16.2 4.49999 16.2 5.49999 15.5 5.79999L8.49998 9.79999C8.19998 9.99999 7.79998 9.99999 7.49998 9.79999L0.499976 5.79999C-0.200024 5.49999 -0.200024 4.49999 0.499976 4.09999L7.49998 0.0999939C7.79998 -6.10389e-06 8.19998 -6.10389e-06 8.49998 0.0999939ZM7.99997 12C8.49997 12 8.99997 11.9 9.49997 11.6L14 9V13C14 15.1 10.9 16 7.99997 16C5.09997 16 1.99997 15.1 1.99997 13V9L6.49997 11.6C6.99997 11.9 7.49997 12 7.99997 12Z" fill="black"/>
</g>
<defs>
<clipPath id="clip0_659_4594">
<rect width="16" height="16" fill="white"/>
</clipPath>
</defs>
</svg>
