<svg width="12" height="12" viewBox="0 0 12 12" fill="none" xmlns="http://www.w3.org/2000/svg">
<g clip-path="url(#clip0_710_654)">
<path d="M10.95 4.20001L4.80005 10.35C5.17505 10.425 5.62505 10.5 6.00005 10.5C8.70005 10.5 10.8 8.17501 11.7 6.82501C12.075 6.30001 12.075 5.62501 11.7 5.10001C11.55 4.87501 11.25 4.57501 10.95 4.20001Z" fill="black"/>
<path d="M10.725 0.225L8.7 2.25C7.875 1.8 6.975 1.5 6 1.5C3.3 1.5 1.2 3.825 0.3 5.175C-0.075 5.7 -0.075 6.375 0.3 6.825C0.675 7.425 1.35 8.175 2.1 8.85L0.225 10.725C-0.075 11.025 -0.075 11.475 0.225 11.775C0.375 11.925 0.525 12 0.75 12C0.975 12 1.125 11.925 1.275 11.775L11.775 1.275C12.075 0.975 12.075 0.525 11.775 0.225C11.475 -0.075 11.025 -0.075 10.725 0.225ZM3.975 6.975C3.825 6.675 3.75 6.375 3.75 6C3.75 4.725 4.725 3.75 6 3.75C6.375 3.75 6.675 3.825 6.975 3.975L3.975 6.975Z" fill="black"/>
</g>
<defs>
<clipPath id="clip0_710_654">
<rect width="12" height="12" fill="white"/>
</clipPath>
</defs>
</svg>
