<svg width="16" height="16" viewBox="0 0 16 16" fill="none" xmlns="http://www.w3.org/2000/svg">
<g clip-path="url(#clip0_659_4589)">
<path d="M11 16H13C13.6 16 14 15.6 14 15V8H15C15.3 8 15.6 7.9 15.8 7.7C16.2001 7.3 16.1 6.7 15.7 6.3L8.70005 0.299997C8.30005 -3.05474e-06 7.80005 -3.05474e-06 7.40005 0.299997L0.40005 6.3C4.99189e-05 6.7 -0.0999501 7.3 0.30005 7.7C0.40005 7.9 0.70005 8 1.00005 8C1.20005 8 2.00005 8 2.00005 8V15C2.00005 15.6 2.40005 16 3.00005 16H5.00005C5.60005 16 6.00005 15.6 6.00005 15V12H10V15C10 15.6 10.4 16 11 16Z" fill="black"/>
</g>
<defs>
<clipPath id="clip0_659_4589">
<rect width="16" height="16" fill="white"/>
</clipPath>
</defs>
</svg>
