<svg width="12" height="12" viewBox="0 0 12 12" fill="none" xmlns="http://www.w3.org/2000/svg">
<path d="M3.375 6.75C5.23896 6.75 6.75 5.23896 6.75 3.375C6.75 1.51104 5.23896 0 3.375 0C1.51104 0 0 1.51104 0 3.375C0 5.23896 1.51104 6.75 3.375 6.75Z" fill="black"/>
<path d="M9 12C10.2426 12 11.25 10.9926 11.25 9.75C11.25 8.50736 10.2426 7.5 9 7.5C7.75736 7.5 6.75 8.50736 6.75 9.75C6.75 10.9926 7.75736 12 9 12Z" fill="black"/>
<path d="M10.875 5.25C11.4963 5.25 12 4.74632 12 4.125C12 3.50368 11.4963 3 10.875 3C10.2537 3 9.75 3.50368 9.75 4.125C9.75 4.74632 10.2537 5.25 10.875 5.25Z" fill="black"/>
</svg>
