<svg width="12" height="12" viewBox="0 0 12 12" xmlns="http://www.w3.org/2000/svg"><path d="M8.25 2.25H7.5c-.45 0-.75.3-.75.75s.3.75.75.75h.75c1.275 0 2.25.975 2.25 2.25s-.975 2.25-2.25 2.25H7.5c-.45 0-.75.3-.75.75s.3.75.75.75h.75C10.35 9.75 12 8.1 12 6s-1.65-3.75-3.75-3.75Zm-3.75 6h-.75C2.475 8.25 1.5 7.275 1.5 6s.975-2.25 2.25-2.25h.75c.45 0 .75-.3.75-.75s-.3-.75-.75-.75h-.75C1.65 2.25 0 3.9 0 6s1.65 3.75 3.75 3.75h.75c.45 0 .75-.3.75-.75s-.3-.75-.75-.75Z"/><path d="M3 6c0 .45.3.75.75.75h4.5c.45 0 .75-.3.75-.75s-.3-.75-.75-.75h-4.5c-.45 0-.75.3-.75.75Z"/></svg>