<svg width="12" height="12" viewBox="0 0 12 12" fill="none" xmlns="http://www.w3.org/2000/svg">
<g clip-path="url(#clip0_1457_845)">
<path d="M0.749962 9C0.60165 8.99997 0.456676 8.95596 0.333368 8.87355C0.210061 8.79114 0.113956 8.67402 0.0572038 8.53699C0.000451248 8.39997 -0.014401 8.24919 0.0145247 8.10373C0.0434504 7.95826 0.114855 7.82464 0.219712 7.71975L3.59471 4.34475C3.73536 4.20415 3.92609 4.12516 4.12496 4.12516C4.32384 4.12516 4.51457 4.20415 4.65521 4.34475L7.12496 6.8145L10.7197 3.21975C10.7889 3.14812 10.8717 3.09098 10.9632 3.05167C11.0547 3.01237 11.1531 2.99168 11.2527 2.99081C11.3522 2.98995 11.451 3.00892 11.5432 3.04663C11.6354 3.08434 11.7191 3.14003 11.7895 3.21045C11.8599 3.28087 11.9156 3.36461 11.9533 3.45678C11.991 3.54896 12.01 3.64772 12.0091 3.7473C12.0083 3.84689 11.9876 3.9453 11.9483 4.0368C11.909 4.12831 11.8518 4.21106 11.7802 4.28025L7.65521 8.40525C7.51457 8.54585 7.32384 8.62484 7.12496 8.62484C6.92609 8.62484 6.73536 8.54585 6.59471 8.40525L4.12496 5.9355L1.28021 8.78025C1.13959 8.92091 0.948858 8.99996 0.749962 9Z" fill="black"/>
</g>
<defs>
<clipPath id="clip0_1457_845">
<rect width="12" height="12" fill="white"/>
</clipPath>
</defs>
</svg>
