<svg width="12" height="12" viewBox="0 0 12 12" xmlns="http://www.w3.org/2000/svg"><g clip-path="url(#a)"><path d="M11.404 0H.522A.511.511 0 0 0 0 .525V11.55c0 .225.224.45.522.45h10.956a.511.511 0 0 0 .522-.525V.525c-.075-.3-.298-.525-.596-.525Zm-7.9 10.2H1.788V4.5h1.789v5.7h-.075Zm-.82-6.45c-.597 0-1.044-.525-1.044-1.05 0-.6.447-1.05 1.043-1.05.597 0 1.044.45 1.044 1.05-.075.525-.522 1.05-1.044 1.05Zm7.453 6.45h-1.79V7.425c0-.675 0-1.5-.894-1.5s-1.043.75-1.043 1.5v2.85H4.62V4.5h1.714v.75c.224-.45.82-.9 1.64-.9 1.789 0 2.087 1.2 2.087 2.7v3.15h.075Z"/></g><defs><clipPath id="a"><path fill="#fff" d="M0 0h12v12H0z"/></clipPath></defs></svg>