<svg width="12" height="12" viewBox="0 0 12 12" fill="none" xmlns="http://www.w3.org/2000/svg">
<g clip-path="url(#clip0_669_696)">
<path fill-rule="evenodd" clip-rule="evenodd" d="M8.25 0.75C8.25 1.16421 7.91421 1.5 7.5 1.5C7.08579 1.5 6.75 1.16421 6.75 0.75C6.75 0.335786 7.08579 1.23892e-06 7.5 1.31134e-06C7.91421 1.38376e-06 8.25 0.335786 8.25 0.75ZM-1.16709e-06 6.675C-7.34351e-07 4.2 1.65 2.1 3.9 1.5C2.85 5.475 6.525 9.15 10.5 8.1C9.825 10.35 7.8 12 5.325 12C2.4 12 -1.67852e-06 9.6 -1.16709e-06 6.675ZM11.25 6C11.6642 6 12 5.66421 12 5.25C12 4.83579 11.6642 4.5 11.25 4.5C10.8358 4.5 10.5 4.83579 10.5 5.25C10.5 5.66421 10.8358 6 11.25 6ZM8.25 4.5C8.25 4.91421 7.91421 5.25 7.5 5.25C7.08579 5.25 6.75 4.91421 6.75 4.5C6.75 4.08579 7.08579 3.75 7.5 3.75C7.91421 3.75 8.25 4.08579 8.25 4.5Z" fill="black"/>
</g>
<defs>
<clipPath id="clip0_669_696">
<rect width="12" height="12" fill="white"/>
</clipPath>
</defs>
</svg>
