<svg xmlns="http://www.w3.org/2000/svg" width="12" height="12" viewBox="0 0 12 12"><g clip-path="url(#a)"><path d="m11.025 8.25-.975-1.125c.3-.3.45-.675.45-1.125 0-.75-.45-2.025-2.925-1.05C7.5 4.2 7.275 1.5 4.5 1.5c-1.65 0-3 1.35-3 3 0 .975.45 1.8 1.2 2.4l-.9 1.2C.675 7.275 0 5.925 0 4.5 0 2.025 2.025 0 4.5 0c1.95 0 3.6 1.2 4.2 3 1.8-.15 3.3 1.275 3.3 3 0 .825-.375 1.65-.975 2.25ZM6.75 9.75h-1.5V12h1.5V9.75ZM4.5 8.25H3v2.25h1.5V8.25Zm4.5 0H7.5v2.25H9V8.25Z"/></g><defs><clipPath id="a"><path fill="#fff" d="M0 0h12v12H0z"/></clipPath></defs></svg>