<svg xmlns="http://www.w3.org/2000/svg" width="12" height="12" viewBox="0 0 12 12"><g clip-path="url(#a)"><path d="M3.375 3.375C4.8 1.95 7.2 1.95 8.625 3.375c.525.525.9 1.275 1.05 2.025l1.5-.225a4.936 4.936 0 0 0-1.425-2.85C7.725.3 4.425.3 2.325 2.325L.675.675l-.525 4.8 4.8-.525-1.575-1.575Zm8.475 3.15-4.8.525 1.575 1.575c-1.425 1.425-3.825 1.425-5.25 0-.525-.525-.9-1.275-1.05-2.025l-1.5.225c.15 1.125.675 2.1 1.425 2.85 1.05 1.05 2.325 1.5 3.675 1.5 1.35 0 2.7-.525 3.675-1.5l1.65 1.65.6-4.8Z"/></g><defs><clipPath id="a"><path fill="#fff" d="M0 0h12v12H0z"/></clipPath></defs></svg>