<svg xmlns="http://www.w3.org/2000/svg" width="12" height="12" viewBox="0 0 12 12"><g clip-path="url(#a)"><path d="m4.171 5.286.345.275.284-.646L7.05 6.6a.75.75 0 0 0 1.074-.184l3-4.5a.75.75 0 0 0-1.248-.832l-2.56 3.84L4.95 3.15a.75.75 0 0 0-1.136.296L3.172 4.89c.365.032.712.17 1 .396ZM2.342 8.625h-.83l-.698 1.57a.75.75 0 1 0 1.372.61l.756-1.7-.6-.48Z"/><path d="M6.75 10.5a.75.75 0 0 1-.469-.164L2.737 7.5H.75a.75.75 0 1 1 0-1.5H3a.75.75 0 0 1 .469.164L6.81 8.84l3.3-1.982a.75.75 0 0 1 .773 1.286l-3.75 2.25a.75.75 0 0 1-.384.107Z"/></g><defs><clipPath id="a"><path fill="#fff" d="M0 0h12v12H0z"/></clipPath></defs></svg>