<svg width="12" height="12" viewBox="0 0 12 12" fill="none" xmlns="http://www.w3.org/2000/svg">
<g clip-path="url(#clip0_1907_885)">
<path d="M6.00002 11.25C4.93683 11.25 3.8987 10.9271 3.02299 10.3242C2.14727 9.72129 1.47526 8.86669 1.09585 7.8735C0.716441 6.8803 0.647522 5.79532 0.898213 4.7621C1.1489 3.72889 1.70739 2.79613 2.49977 2.08725L3.50027 3.20475C2.93413 3.71103 2.53506 4.37728 2.35588 5.11534C2.1767 5.8534 2.22584 6.62847 2.49682 7.33798C2.76779 8.0475 3.24782 8.65801 3.87337 9.08873C4.49893 9.51944 5.24052 9.75006 6.00002 9.75006C6.75952 9.75006 7.50112 9.51944 8.12667 9.08873C8.75223 8.65801 9.23225 8.0475 9.50323 7.33798C9.7742 6.62847 9.82335 5.8534 9.64417 5.11534C9.46498 4.37728 9.06591 3.71103 8.49977 3.20475L9.49952 2.08725C10.2919 2.79609 10.8503 3.72877 11.101 4.76192C11.3517 5.79507 11.2829 6.87999 10.9036 7.87315C10.5243 8.86631 9.85237 9.72091 8.97677 10.3239C8.10118 10.9269 7.06315 11.2498 6.00002 11.25Z" fill="black"/>
<path d="M6.75 0H5.25V5.25H6.75V0Z" fill="black"/>
</g>
<defs>
<clipPath id="clip0_1907_885">
<rect width="12" height="12" fill="white"/>
</clipPath>
</defs>
</svg>
