<svg width="12" height="12" viewBox="0 0 12 12" fill="none" xmlns="http://www.w3.org/2000/svg">
<path d="M3.37502 3.37499C4.80002 1.94999 7.20002 1.94999 8.62502 3.37499C9.15002 3.89999 9.52502 4.64999 9.67502 5.39999L11.175 5.17499C11.025 4.04999 10.5 3.07499 9.75002 2.32499C7.72502 0.299988 4.42502 0.299988 2.32502 2.32499L0.675024 0.674988L0.150024 5.47499L4.95002 4.94999L3.37502 3.37499Z" fill="black"/>
<path d="M11.85 6.52499L7.05001 7.04999L8.62501 8.62499C7.20001 10.05 4.80001 10.05 3.37501 8.62499C2.85001 8.09999 2.47501 7.34999 2.32501 6.59999L0.825012 6.82499C0.975012 7.94999 1.50001 8.92499 2.25001 9.67499C3.30001 10.725 4.57501 11.175 5.92501 11.175C7.27501 11.175 8.62501 10.65 9.60001 9.67499L11.25 11.325L11.85 6.52499Z" fill="black"/>
</svg>
