<svg width="12" height="12" viewBox="0 0 12 12" fill="none" xmlns="http://www.w3.org/2000/svg">
<path d="M10.7193 1.29279C10.5318 1.10532 10.2775 1 10.0123 1C9.74712 1 9.49282 1.10532 9.30529 1.29279L6.01229 4.58579L2.71929 1.29279C2.53069 1.11063 2.27808 1.00983 2.01589 1.01211C1.75369 1.01439 1.50288 1.11956 1.31747 1.30497C1.13206 1.49038 1.02689 1.74119 1.02461 2.00339C1.02234 2.26558 1.12313 2.51818 1.30529 2.70679L4.59829 5.99979L1.30529 9.29279C1.20978 9.38503 1.1336 9.49538 1.08119 9.61738C1.02878 9.73939 1.00119 9.87061 1.00004 10.0034C0.998884 10.1362 1.02419 10.2678 1.07447 10.3907C1.12475 10.5136 1.199 10.6253 1.29289 10.7192C1.38679 10.8131 1.49844 10.8873 1.62133 10.9376C1.74423 10.9879 1.87591 11.0132 2.00869 11.012C2.14147 11.0109 2.27269 10.9833 2.39469 10.9309C2.5167 10.8785 2.62704 10.8023 2.71929 10.7068L6.01229 7.41379L9.30529 10.7068C9.49389 10.8889 9.74649 10.9897 10.0087 10.9875C10.2709 10.9852 10.5217 10.88 10.7071 10.6946C10.8925 10.5092 10.9977 10.2584 11 9.99619C11.0022 9.73399 10.9014 9.48139 10.7193 9.29279L7.42629 5.99979L10.7193 2.70679C10.9068 2.51926 11.0121 2.26495 11.0121 1.99979C11.0121 1.73462 10.9068 1.48031 10.7193 1.29279Z" fill="black"/>
</svg>
