<svg width="12" height="12" viewBox="0 0 12 12" fill="none" xmlns="http://www.w3.org/2000/svg">
<g clip-path="url(#clip0_832_905)">
<path d="M11.2002 4.80002H8.42819L7.36019 3.20001L8.42659 1.60001H11.2002C11.4124 1.60001 11.6159 1.51572 11.7659 1.36569C11.9159 1.21566 12.0002 1.01218 12.0002 0.800003C12.0002 0.587829 11.9159 0.384345 11.7659 0.234315C11.6159 0.0842857 11.4124 8.95955e-09 11.2002 8.95955e-09H8.00019C7.86851 -1.96955e-05 7.73887 0.0324624 7.62276 0.0945644C7.50665 0.156666 7.40767 0.246468 7.33459 0.356001L5.97218 2.40001H3.21057L3.92017 4.00001H5.97218L7.33219 6.04402C7.40549 6.15389 7.50486 6.24391 7.62142 6.30603C7.73798 6.36815 7.86811 6.40044 8.00019 6.40002H11.2002C11.4124 6.40002 11.6159 6.31574 11.7659 6.16571C11.9159 6.01568 12.0002 5.81219 12.0002 5.60002C12.0002 5.38785 11.9159 5.18436 11.7659 5.03433C11.6159 4.8843 11.4124 4.80002 11.2002 4.80002Z" fill="black"/>
<path d="M5.52576 9.60002C5.51536 9.57122 5.50976 9.54082 5.49696 9.51282L2.29695 2.3128C2.23297 2.16876 2.14124 2.03874 2.02701 1.93015C1.91278 1.82157 1.77829 1.73654 1.6312 1.67994C1.33414 1.56561 1.00383 1.57398 0.712942 1.70319C0.422051 1.83241 0.194405 2.07188 0.0800825 2.36894C-0.0342401 2.666 -0.0258743 2.99631 0.10334 3.2872L2.90895 9.60002H0.000139335V12H8.80017V9.60002H5.52576Z" fill="black"/>
</g>
<defs>
<clipPath id="clip0_832_905">
<rect width="12" height="12" fill="white"/>
</clipPath>
</defs>
</svg>
