<svg width="12" height="12" viewBox="0 0 12 12" fill="none" xmlns="http://www.w3.org/2000/svg">
<path d="M6 12C4.4087 12 2.88258 11.3679 1.75736 10.2426C0.632141 9.11742 0 7.5913 0 6C0 4.4087 0.632141 2.88258 1.75736 1.75736C2.88258 0.632141 4.4087 0 6 0C6.19891 0 6.38968 0.0790176 6.53033 0.21967C6.67098 0.360322 6.75 0.551088 6.75 0.75C6.75 0.948912 6.67098 1.13968 6.53033 1.28033C6.38968 1.42098 6.19891 1.5 6 1.5C5.10998 1.5 4.23996 1.76392 3.49993 2.25839C2.75991 2.75285 2.18314 3.45566 1.84254 4.27792C1.50195 5.10019 1.41283 6.00499 1.58647 6.87791C1.7601 7.75082 2.18868 8.55264 2.81802 9.18198C3.44736 9.81132 4.24918 10.2399 5.12209 10.4135C5.99501 10.5872 6.89981 10.4981 7.72208 10.1575C8.54434 9.81686 9.24715 9.24009 9.74161 8.50007C10.2361 7.76005 10.5 6.89002 10.5 6C10.5 5.80109 10.579 5.61032 10.7197 5.46967C10.8603 5.32902 11.0511 5.25 11.25 5.25C11.4489 5.25 11.6397 5.32902 11.7803 5.46967C11.921 5.61032 12 5.80109 12 6C11.9982 7.59075 11.3655 9.11584 10.2407 10.2407C9.11584 11.3655 7.59075 11.9982 6 12Z" fill="black"/>
<path d="M6 9C5.80109 9 5.61032 8.92098 5.46967 8.78033C5.32902 8.63968 5.25 8.44891 5.25 8.25C5.25 8.05109 5.32902 7.86032 5.46967 7.71967C5.61032 7.57902 5.80109 7.5 6 7.5C6.29667 7.5 6.58668 7.41203 6.83336 7.24721C7.08003 7.08238 7.27229 6.84812 7.38582 6.57403C7.49935 6.29994 7.52906 5.99834 7.47118 5.70737C7.4133 5.41639 7.27044 5.14912 7.06066 4.93934C6.85088 4.72956 6.58361 4.5867 6.29264 4.52882C6.00166 4.47095 5.70006 4.50065 5.42597 4.61418C5.15189 4.72771 4.91762 4.91997 4.7528 5.16665C4.58797 5.41332 4.5 5.70333 4.5 6C4.5 6.19891 4.42098 6.38968 4.28033 6.53033C4.13968 6.67098 3.94891 6.75 3.75 6.75C3.55109 6.75 3.36032 6.67098 3.21967 6.53033C3.07902 6.38968 3 6.19891 3 6C3 5.40666 3.17595 4.82664 3.50559 4.33329C3.83524 3.83994 4.30377 3.45543 4.85195 3.22836C5.40013 3.0013 6.00333 2.94189 6.58527 3.05765C7.16721 3.1734 7.70176 3.45912 8.12132 3.87868C8.54088 4.29824 8.8266 4.83279 8.94236 5.41473C9.05811 5.99667 8.9987 6.59987 8.77164 7.14805C8.54458 7.69623 8.16006 8.16477 7.66671 8.49441C7.17336 8.82405 6.59334 9 6 9Z" fill="black"/>
<path d="M10.7437 4.50001C10.6024 4.49961 10.464 4.45927 10.3446 4.38363C10.2251 4.30799 10.1295 4.20014 10.0687 4.07251C9.62168 3.1353 8.86592 2.38034 7.92824 1.93426C7.83911 1.89221 7.75913 1.83301 7.69287 1.76004C7.62662 1.68708 7.57538 1.60178 7.54209 1.50901C7.5088 1.41624 7.49411 1.31783 7.49886 1.21939C7.5036 1.12094 7.52769 1.0244 7.56974 0.935263C7.6118 0.846128 7.671 0.766149 7.74396 0.699894C7.81693 0.633638 7.90223 0.582403 7.995 0.549113C8.08776 0.515823 8.18618 0.501131 8.28462 0.505875C8.38306 0.510619 8.47961 0.534707 8.56874 0.576763C9.81766 1.17155 10.824 2.17785 11.4187 3.42676C11.4731 3.54092 11.4977 3.66698 11.4903 3.79321C11.4829 3.91943 11.4437 4.04174 11.3764 4.14876C11.309 4.25577 11.2157 4.34402 11.1051 4.4053C10.9945 4.46658 10.8702 4.49891 10.7437 4.49926V4.50001Z" fill="black"/>
</svg>
