<svg width="12" height="12" viewBox="0 0 12 12" xmlns="http://www.w3.org/2000/svg"><g clip-path="url(#a)"><path d="m9.975 3.9.825-1.575-1.05-1.05-1.575.825c-.225-.15-.525-.225-.825-.3L6.75 0h-1.5l-.6 1.725c-.225.075-.525.15-.75.3L2.325 1.2 1.2 2.325 2.025 3.9c-.15.225-.225.525-.3.75L0 5.25v1.5l1.725.6c.075.3.225.525.3.825L1.2 9.75l1.05 1.05 1.575-.825c.225.15.525.225.825.3L5.25 12h1.5l.6-1.725c.3-.075.525-.225.825-.3l1.575.825 1.05-1.05-.825-1.575c.15-.225.225-.525.3-.825L12 6.75v-1.5l-1.725-.6c-.075-.225-.15-.525-.3-.75ZM6 8.25c-1.275 0-2.25-.975-2.25-2.25S4.725 3.75 6 3.75 8.25 4.725 8.25 6 7.275 8.25 6 8.25Z"/></g><defs><clipPath id="a"><path fill="#fff" d="M0 0h12v12H0z"/></clipPath></defs></svg>