<svg width="13" height="12" viewBox="0 0 13 12" xmlns="http://www.w3.org/2000/svg"><g clip-path="url(#a)"><path d="M6.03 9.75c-.452 0-.754.3-.754.75v.75c0 .45.302.75.754.75s.754-.3.754-.75v-.75c0-.45-.302-.75-.754-.75Zm-3.015-1.5c-.452 0-.754.3-.754.75v.75c0 .45.302.75.754.75s.754-.3.754-.75V9c0-.45-.302-.75-.754-.75Zm6.03 0c-.452 0-.754.3-.754.75v.75c0 .45.302.75.754.75.453 0 .754-.3.754-.75V9c0-.45-.301-.75-.754-.75ZM11.231 6a5.108 5.108 0 0 0-4.447-4.425V0H5.276v1.575A5.108 5.108 0 0 0 .83 6C.302 6 0 6.375 0 6.75c0 .45.302.75.754.75h10.553c.452 0 .753-.3.753-.75 0-.375-.301-.75-.829-.75Z"/></g><defs><clipPath id="a"><path fill="#fff" d="M0 0h12.06v12H0z"/></clipPath></defs></svg>