<svg width="12" height="12" viewBox="0 0 12 12" fill="none" xmlns="http://www.w3.org/2000/svg">
<path d="M6 9.75C5.55 9.75 5.25 10.05 5.25 10.5V11.25C5.25 11.7 5.55 12 6 12C6.45 12 6.75 11.7 6.75 11.25V10.5C6.75 10.05 6.45 9.75 6 9.75Z" fill="black"/>
<path d="M3 8.25C2.55 8.25 2.25 8.55 2.25 9V9.75C2.25 10.2 2.55 10.5 3 10.5C3.45 10.5 3.75 10.2 3.75 9.75V9C3.75 8.55 3.45 8.25 3 8.25Z" fill="black"/>
<path d="M9 8.25C8.55 8.25 8.25 8.55 8.25 9V9.75C8.25 10.2 8.55 10.5 9 10.5C9.45 10.5 9.75 10.2 9.75 9.75V9C9.75 8.55 9.45 8.25 9 8.25Z" fill="black"/>
<path d="M11.175 6C10.875 3.675 9.075 1.875 6.75 1.575V0H5.25V1.575C2.925 1.875 1.125 3.675 0.825 6C0.3 6 0 6.375 0 6.75C0 7.2 0.3 7.5 0.75 7.5H11.25C11.7 7.5 12 7.2 12 6.75C12 6.375 11.7 6 11.175 6Z" fill="black"/>
</svg>
