<svg xmlns="http://www.w3.org/2000/svg" width="12" height="12" viewBox="0 0 12 12"><path fill-rule="evenodd" d="M5.167 6.167a1.833 1.833 0 0 1 3.597-.5h2.57a.5.5 0 0 1 0 1h-.5v.5a.5.5 0 0 1-1 0v-.5h-1.07a1.834 1.834 0 0 1-3.597-.5M7 5.333A.833.833 0 1 0 7 7a.833.833 0 0 0 0-1.667" clip-rule="evenodd"/><path d="m9.855 1.875-3.5-1.12a1.16 1.16 0 0 0-.71 0l-3.501 1.12c-.485.156-.81.602-.81 1.112v4.346c0 2.339 3.297 3.586 4.306 3.913a1.17 1.17 0 0 0 .719 0c.798-.257 3.022-1.09 3.922-2.58a1.5 1.5 0 0 1-1.162-.619 2.833 2.833 0 1 1 .285-3.38h1.263v-1.68c0-.51-.326-.956-.812-1.112"/></svg>