<svg xmlns="http://www.w3.org/2000/svg" width="12" height="12" viewBox="0 0 12 12"><g clip-path="url(#a)"><path fill-rule="evenodd" d="M8.625 3.375C7.2 1.95 4.8 1.95 3.375 3.375c-.525.525-.9 1.275-1.05 2.025l-1.5-.225c.15-1.125.675-2.1 1.425-2.85C4.275.3 7.575.3 9.675 2.325l1.65-1.65.525 4.8-3.35-.366V4a1 1 0 0 0-.088-.412zM3.5 6.891V8c0 .147.032.286.088.412l-.213.213c1.425 1.425 3.825 1.425 5.25 0 .525-.525.9-1.275 1.05-2.025l1.5.225a4.94 4.94 0 0 1-1.425 2.85c-1.05 1.05-2.325 1.5-3.675 1.5s-2.7-.525-3.675-1.5l-1.65 1.65-.6-4.8z" clip-rule="evenodd"/><path d="M4.167 4h1c.092 0 .166.075.166.167v3.666A.167.167 0 0 1 5.167 8h-1A.167.167 0 0 1 4 7.833V4.167C4 4.075 4.075 4 4.167 4m2.666 0h1c.092 0 .167.075.167.167v3.666A.167.167 0 0 1 7.833 8h-1a.167.167 0 0 1-.166-.167V4.167c0-.092.074-.167.166-.167"/></g><defs><clipPath id="a"><path fill="#fff" d="M0 0h12v12H0z"/></clipPath></defs></svg>