<svg width="12" height="12" viewBox="0 0 12 12" fill="none" xmlns="http://www.w3.org/2000/svg">
<g clip-path="url(#clip0_833_914)">
<path d="M3.37499 3.375C4.79999 1.95 7.19999 1.95 8.62499 3.375C9.14999 3.9 9.52499 4.65 9.67499 5.4L11.175 5.175C11.025 4.05 10.5 3.075 9.74999 2.325C7.72499 0.300003 4.42499 0.300003 2.32499 2.325L0.674994 0.675003L0.149994 5.475L4.94999 4.95L3.37499 3.375Z" fill="black"/>
<path d="M11.85 6.52499L7.05001 7.04999L8.62501 8.62499C7.20001 10.05 4.80001 10.05 3.37501 8.62499C2.85001 8.09999 2.47501 7.34999 2.32501 6.59999L0.825012 6.82499C0.975012 7.94999 1.50001 8.92499 2.25001 9.67499C3.30001 10.725 4.57501 11.175 5.92501 11.175C7.27501 11.175 8.62501 10.65 9.60001 9.67499L11.25 11.325L11.85 6.52499Z" fill="black"/>
</g>
<defs>
<clipPath id="clip0_833_914">
<rect width="12" height="12" fill="white"/>
</clipPath>
</defs>
</svg>
