<svg xmlns="http://www.w3.org/2000/svg" width="12" height="12" viewBox="0 0 12 12"><g clip-path="url(#a)"><path d="M10.5 6.03 6.354 1.883a.5.5 0 0 0-.708 0L1.5 6.03l-1-1.06 5-4.75a.75.75 0 0 1 1.06 0l4.94 4.75-1 1.06Z"/><path d="M10.5 11.96 6.354 7.814a.5.5 0 0 0-.708 0L1.5 11.96l-1-1.06L5.47 6a.75.75 0 0 1 1.06 0l4.97 4.9z"/><path d="M10.5 9 6.354 4.854a.5.5 0 0 0-.708 0L1.5 9l-1-1 4.97-4.78a.75.75 0 0 1 1.06 0L11.5 8z"/></g><defs><clipPath id="a"><path fill="#fff" d="M0 0h12v12H0z"/></clipPath></defs></svg>