<svg width="12" height="12" viewBox="0 0 12 12" fill="none" xmlns="http://www.w3.org/2000/svg">
<g clip-path="url(#clip0_856_849)">
<path d="M11.25 1.125C11.25 1.74632 9.54383 2.25 6 2.25C2.45617 2.25 0.75 1.74632 0.75 1.125C0.75 0.503677 2.45617 0 6 0C9.54383 0 11.25 0.503677 11.25 1.125Z" fill="black"/>
<path fill-rule="evenodd" clip-rule="evenodd" d="M0.75 2.32953C2.05532 2.88841 4.03775 3.00001 6 3.00001C7.96225 3.00001 9.94468 2.88841 11.25 2.32953V10.875C11.25 11.4963 9.54383 12 6 12C2.45617 12 0.75 11.4963 0.75 10.875V2.32953ZM8 8.4375C8 9.74375 6.96667 10.5 6 10.5C5.03333 10.5 4 9.74375 4 8.4375C4 7.23438 6 5 6 5C6 5 8 7.23438 8 8.4375Z" fill="black"/>
</g>
<defs>
<clipPath id="clip0_856_849">
<rect width="12" height="12" fill="white"/>
</clipPath>
</defs>
</svg>
