<svg xmlns="http://www.w3.org/2000/svg" width="12" height="12" viewBox="0 0 12 12"><g clip-path="url(#a)"><path d="M11.625 0h-3.75a.375.375 0 0 0-.266.64l1.345 1.345L4.72 6.22a.75.75 0 1 0 1.06 1.06l4.235-4.234L11.36 4.39a.375.375 0 0 0 .64-.266V.375A.375.375 0 0 0 11.625 0"/><path d="M9.75 6.75A.75.75 0 0 0 9 7.5v3H1.5V3h3a.75.75 0 0 0 0-1.5h-3A1.5 1.5 0 0 0 0 3v7.5A1.5 1.5 0 0 0 1.5 12H9a1.5 1.5 0 0 0 1.5-1.5v-3a.75.75 0 0 0-.75-.75"/></g><defs><clipPath id="a"><path fill="#fff" d="M0 0h12v12H0z"/></clipPath></defs></svg>