<svg width="12" height="12" viewBox="0 0 12 12" fill="none" xmlns="http://www.w3.org/2000/svg">
<g clip-path="url(#clip0_859_912)">
<path d="M5.91096 0.000753324C3.17043 0.0461508 0.852087 2.3175 0.753485 5.05662C0.675192 7.23167 1.92356 9.11894 3.75 9.98799V11.25C3.75 11.6642 4.08579 12 4.5 12H7.5C7.91421 12 8.25 11.6642 8.25 11.25V9.98799C10.0221 9.14479 11.25 7.34308 11.25 5.25C11.25 2.32086 8.8512 -0.0479592 5.91096 0.000753324ZM8.19205 3.41313C8.17914 3.5089 7.86396 5.77007 6.81111 6.8232C6.29901 7.33548 5.71888 7.5 5.21218 7.5C4.76439 7.5 4.37374 7.3716 4.13795 7.2415L4.06311 7.20017L6.16515 5.13282L3.81015 5.57534C3.89131 5.20084 4.07277 4.81069 4.43568 4.44777C5.39982 3.48349 7.73708 3.08487 7.83632 3.06835L8.24771 2.99978L8.19205 3.41313Z" fill="black"/>
</g>
<defs>
<clipPath id="clip0_859_912">
<rect width="12" height="12" fill="white"/>
</clipPath>
</defs>
</svg>
