<svg xmlns="http://www.w3.org/2000/svg" width="12" height="12" viewBox="0 0 12 12"><g clip-path="url(#a)"><path fill-rule="evenodd" d="M3.375 3.375C4.8 1.95 7.2 1.95 8.625 3.375c.525.525.9 1.275 1.05 2.025l1.5-.225a4.94 4.94 0 0 0-1.425-2.85C7.725.3 4.425.3 2.325 2.325L.675.675l-.525 4.8 3.35-.366V4c0-.147.032-.286.088-.412zM8.5 6.891V8a1 1 0 0 1-.088.412l.213.213c-1.425 1.425-3.825 1.425-5.25 0-.525-.525-.9-1.275-1.05-2.025l-1.5.225c.15 1.125.675 2.1 1.425 2.85 1.05 1.05 2.325 1.5 3.675 1.5s2.7-.525 3.675-1.5l1.65 1.65.6-4.8z" clip-rule="evenodd"/><path d="M7.833 4h-1a.167.167 0 0 0-.166.167v3.666c0 .092.074.167.166.167h1A.167.167 0 0 0 8 7.833V4.167A.167.167 0 0 0 7.833 4M5.167 4h-1A.167.167 0 0 0 4 4.167v3.666c0 .092.075.167.167.167h1a.167.167 0 0 0 .166-.167V4.167A.167.167 0 0 0 5.167 4"/></g><defs><clipPath id="a"><path fill="#fff" d="M0 0h12v12H0z"/></clipPath></defs></svg>