<svg xmlns="http://www.w3.org/2000/svg" width="12" height="12" viewBox="0 0 12 12"><g clip-path="url(#a)"><path fill-rule="evenodd" d="M8.7 2.25 10.725.225c.3-.3.75-.3 1.05 0 .3.3.3.75 0 1.05l-10.5 10.5A.68.68 0 0 1 .75 12a.68.68 0 0 1-.525-.225c-.3-.3-.3-.75 0-1.05L2.1 8.85C1.35 8.175.675 7.425.3 6.825c-.375-.45-.375-1.125 0-1.65C1.2 3.825 3.3 1.5 6 1.5c.975 0 1.875.3 2.7.75ZM3.75 6c0 .375.075.675.225.975l3-3c-.3-.15-.6-.225-.975-.225-1.275 0-2.25.975-2.25 2.25Zm1.05 4.35 6.15-6.15c.132.164.263.314.382.45.152.174.284.324.368.45.375.525.375 1.2 0 1.725-.9 1.35-3 3.675-5.7 3.675-.375 0-.825-.075-1.2-.15Z" clip-rule="evenodd"/></g><defs><clipPath id="a"><path fill="#fff" d="M0 0h12v12H0z"/></clipPath></defs></svg>