<svg width="12" height="12" viewBox="0 0 12 12" fill="none" xmlns="http://www.w3.org/2000/svg">
<g clip-path="url(#clip0_848_701)">
<path d="M3.75 0.749997H0.75V2.25H3.75V0.749997Z" fill="black"/>
<path d="M3.75 3.75H0.75V5.25H3.75V3.75Z" fill="black"/>
<path d="M7.5 12C7.00618 12.0049 6.51634 11.9113 6.05915 11.7246C5.60196 11.5378 5.1866 11.2618 4.8374 10.9126C4.4882 10.5634 4.21216 10.148 4.02545 9.69085C3.83873 9.23366 3.74509 8.74382 3.75 8.25C3.76221 7.67006 3.90312 7.10009 4.16253 6.58126C4.42194 6.06244 4.79338 5.60773 5.25 5.25V2.25C5.2445 1.95301 5.29895 1.65797 5.41007 1.3825C5.5212 1.10703 5.68673 0.856803 5.89677 0.646766C6.10681 0.436729 6.35704 0.2712 6.6325 0.160072C6.90797 0.0489446 7.20301 -0.00549877 7.5 -3.26298e-06C7.79699 -0.00549877 8.09203 0.0489446 8.3675 0.160072C8.64296 0.2712 8.89319 0.436729 9.10323 0.646766C9.31327 0.856803 9.4788 1.10703 9.58992 1.3825C9.70105 1.65797 9.7555 1.95301 9.75 2.25V5.25C10.2128 5.602 10.5888 6.0555 10.8488 6.5756C11.1089 7.09569 11.2461 7.66852 11.25 8.25C11.2549 8.74382 11.1613 9.23366 10.9746 9.69085C10.7878 10.148 10.5118 10.5634 10.1626 10.9126C9.81339 11.2618 9.39804 11.5378 8.94085 11.7246C8.48366 11.9113 7.99382 12.0049 7.5 12ZM7.5 1.5C7.39994 1.49398 7.29974 1.50926 7.20602 1.54482C7.1123 1.58039 7.02719 1.63543 6.95631 1.70631C6.88543 1.77719 6.83039 1.8623 6.79483 1.95602C6.75926 2.04974 6.74399 2.14994 6.75 2.25V6.075C6.3161 6.25319 5.94333 6.55362 5.67703 6.93976C5.41073 7.3259 5.26237 7.7811 5.25 8.25C5.2445 8.54698 5.29895 8.84203 5.41007 9.11749C5.5212 9.39296 5.68673 9.64319 5.89677 9.85323C6.10681 10.0633 6.35704 10.2288 6.6325 10.3399C6.90797 10.451 7.20301 10.5055 7.5 10.5C7.79699 10.5055 8.09203 10.451 8.3675 10.3399C8.64296 10.2288 8.89319 10.0633 9.10323 9.85323C9.31327 9.64319 9.4788 9.39296 9.58992 9.11749C9.70105 8.84203 9.7555 8.54698 9.75 8.25C9.73763 7.7811 9.58927 7.3259 9.32297 6.93976C9.05667 6.55362 8.6839 6.25319 8.25 6.075V2.25C8.25601 2.14994 8.24074 2.04974 8.20517 1.95602C8.16961 1.8623 8.11457 1.77719 8.04369 1.70631C7.97281 1.63543 7.8877 1.58039 7.79398 1.54482C7.70026 1.50926 7.60006 1.49398 7.5 1.5Z" fill="black"/>
<path d="M7.5 9C7.91421 9 8.25 8.66421 8.25 8.25C8.25 7.83578 7.91421 7.5 7.5 7.5C7.08579 7.5 6.75 7.83578 6.75 8.25C6.75 8.66421 7.08579 9 7.5 9Z" fill="black"/>
</g>
<defs>
<clipPath id="clip0_848_701">
<rect width="12" height="12" fill="white"/>
</clipPath>
</defs>
</svg>
