<svg xmlns="http://www.w3.org/2000/svg" width="12" height="12" viewBox="0 0 12 12"><path d="m6.037 5.4.121.011a.601.601 0 0 1 .006 1.176l-.121.013h-.086a.6.6 0 1 1 .006-1.2zm-2.744-.53.117.033.032.013.035.014.107.055a.6.6 0 0 1-.43 1.094l-.117-.032-.04-.017-.039-.015-.107-.057a.6.6 0 0 1 .442-1.089m5.414 0a.6.6 0 0 1 .335 1.145l-.038.015-.041.017a.6.6 0 0 1-.44-1.117l.035-.014.032-.013zM1 6.4a.6.6 0 0 1 .435.186l.023.024.075.096A.6.6 0 0 1 1 7.625.6.6 0 0 1 .542 6.61l.023-.024.093-.08A.6.6 0 0 1 1 6.4m10 0a.6.6 0 0 1 .435.186l.023.024.075.096a.6.6 0 0 1-.533.919.597.597 0 0 1-.458-1.015l.023-.024.093-.08A.6.6 0 0 1 11 6.4"/><path d="M1.086 6.155c.2.02.388.11.529.258l.023.024.017.019.075.095.015.021a.85.85 0 0 1-.029.952l-.1.114a.84.84 0 0 1-.544.237H.926a.85.85 0 0 1-.475-.177l-.068-.06a.85.85 0 0 1-.021-1.202l.04-.04.094-.08.02-.015.11-.065A.85.85 0 0 1 1 6.15zm10 0c.2.02.388.11.529.258l.023.024.017.019.075.095.015.021.067.13a.85.85 0 0 1-.096.822l-.1.114a.84.84 0 0 1-.543.237h-.146a.85.85 0 0 1-.475-.177l-.069-.06a.85.85 0 0 1-.078-1.135l.057-.067.04-.04.094-.08.02-.015.11-.065A.85.85 0 0 1 11 6.15zm-10.14.499a.35.35 0 0 0-.14.055l-.07.06-.014.015a.35.35 0 0 0 .008.495l.057.044a.35.35 0 0 0 .223.053l.072-.004a.34.34 0 0 0 .188-.093l.04-.047a.35.35 0 0 0 .013-.39l-.053-.066-.016-.016v-.001A.35.35 0 0 0 1 6.65zm10 0a.35.35 0 0 0-.14.055l-.07.06-.014.015a.35.35 0 0 0 .008.495l.057.045q.092.057.202.052h.022a.35.35 0 0 0 .26-.097l.04-.047a.35.35 0 0 0 .012-.39l-.053-.066-.016-.016v-.001A.35.35 0 0 0 11 6.65zM6.037 5.15l.023.001.121.01.027.005.141.04a.86.86 0 0 1 .529.64l.013.15-.012.15a.85.85 0 0 1-.663.686l-.025.004-.121.012-.026.001h-.087a.85.85 0 0 1-.847-.853l.005-.087a.85.85 0 0 1 .848-.759zm-.145.507a.35.35 0 0 0-.282.342c0 .192.156.35.35.35h.077l.083-.008a.35.35 0 0 0 .271-.342l-.005-.063a.35.35 0 0 0-.27-.278l-.09-.008h-.064zm2.77-1.033a.85.85 0 0 1 .943.515l.028.082a.85.85 0 0 1-.496 1.024h.001l-.038.016-.002.001-.043.018a.85.85 0 0 1-1.066-.401l-.036-.08a.85.85 0 0 1 .48-1.102l.032-.013h.002L8.5 4.67l.021-.007.117-.034zm-5.323 0 .025.006.117.034.022.007.032.012.002.001.034.014.021.01.108.055.021.013a.85.85 0 0 1 .37.878l-.042.146a.85.85 0 0 1-.79.538l-.146-.013-.024-.005-.117-.032-.028-.009-.041-.017H2.9l-.038-.016-.022-.01-.107-.057-.023-.013a.85.85 0 0 1-.315-1.027l.07-.134a.85.85 0 0 1 .727-.396zm5.42.49-.092.027-.016.006v.001l-.035.015a.35.35 0 0 0-.197.454l.032.062a.35.35 0 0 0 .422.135l.037-.015.038-.016.063-.033a.35.35 0 0 0 .15-.355l-.02-.067a.35.35 0 0 0-.382-.214m-5.517 0a.35.35 0 0 0-.353.158l-.028.056a.35.35 0 0 0 .123.417l.075.04.033.014.022.008.092.026a.35.35 0 0 0 .378-.216l.017-.06a.35.35 0 0 0-.146-.358l-.082-.042-.023-.009-.015-.007zm5.463 3.224a.58.58 0 0 1 .465.24c.266.363.606.656.994.858.34.176.709.278 1.085.3l.161.006.12.013a.62.62 0 0 1 .47.616.62.62 0 0 1-.47.617l-.12.012-.228-.007a3.8 3.8 0 0 1-1.535-.426 4 4 0 0 1-.942-.68 4 4 0 0 1-.942.68A3.8 3.8 0 0 1 6 11c-.61 0-1.214-.148-1.763-.433a4 4 0 0 1-.942-.68 4 4 0 0 1-.942.68A3.8 3.8 0 0 1 .59 11c-.326 0-.59-.281-.59-.629 0-.347.264-.63.59-.63.432 0 .858-.104 1.246-.305.388-.202.728-.495.994-.857l.045-.054a.57.57 0 0 1 .42-.187c.181 0 .353.089.465.24l.103.134c.248.301.551.547.891.724A2.7 2.7 0 0 0 6 9.742a2.7 2.7 0 0 0 1.246-.306c.388-.202.728-.495.994-.857l.045-.054a.57.57 0 0 1 .42-.187m0-7.338c.182 0 .353.088.465.24.266.363.606.656.994.857.34.177.709.279 1.085.301l.161.006.12.013a.62.62 0 0 1 .47.616.62.62 0 0 1-.47.616l-.12.013-.228-.007a3.8 3.8 0 0 1-1.535-.426 4 4 0 0 1-.943-.681l-.035.036-.188.166a3.9 3.9 0 0 1-1.401.755 3.8 3.8 0 0 1-1.567.125 3.9 3.9 0 0 1-1.492-.522 4 4 0 0 1-.726-.56 4 4 0 0 1-.942.68 3.8 3.8 0 0 1-1.763.434c-.326 0-.59-.282-.59-.629s.264-.63.59-.63c.432 0 .858-.104 1.246-.306.388-.201.728-.494.994-.856l.045-.055A.57.57 0 0 1 3.295 1c.181 0 .353.088.465.24.23.314.516.577.841.772a2.68 2.68 0 0 0 2.161.28c.36-.106.698-.287.992-.532l.133-.118q.194-.183.353-.4l.044-.055A.57.57 0 0 1 8.705 1"/></svg>