<svg width="12" height="12" viewBox="0 0 12 12" fill="none" xmlns="http://www.w3.org/2000/svg">
<g clip-path="url(#clip0_1934_911)">
<path d="M0.749958 8.99994C0.810708 8.99994 0.871458 8.99244 0.931458 8.97744L3.93146 8.22744C4.06346 8.19444 4.18421 8.12618 4.28021 8.03018L8.78021 3.53019C9.07346 3.23694 9.07346 2.76294 8.78021 2.46969L6.53021 0.219686C6.23696 -0.0735642 5.76296 -0.0735642 5.46971 0.219686L0.969708 4.71969C0.873708 4.81569 0.805458 4.93644 0.772458 5.06769L0.0224584 8.06769C-0.0420416 8.32343 0.0337084 8.59343 0.219708 8.78018C0.361458 8.92268 0.553458 8.99994 0.749958 8.99994ZM2.17721 5.63319L5.99996 1.81044L7.18946 2.99994L3.36596 6.82269L1.78046 7.21869L2.17721 5.63319Z" fill="black"/>
<path d="M11.25 10.5H0.75C0.33525 10.5 4.71773e-07 10.836 4.71773e-07 11.25C4.71773e-07 11.664 0.33525 12 0.75 12H11.25C11.6648 12 12 11.664 12 11.25C12 10.836 11.6648 10.5 11.25 10.5Z" fill="black"/>
</g>
<defs>
<clipPath id="clip0_1934_911">
<rect width="12" height="12" fill="white"/>
</clipPath>
</defs>
</svg>
