<svg xmlns="http://www.w3.org/2000/svg" width="12" height="12" viewBox="0 0 12 12"><g clip-path="url(#a)"><path d="M6 9.75c-.45 0-.75.3-.75.75v.75c0 .45.3.75.75.75s.75-.3.75-.75v-.75c0-.45-.3-.75-.75-.75m-3-1.5c-.45 0-.75.3-.75.75v.75c0 .45.3.75.75.75s.75-.3.75-.75V9c0-.45-.3-.75-.75-.75m6 0c-.45 0-.75.3-.75.75v.75c0 .45.3.75.75.75s.75-.3.75-.75V9c0-.45-.3-.75-.75-.75M11.175 6A5.095 5.095 0 0 0 6.75 1.575V0h-1.5v1.575A5.095 5.095 0 0 0 .825 6C.3 6 0 6.375 0 6.75c0 .45.3.75.75.75h10.5c.45 0 .75-.3.75-.75 0-.375-.3-.75-.825-.75"/></g><defs><clipPath id="a"><path fill="#fff" d="M0 0h12v12H0z"/></clipPath></defs></svg>