<svg xmlns="http://www.w3.org/2000/svg" width="12" height="12" viewBox="0 0 12 12"><path d="M6 0C4.248 0 2.436 1.397 2.436 3.733c0 2.12 2.864 5.467 3.19 5.842A.5.5 0 0 0 6 9.75a.5.5 0 0 0 .374-.175c.327-.375 3.19-3.72 3.19-5.841C9.564 1.396 7.752 0 6 0m0 4.875c-.57 0-1.032-.504-1.032-1.125S5.43 2.625 6 2.625s1.032.504 1.032 1.125S6.57 4.875 6 4.875"/><path d="M9.452 12H2.549c-.517 0-.998-.279-1.286-.747a1.82 1.82 0 0 1-.147-1.58l.703-1.875c.108-.287.409-.426.673-.308s.39.446.283.734l-.703 1.875a.6.6 0 0 0 .049.526c.097.159.253.25.428.25h6.903a.5.5 0 0 0 .428-.25.6.6 0 0 0 .05-.526l-.704-1.875c-.108-.288.018-.616.283-.734s.565.021.673.308l.703 1.876c.195.52.14 1.111-.147 1.578s-.769.747-1.286.747z"/></svg>