<svg width="12" height="12" viewBox="0 0 12 12" fill="none" xmlns="http://www.w3.org/2000/svg">
<g clip-path="url(#clip0_1929_976)">
<path d="M10.5 6.02991L6.35354 1.88347C6.15828 1.68821 5.84169 1.68821 5.64643 1.88347L1.49998 6.02991L0.5 4.96943L5.49997 0.21959C5.64062 0.0789866 5.83135 0 6.03022 0C6.22909 0 6.41982 0.0789866 6.56047 0.21959L11.5 4.96943L10.5 6.02991Z" fill="black"/>
<path d="M10.5 11.9603L6.35357 7.81389C6.15831 7.61862 5.84172 7.61862 5.64646 7.81389L1.50001 11.9603L0.5 10.8998L5.46976 6C5.61041 5.8594 5.80114 5.78041 6.00001 5.78041C6.19889 5.78041 6.38962 5.8594 6.53026 6L11.5 10.8998L10.5 11.9603Z" fill="black"/>
<path d="M10.5 9L6.35355 4.85355C6.15829 4.65829 5.84171 4.65829 5.64645 4.85355L1.5 9L0.5 8L5.46976 3.21959C5.61041 3.07899 5.80114 3 6.00001 3C6.19889 3 6.38962 3.07899 6.53026 3.21959L11.5 8L10.5 9Z" fill="black"/>
</g>
<defs>
<clipPath id="clip0_1929_976">
<rect width="12" height="12" fill="white"/>
</clipPath>
</defs>
</svg>
