<svg xmlns="http://www.w3.org/2000/svg" width="12" height="12" viewBox="0 0 12 12"><path d="M4.625 0h-2.25A.375.375 0 0 0 2 .375v2.25c0 .207.168.375.375.375h2.25A.375.375 0 0 0 5 2.625V.375A.375.375 0 0 0 4.625 0m5 0h-2.25A.375.375 0 0 0 7 .375v2.25c0 .207.168.375.375.375h2.25A.375.375 0 0 0 10 2.625V.375A.375.375 0 0 0 9.625 0m-5 4.5h-2.25A.375.375 0 0 0 2 4.875v2.25c0 .207.168.375.375.375h2.25A.375.375 0 0 0 5 7.125v-2.25a.375.375 0 0 0-.375-.375m5 0h-2.25A.375.375 0 0 0 7 4.875v2.25c0 .207.168.375.375.375h2.25A.375.375 0 0 0 10 7.125v-2.25a.375.375 0 0 0-.375-.375m-5 4.5h-2.25A.375.375 0 0 0 2 9.375v2.25c0 .207.168.375.375.375h2.25A.375.375 0 0 0 5 11.625v-2.25A.375.375 0 0 0 4.625 9m5 0h-2.25A.375.375 0 0 0 7 9.375v2.25c0 .207.168.375.375.375h2.25a.375.375 0 0 0 .375-.375v-2.25A.375.375 0 0 0 9.625 9"/></svg>