<svg xmlns="http://www.w3.org/2000/svg" width="12" height="12" viewBox="0 0 12 12"><g clip-path="url(#a)"><path d="M3.75.75h-3v1.5h3zm0 3h-3v1.5h3zM7.5 12a3.714 3.714 0 0 1-3.75-3.75 3.916 3.916 0 0 1 1.5-3v-3A2.21 2.21 0 0 1 7.5 0a2.21 2.21 0 0 1 2.25 2.25v3a3.8 3.8 0 0 1 1.225 4.44A3.715 3.715 0 0 1 7.5 12m0-10.5a.709.709 0 0 0-.75.75v3.825a2.42 2.42 0 0 0-1.5 2.175A2.21 2.21 0 0 0 7.5 10.5a2.21 2.21 0 0 0 2.25-2.25 2.42 2.42 0 0 0-1.5-2.175V2.25a.709.709 0 0 0-.75-.75"/><path d="M7.5 9a.75.75 0 1 0 0-1.5.75.75 0 0 0 0 1.5"/></g><defs><clipPath id="a"><path fill="#fff" d="M0 0h12v12H0z"/></clipPath></defs></svg>