<svg width="12" height="12" viewBox="0 0 12 12" fill="none" xmlns="http://www.w3.org/2000/svg">
<g clip-path="url(#clip0_1901_921)">
<path d="M3.75 9.75C3.558 9.75 3.366 9.6765 3.21975 9.53025L0.219754 6.53025C-0.0734956 6.237 -0.0734956 5.763 0.219754 5.46975L3.21975 2.46975C3.513 2.1765 3.987 2.1765 4.28025 2.46975C4.5735 2.763 4.5735 3.237 4.28025 3.53025L1.8105 6L4.28025 8.46975C4.5735 8.763 4.5735 9.237 4.28025 9.53025C4.134 9.6765 3.942 9.75 3.75 9.75Z" fill="black"/>
<path d="M8.25 9.75C8.058 9.75 7.866 9.6765 7.71975 9.53025C7.4265 9.237 7.4265 8.763 7.71975 8.46975L10.1895 6L7.71975 3.53025C7.4265 3.237 7.4265 2.763 7.71975 2.46975C8.013 2.1765 8.487 2.1765 8.78025 2.46975L11.7803 5.46975C12.0735 5.763 12.0735 6.237 11.7803 6.53025L8.78025 9.53025C8.634 9.6765 8.44201 9.75 8.25 9.75Z" fill="black"/>
</g>
<defs>
<clipPath id="clip0_1901_921">
<rect width="12" height="12" fill="white"/>
</clipPath>
</defs>
</svg>
