<svg width="12" height="12" viewBox="0 0 12 12" fill="none" xmlns="http://www.w3.org/2000/svg">
<path d="M10.7193 1.29279C10.5318 1.10532 10.2775 1 10.0123 1C9.74715 1 9.49285 1.10532 9.30532 1.29279L6.01232 4.58579L2.71932 1.29279C2.53072 1.11063 2.27811 1.00983 2.01592 1.01211C1.75372 1.01439 1.50291 1.11956 1.3175 1.30497C1.13209 1.49038 1.02692 1.74119 1.02464 2.00339C1.02237 2.26558 1.12316 2.51818 1.30532 2.70679L4.59832 5.99979L1.30532 9.29279C1.20981 9.38503 1.13363 9.49538 1.08122 9.61738C1.02881 9.73939 1.00122 9.87061 1.00007 10.0034C0.998914 10.1362 1.02422 10.2678 1.0745 10.3907C1.12478 10.5136 1.19903 10.6253 1.29292 10.7192C1.38682 10.8131 1.49847 10.8873 1.62136 10.9376C1.74426 10.9879 1.87594 11.0132 2.00872 11.012C2.1415 11.0109 2.27272 10.9833 2.39472 10.9309C2.51673 10.8785 2.62707 10.8023 2.71932 10.7068L6.01232 7.41379L9.30532 10.7068C9.49392 10.8889 9.74652 10.9897 10.0087 10.9875C10.2709 10.9852 10.5217 10.88 10.7071 10.6946C10.8925 10.5092 10.9977 10.2584 11 9.99619C11.0023 9.73399 10.9015 9.48139 10.7193 9.29279L7.42632 5.99979L10.7193 2.70679C10.9068 2.51926 11.0121 2.26495 11.0121 1.99979C11.0121 1.73462 10.9068 1.48031 10.7193 1.29279Z" fill="black"/>
</svg>
