<svg xmlns="http://www.w3.org/2000/svg" width="12" height="12" viewBox="0 0 12 12"><g clip-path="url(#a)"><path d="M6 0C2.7 0 0 2.7 0 6s2.7 6 6 6 6-2.7 6-6-2.7-6-6-6m0 9.75c-.45 0-.75-.3-.75-.75s.3-.75.75-.75.75.3.75.75-.3.75-.75.75M7.125 6.3c-.375.225-.375.3-.375.45v.75h-1.5v-.75c0-.975.6-1.425 1.05-1.725.375-.225.45-.3.45-.525 0-.45-.3-.75-.75-.75-.3 0-.525.15-.675.375L4.95 4.8l-1.275-.75.375-.675A2.24 2.24 0 0 1 6 2.25c1.275 0 2.25.975 2.25 2.25 0 1.05-.675 1.5-1.125 1.8"/></g><defs><clipPath id="a"><path fill="#fff" d="M0 0h12v12H0z"/></clipPath></defs></svg>