<svg width="12" height="12" viewBox="0 0 12 12" fill="none" xmlns="http://www.w3.org/2000/svg">
<g clip-path="url(#clip0_1907_885)">
<path d="M5.99999 11.25C4.9368 11.25 3.89867 10.9271 3.02295 10.3242C2.14724 9.72129 1.47523 8.86669 1.09582 7.8735C0.71641 6.8803 0.647492 5.79532 0.898182 4.7621C1.14887 3.72889 1.70736 2.79613 2.49974 2.08725L3.50024 3.20475C2.9341 3.71103 2.53503 4.37728 2.35585 5.11534C2.17666 5.8534 2.22581 6.62847 2.49679 7.33798C2.76776 8.0475 3.24779 8.65801 3.87334 9.08873C4.4989 9.51944 5.24049 9.75006 5.99999 9.75006C6.75949 9.75006 7.50109 9.51944 8.12664 9.08873C8.7522 8.65801 9.23222 8.0475 9.5032 7.33798C9.77417 6.62847 9.82332 5.8534 9.64413 5.11534C9.46495 4.37728 9.06588 3.71103 8.49974 3.20475L9.49949 2.08725C10.2918 2.79609 10.8503 3.72878 11.101 4.76192C11.3517 5.79507 11.2829 6.87999 10.9035 7.87315C10.5242 8.86631 9.85233 9.72091 8.97674 10.3239C8.10115 10.9269 7.06312 11.2498 5.99999 11.25Z" fill="black"/>
<path d="M6.75 0H5.25V5.25H6.75V0Z" fill="black"/>
</g>
<defs>
<clipPath id="clip0_1907_885">
<rect width="12" height="12" fill="white"/>
</clipPath>
</defs>
</svg>
