<svg xmlns="http://www.w3.org/2000/svg" width="12" height="12" viewBox="0 0 12 12"><g clip-path="url(#a)"><path d="m11.456 7.72-1.64-.469a.75.75 0 0 1-.53-.575l-.1-.506A2.25 2.25 0 0 0 10.5 4.125v-1.03A2.313 2.313 0 0 0 8.319.75a2.25 2.25 0 0 0-1.916.974c.458.593.735 1.33.722 2.138v1.013c0 .371-.071.73-.187 1.071q.177.13.377.224l-.1.505a.75.75 0 0 1-.491.558l.541.155c.8.228 1.36.97 1.36 1.802v1.684c0 .13-.022.255-.053.375h3.053a.375.375 0 0 0 .375-.375V8.44a.75.75 0 0 0-.544-.72"/><path d="M6.956 8.47 5.316 8a.75.75 0 0 1-.53-.576l-.1-.506A2.25 2.25 0 0 0 6 4.875v-1.03A2.313 2.313 0 0 0 3.819 1.5a2.25 2.25 0 0 0-2.318 2.18l-.001.07v1.125c0 .88.515 1.678 1.315 2.045l-.1.505a.75.75 0 0 1-.53.575l-1.641.47A.75.75 0 0 0 0 9.191v1.684c0 .207.168.375.375.375h6.75a.375.375 0 0 0 .375-.375V9.191a.75.75 0 0 0-.544-.721"/></g><defs><clipPath id="a"><path fill="#fff" d="M0 0h12v12H0z"/></clipPath></defs></svg>