<svg width="12" height="12" viewBox="0 0 12 12" fill="none" xmlns="http://www.w3.org/2000/svg">
<g clip-path="url(#clip0_1720_870)">
<path d="M12 6.036C12.0002 4.88931 11.6719 3.76657 11.0538 2.80071C10.4358 1.83485 9.55389 1.06632 8.51259 0.586128C7.47129 0.105935 6.3142 -0.065811 5.17832 0.0912242C4.04244 0.248259 2.97534 0.727499 2.10338 1.4722C1.23142 2.2169 0.591124 3.19587 0.258297 4.29319C-0.07453 5.39051 -0.0859433 6.56022 0.225408 7.66383C0.53676 8.76744 1.15784 9.75871 2.0151 10.5203C2.87236 11.2819 3.9299 11.7818 5.0625 11.961V7.77H3.53925V6.036H5.0625V4.71375C5.0297 4.40509 5.0652 4.09299 5.16647 3.79957C5.26774 3.50615 5.43231 3.23861 5.64852 3.01589C5.86473 2.79317 6.12728 2.62073 6.41756 2.5108C6.70784 2.40086 7.01875 2.35612 7.32825 2.37975C7.77827 2.38566 8.22724 2.42477 8.6715 2.49675V3.975H7.9155C7.78672 3.95816 7.6558 3.97049 7.53243 4.01109C7.40906 4.05168 7.29639 4.1195 7.20278 4.20952C7.10915 4.29953 7.03697 4.40945 6.99158 4.53114C6.94618 4.65282 6.92872 4.78316 6.9405 4.9125V6.0375H8.60475L8.3385 7.7715H6.9375V11.9647C8.34918 11.7414 9.63477 11.0215 10.5629 9.93463C11.491 8.84773 12.0006 7.46523 12 6.036Z" fill="black"/>
</g>
<defs>
<clipPath id="clip0_1720_870">
<rect width="12" height="12" fill="white"/>
</clipPath>
</defs>
</svg>
