<svg xmlns="http://www.w3.org/2000/svg" width="12" height="12" viewBox="0 0 12 12"><g clip-path="url(#a)"><path d="M8.625 3.375C7.2 1.95 4.8 1.95 3.375 3.375c-.525.525-.9 1.275-1.05 2.025l-1.5-.225c.15-1.125.675-2.1 1.425-2.85C4.275.3 7.575.3 9.675 2.325l1.65-1.65.525 4.8-4.8-.525zM.15 6.525l4.8.525-1.575 1.575c1.425 1.425 3.825 1.425 5.25 0 .525-.525.9-1.275 1.05-2.025l1.5.225a4.94 4.94 0 0 1-1.425 2.85c-1.05 1.05-2.325 1.5-3.675 1.5s-2.7-.525-3.675-1.5l-1.65 1.65z"/></g><defs><clipPath id="a"><path fill="#fff" d="M0 0h12v12H0z"/></clipPath></defs></svg>