<svg xmlns="http://www.w3.org/2000/svg" width="12" height="12" viewBox="0 0 12 12"><g clip-path="url(#a)"><path d="M11.231 11.25a4.12 4.12 0 0 1-2.606-.926 4.18 4.18 0 0 1-5.246 0 4.14 4.14 0 0 1-2.62.926H.75a.75.75 0 1 1 0-1.5h.01a2.65 2.65 0 0 0 2.039-.955.75.75 0 0 1 1.15-.002 2.67 2.67 0 0 0 4.1 0 .75.75 0 0 1 1.151.004 2.63 2.63 0 0 0 2.031.953h.019a.75.75 0 1 1 .004 1.5zm0-7.775a4.12 4.12 0 0 1-2.606-.925 4.18 4.18 0 0 1-5.25 0 4.34 4.34 0 0 1-2.625.925.75.75 0 0 1 0-1.5h.01a2.65 2.65 0 0 0 2.039-.955.75.75 0 0 1 1.151-.002 2.66 2.66 0 0 0 1.815.947 2.66 2.66 0 0 0 2.281-.947.75.75 0 0 1 1.155.004 2.63 2.63 0 0 0 2.029.953h.02a.75.75 0 1 1 .004 1.5zm-9.851.276a.25.25 0 0 1 .171.086l1.582 1.846.05.072a.49.49 0 0 1-.05.563L1.551 8.163a.25.25 0 0 1-.353.027l-.36-.31a.25.25 0 0 1-.027-.352L2.118 6 .811 4.473a.25.25 0 0 1 .026-.353l.361-.31a.25.25 0 0 1 .182-.059"/><path d="M5.38 3.751a.25.25 0 0 1 .171.086l1.582 1.846.05.072a.49.49 0 0 1-.05.563L5.551 8.163a.25.25 0 0 1-.353.027l-.36-.31a.25.25 0 0 1-.027-.352L6.118 6 4.811 4.473a.25.25 0 0 1 .026-.353l.361-.31a.25.25 0 0 1 .182-.059m4 0a.25.25 0 0 1 .171.086l1.582 1.846.05.072a.49.49 0 0 1-.05.563L9.551 8.163a.25.25 0 0 1-.353.027l-.36-.31a.25.25 0 0 1-.027-.352L10.118 6 8.811 4.473a.25.25 0 0 1 .026-.353l.361-.31a.25.25 0 0 1 .182-.059"/></g><defs><clipPath id="a"><path fill="#fff" d="M0 0h12v12H0z"/></clipPath></defs></svg>