<svg xmlns="http://www.w3.org/2000/svg" width="12" height="12" viewBox="0 0 12 12"><g clip-path="url(#a)"><path d="M5.911 0C3.171.047.852 2.318.753 5.058a5.244 5.244 0 0 0 2.997 4.93v1.262c0 .414.336.75.75.75h3a.75.75 0 0 0 .75-.75V9.988A5.245 5.245 0 0 0 5.911.001Zm2.281 3.413c-.013.096-.328 2.357-1.38 3.41a2.212 2.212 0 0 1-1.6.677c-.448 0-.838-.128-1.074-.258L4.063 7.2l2.102-2.067-2.355.442c.081-.374.263-.764.626-1.127.964-.965 3.301-1.363 3.4-1.38L8.248 3z"/></g><defs><clipPath id="a"><path fill="#fff" d="M0 0h12v12H0z"/></clipPath></defs></svg>