<svg width="12" height="12" viewBox="0 0 12 12" fill="none" xmlns="http://www.w3.org/2000/svg">
<path d="M6 10.5C6.62132 10.5 7.125 9.99632 7.125 9.375C7.125 8.75368 6.62132 8.25 6 8.25C5.37868 8.25 4.875 8.75368 4.875 9.375C4.875 9.99632 5.37868 10.5 6 10.5Z" fill="black"/>
<path d="M8.625 7.5C7.95 6.75 6.975 6.375 6 6.375C5.025 6.375 4.05 6.75 3.375 7.5L2.325 6.45C3.3 5.4 4.575 4.875 6 4.875C7.425 4.875 8.7 5.4 9.675 6.45L8.625 7.5Z" fill="black"/>
<path d="M6 1.5C3.75 1.5 1.65 2.325 0 3.9L1.05 4.95C2.4 3.675 4.125 3 6 3C7.875 3 9.6 3.675 10.95 5.025L12 3.9C10.35 2.325 8.25 1.5 6 1.5Z" fill="black"/>
</svg>
