<svg width="12" height="12" viewBox="0 0 12 12" fill="none" xmlns="http://www.w3.org/2000/svg">
<g clip-path="url(#clip0_859_893)">
<path d="M3 8.4C3 6.675 6 3.75 6 3.75C6 3.75 9 6.675 9 8.4C9 10.2 7.425 11.25 6 11.25C4.575 11.25 3 10.2 3 8.4Z" fill="black"/>
<path d="M0 3.525C0 2.475 1.65 0.75 1.65 0.75C1.65 0.75 3.3 2.475 3.3 3.525C3.375 4.65 2.475 5.25 1.65 5.25C0.825 5.25 0 4.65 0 3.525Z" fill="black"/>
<path d="M12 3.525C12 2.475 10.35 0.75 10.35 0.75C10.35 0.75 8.7 2.475 8.7 3.525C8.7 4.65 9.6 5.25 10.35 5.25C11.1 5.25 12 4.65 12 3.525Z" fill="black"/>
</g>
<defs>
<clipPath id="clip0_859_893">
<rect width="12" height="12" fill="white"/>
</clipPath>
</defs>
</svg>
