<svg xmlns="http://www.w3.org/2000/svg" width="12" height="12" viewBox="0 0 12 12"><g clip-path="url(#a)"><path d="M6.75 6.025v1.507c2.339.155 3.75.989 3.75 1.468 0 .529-1.709 1.5-4.5 1.5S1.5 9.529 1.5 9c0-.206.267-.48.75-.736v-1.65C.923 7.112 0 7.912 0 9c0 1.97 3.018 3 6 3s6-1.03 6-3c0-1.8-2.533-2.818-5.25-2.975"/><path d="M4.5 9a.75.75 0 0 1-.75-.75V1.138A.75.75 0 0 1 4.795.45L9 2.25 5.25 4.258V8.25A.75.75 0 0 1 4.5 9"/></g><defs><clipPath id="a"><path fill="#fff" d="M0 0h12v12H0z"/></clipPath></defs></svg>