<svg xmlns="http://www.w3.org/2000/svg" width="12" height="12" viewBox="0 0 12 12"><g clip-path="url(#a)"><path d="M6 12A6 6 0 1 1 6 0a.75.75 0 1 1 0 1.5A4.5 4.5 0 1 0 10.5 6 .75.75 0 1 1 12 6a6.007 6.007 0 0 1-6 6"/><path d="M6 9a.75.75 0 0 1 0-1.5A1.5 1.5 0 1 0 4.5 6 .75.75 0 0 1 3 6a3 3 0 1 1 3 3m4.744-4.5a.75.75 0 0 1-.675-.428 4.53 4.53 0 0 0-2.14-2.138.75.75 0 0 1 .64-1.357 6.03 6.03 0 0 1 2.85 2.85.75.75 0 0 1-.675 1.073"/></g><defs><clipPath id="a"><path fill="#fff" d="M0 0h12v12H0z"/></clipPath></defs></svg>