<svg width="12" height="12" viewBox="0 0 12 12" fill="none" xmlns="http://www.w3.org/2000/svg">
<g clip-path="url(#clip0_1013_691)">
<path d="M6.1065 5.63025C6.0705 5.6295 6.036 5.625 6 5.625C4.575 5.625 3.3 6.15 2.325 7.2L3.375 8.25C3.9735 7.5855 4.809 7.23225 5.67 7.15725L6.1065 5.63025Z" fill="black"/>
<path d="M7.5975 5.87025L7.17975 7.332C7.72275 7.5135 8.22825 7.809 8.625 8.25L9.675 7.2C9.0825 6.56175 8.37825 6.12075 7.5975 5.87025Z" fill="black"/>
<path d="M6.636 3.77925L7.05375 2.31975C6.7065 2.27775 6.35625 2.25 6 2.25C3.75 2.25 1.65 3.075 0 4.65L1.05 5.7C2.4 4.425 4.125 3.75 6 3.75C6.2145 3.75 6.426 3.76125 6.636 3.77925Z" fill="black"/>
<path d="M8.526 2.61975L8.1135 4.06275C9.1635 4.38375 10.1265 4.95225 10.9492 5.775L12 4.65C10.9882 3.68475 9.807 3.00375 8.526 2.61975Z" fill="black"/>
<path d="M4.50073 12C4.43173 12 4.36273 11.9903 4.29448 11.9708C3.89623 11.8568 3.66523 11.442 3.77848 11.0438L6.77848 0.543752C6.89248 0.144752 7.31173 -0.0854982 7.70548 0.0285018C8.10373 0.142502 8.33473 0.557252 8.22148 0.955502L5.22148 11.4555C5.12698 11.7855 4.82698 12 4.50073 12Z" fill="black"/>
</g>
<defs>
<clipPath id="clip0_1013_691">
<rect width="12" height="12" fill="white"/>
</clipPath>
</defs>
</svg>
