<svg width="12" height="12" viewBox="0 0 12 12" fill="none" xmlns="http://www.w3.org/2000/svg">
<g clip-path="url(#clip0_933_679)">
<path d="M5.99999 0C5.10848 0.000736692 4.22834 0.200131 3.42356 0.583686C2.61877 0.967241 1.90958 1.52532 1.34753 2.21734C0.785488 2.90936 0.384717 3.71793 0.174361 4.58426C-0.0359956 5.4506 -0.0506511 6.35292 0.13146 7.22563C0.313571 8.09834 0.687871 8.91951 1.22715 9.62941C1.76642 10.3393 2.45712 10.9201 3.24902 11.3296C4.04092 11.7391 4.91412 11.967 5.80514 11.9967C6.69615 12.0264 7.58258 11.8571 8.39999 11.5012L9.08698 11.2012L8.48699 9.8265L7.79998 10.1265C6.91194 10.5141 5.92252 10.6047 4.97886 10.3848C4.0352 10.1649 3.18771 9.64635 2.56243 8.90617C1.93714 8.166 1.56746 7.24378 1.50836 6.27665C1.44927 5.30952 1.70391 4.34914 2.23442 3.53834C2.76493 2.72754 3.54297 2.10963 4.45284 1.7765C5.36271 1.44338 6.3558 1.41282 7.28443 1.68939C8.21305 1.96595 9.02761 2.53486 9.60696 3.31151C10.1863 4.08816 10.4995 5.03106 10.5 6V6.75C10.5 6.94891 10.421 7.13968 10.2803 7.28033C10.1397 7.42098 9.9489 7.5 9.74998 7.5C9.55107 7.5 9.36031 7.42098 9.21966 7.28033C9.079 7.13968 8.99998 6.94891 8.99998 6.75V6C9.00567 5.30386 8.77105 4.62707 8.33572 4.08382C7.90039 3.54056 7.29098 3.1641 6.61034 3.01795C5.92969 2.87181 5.21946 2.96492 4.59949 3.28157C3.97952 3.59823 3.48775 4.11905 3.20716 4.75616C2.92657 5.39327 2.87433 6.10767 3.05927 6.77882C3.2442 7.44997 3.65498 8.03678 4.2223 8.44025C4.78962 8.84372 5.47875 9.03915 6.17342 8.99356C6.86808 8.94797 7.52576 8.66415 8.03549 8.19C8.33022 8.54533 8.72754 8.80092 9.17309 8.92182C9.61864 9.04272 10.0907 9.02301 10.5246 8.8654C10.9585 8.70779 11.3331 8.41997 11.5972 8.04132C11.8613 7.66266 12.002 7.21165 12 6.75V6C11.9982 4.40925 11.3655 2.88416 10.2407 1.75933C9.11582 0.634501 7.59074 0.00178658 5.99999 0V0ZM5.99999 7.5C5.70331 7.5 5.4133 7.41203 5.16663 7.2472C4.91996 7.08238 4.7277 6.84811 4.61417 6.57402C4.50063 6.29994 4.47093 5.99834 4.52881 5.70736C4.58669 5.41639 4.72955 5.14912 4.93932 4.93934C5.1491 4.72956 5.41638 4.5867 5.70735 4.52882C5.99832 4.47094 6.29992 4.50065 6.57401 4.61418C6.8481 4.72771 7.08237 4.91997 7.24719 5.16664C7.41201 5.41332 7.49999 5.70333 7.49999 6C7.49999 6.39782 7.34195 6.77935 7.06065 7.06066C6.77934 7.34196 6.39781 7.5 5.99999 7.5Z" fill="black"/>
</g>
<defs>
<clipPath id="clip0_933_679">
<rect width="12" height="12" fill="white"/>
</clipPath>
</defs>
</svg>
