<svg xmlns="http://www.w3.org/2000/svg" width="12" height="12" viewBox="0 0 12 12"><g clip-path="url(#a)"><path d="M6.107 5.63c-.037 0-.071-.005-.107-.005-1.425 0-2.7.525-3.675 1.575l1.05 1.05c.599-.665 1.434-1.018 2.295-1.093zm1.491.24L7.18 7.332a3.34 3.34 0 0 1 1.445.918l1.05-1.05a4.8 4.8 0 0 0-2.078-1.33m-.961-2.09.418-1.46A8.58 8.58 0 0 0 0 4.65L1.05 5.7C2.4 4.425 4.125 3.75 6 3.75q.322 0 .636.03m1.89-1.16-.412 1.443c1.05.32 2.012.89 2.835 1.712L12 4.65a8.6 8.6 0 0 0-3.474-2.03"/><path d="M4.5 12a.75.75 0 0 1-.722-.956l3-10.5a.751.751 0 0 1 1.444.412l-3 10.5A.75.75 0 0 1 4.5 12"/></g><defs><clipPath id="a"><path fill="#fff" d="M0 0h12v12H0z"/></clipPath></defs></svg>