<svg width="12" height="12" viewBox="0 0 12 12" fill="none" xmlns="http://www.w3.org/2000/svg">
<g clip-path="url(#clip0_837_998)">
<path d="M6 12C4.4087 12 2.88258 11.3679 1.75736 10.2426C0.632141 9.11742 0 7.5913 0 6C0 4.4087 0.632141 2.88258 1.75736 1.75736C2.88258 0.632141 4.4087 0 6 0C6.19891 0 6.38968 0.0790176 6.53033 0.21967C6.67098 0.360322 6.75 0.551088 6.75 0.75C6.75 0.948912 6.67098 1.13968 6.53033 1.28033C6.38968 1.42098 6.19891 1.5 6 1.5C5.10998 1.5 4.23996 1.76392 3.49993 2.25839C2.75991 2.75285 2.18314 3.45566 1.84254 4.27792C1.50195 5.10019 1.41283 6.00499 1.58647 6.87791C1.7601 7.75082 2.18868 8.55264 2.81802 9.18198C3.44736 9.81132 4.24918 10.2399 5.12209 10.4135C5.99501 10.5872 6.89981 10.4981 7.72208 10.1575C8.54434 9.81686 9.24715 9.24009 9.74161 8.50007C10.2361 7.76005 10.5 6.89002 10.5 6C10.5 5.80109 10.579 5.61032 10.7197 5.46967C10.8603 5.32902 11.0511 5.25 11.25 5.25C11.4489 5.25 11.6397 5.32902 11.7803 5.46967C11.921 5.61032 12 5.80109 12 6C11.9982 7.59075 11.3655 9.11584 10.2407 10.2407C9.11584 11.3655 7.59075 11.9982 6 12Z" fill="black"/>
<path d="M6 9C5.80109 9 5.61032 8.92098 5.46967 8.78033C5.32902 8.63968 5.25 8.44891 5.25 8.25C5.25 8.05109 5.32902 7.86032 5.46967 7.71967C5.61032 7.57902 5.80109 7.5 6 7.5C6.29667 7.5 6.58668 7.41203 6.83336 7.2472C7.08003 7.08238 7.27229 6.84811 7.38582 6.57403C7.49935 6.29994 7.52906 5.99834 7.47118 5.70736C7.4133 5.41639 7.27044 5.14912 7.06066 4.93934C6.85088 4.72956 6.58361 4.5867 6.29264 4.52882C6.00166 4.47094 5.70006 4.50065 5.42597 4.61418C5.15189 4.72771 4.91762 4.91997 4.7528 5.16665C4.58797 5.41332 4.5 5.70333 4.5 6C4.5 6.19891 4.42098 6.38968 4.28033 6.53033C4.13968 6.67098 3.94891 6.75 3.75 6.75C3.55109 6.75 3.36032 6.67098 3.21967 6.53033C3.07902 6.38968 3 6.19891 3 6C3 5.40666 3.17595 4.82664 3.50559 4.33329C3.83524 3.83994 4.30377 3.45542 4.85195 3.22836C5.40013 3.0013 6.00333 2.94189 6.58527 3.05764C7.16721 3.1734 7.70176 3.45912 8.12132 3.87868C8.54088 4.29824 8.8266 4.83279 8.94236 5.41473C9.05811 5.99667 8.9987 6.59987 8.77164 7.14805C8.54458 7.69623 8.16006 8.16476 7.66671 8.49441C7.17336 8.82405 6.59334 9 6 9Z" fill="black"/>
<path d="M10.7438 4.5C10.6024 4.4996 10.464 4.45926 10.3446 4.38362C10.2252 4.30798 10.1295 4.20013 10.0688 4.0725C9.62169 3.13529 8.86593 2.38032 7.92825 1.93425C7.83912 1.89219 7.75914 1.83299 7.69288 1.76003C7.62663 1.68706 7.57539 1.60176 7.5421 1.509C7.50881 1.41623 7.49412 1.31782 7.49886 1.21937C7.50361 1.12093 7.5277 1.02438 7.56975 0.93525C7.61181 0.846115 7.67101 0.766137 7.74397 0.699881C7.81694 0.633626 7.90224 0.58239 7.995 0.5491C8.08777 0.51581 8.18618 0.501118 8.28463 0.505862C8.38307 0.510606 8.47962 0.534694 8.56875 0.57675C9.81767 1.17153 10.824 2.17783 11.4188 3.42675C11.4731 3.54091 11.4978 3.66696 11.4903 3.79319C11.4829 3.91942 11.4437 4.04173 11.3764 4.14875C11.309 4.25576 11.2157 4.34401 11.1051 4.40529C10.9945 4.46657 10.8702 4.49964 10.7438 4.5Z" fill="black"/>
</g>
<defs>
<clipPath id="clip0_837_998">
<rect width="12" height="12" fill="white"/>
</clipPath>
</defs>
</svg>
