<svg xmlns="http://www.w3.org/2000/svg" width="12" height="12" viewBox="0 0 12 12"><g clip-path="url(#a)"><path d="M11.666 1.626a.75.75 0 0 0-1.04.208l-3.992 5.99-.628-.628-.848 1.274L6.22 9.534a.75.75 0 0 0 .53.217c.025 0 .049 0 .075-.004a.75.75 0 0 0 .55-.33l4.5-6.75a.75.75 0 0 0-.209-1.04M3 9.75a.75.75 0 0 1-.53-.22L.22 7.28a.75.75 0 1 1 1.06-1.06l1.604 1.603 3.992-5.99a.75.75 0 0 1 1.248.833l-4.5 6.75a.75.75 0 0 1-.549.334z"/></g><defs><clipPath id="a"><path fill="#fff" d="M0 0h12v12H0z"/></clipPath></defs></svg>