<svg width="12" height="12" viewBox="0 0 12 12" fill="none" xmlns="http://www.w3.org/2000/svg">
<g clip-path="url(#clip0_1720_848)">
<path fill-rule="evenodd" clip-rule="evenodd" d="M6 0.150002C2.7 0.150002 0 2.85 0 6.15C0 8.775 1.725 11.025 4.125 11.85C4.425 11.925 4.5 11.7 4.5 11.55C4.5 11.4 4.5 11.025 4.5 10.5C2.85 10.875 2.475 9.75 2.475 9.75C2.175 9.075 1.8 8.85 1.8 8.85C1.275 8.475 1.875 8.475 1.875 8.475C2.475 8.55 2.775 9.075 2.775 9.075C3.3 10.05 4.2 9.75 4.5 9.6C4.575 9.225 4.725 8.925 4.875 8.775C3.525 8.625 2.175 8.1 2.175 5.775C2.175 5.1 2.4 4.575 2.775 4.2C2.7 4.05 2.475 3.45 2.85 2.625C2.85 2.625 3.375 2.475 4.5 3.225C4.95 3.075 5.475 3 6 3C6.525 3 7.05 3.075 7.5 3.225C8.625 2.475 9.15 2.625 9.15 2.625C9.45 3.45 9.3 4.05 9.225 4.2C9.6 4.65 9.825 5.175 9.825 5.775C9.825 8.1 8.4 8.55 7.05 8.7C7.275 9 7.5 9.375 7.5 9.9C7.5 10.725 7.5 11.325 7.5 11.55C7.5 11.7 7.575 11.925 7.95 11.85C10.35 11.025 12.075 8.775 12.075 6.15C12 2.85 9.3 0.150002 6 0.150002Z" fill="black"/>
</g>
<defs>
<clipPath id="clip0_1720_848">
<rect width="12" height="12" fill="white"/>
</clipPath>
</defs>
</svg>
