<svg width="12" height="12" viewBox="0 0 12 12" fill="none" xmlns="http://www.w3.org/2000/svg">
<g clip-path="url(#clip0_830_734)">
<path d="M6 0C2.7 0 0 2.7 0 6C0 9.3 2.7 12 6 12C9.3 12 12 9.3 12 6C12 2.7 9.3 0 6 0ZM3 6.75H1.5V5.25H3V6.75ZM6.75 10.5H5.25V9H6.75V10.5ZM6 7.5C5.175 7.5 4.5 6.825 4.5 6C4.5 5.7 4.575 5.4 4.725 5.175L3.525 2.7L4.875 2.025L6.075 4.5C6.825 4.575 7.5 5.175 7.5 6C7.5 6.825 6.825 7.5 6 7.5ZM10.5 6.75H9V5.25H10.5V6.75Z" fill="black"/>
</g>
<defs>
<clipPath id="clip0_830_734">
<rect width="12" height="12" fill="white"/>
</clipPath>
</defs>
</svg>
