<svg width="12" height="12" viewBox="0 0 12 12" fill="none" xmlns="http://www.w3.org/2000/svg">
<g clip-path="url(#clip0_810_724)">
<path d="M0.75 9.75H11.25C11.664 9.75 12 10.086 12 10.5C12 10.914 11.664 11.25 11.25 11.25H0.75C0.336 11.25 0 10.914 0 10.5C0 10.086 0.336 9.75 0.75 9.75Z" fill="black"/>
<path d="M9.75 6.75H2.25C1.836 6.75 1.5 7.086 1.5 7.5C1.5 7.914 1.836 8.25 2.25 8.25H9.75C10.164 8.25 10.5 7.914 10.5 7.5C10.5 7.086 10.164 6.75 9.75 6.75Z" fill="black"/>
<path d="M3.75 3.75H8.25C8.664 3.75 9 4.086 9 4.5C9 4.914 8.664 5.25 8.25 5.25H3.75C3.336 5.25 3 4.914 3 4.5C3 4.086 3.336 3.75 3.75 3.75Z" fill="black"/>
<path d="M5.25 0.75H6.75C7.164 0.75 7.5 1.086 7.5 1.5C7.5 1.914 7.164 2.25 6.75 2.25H5.25C4.836 2.25 4.5 1.914 4.5 1.5C4.5 1.086 4.836 0.75 5.25 0.75Z" fill="black"/>
</g>
<defs>
<clipPath id="clip0_810_724">
<rect width="12" height="12" fill="white"/>
</clipPath>
</defs>
</svg>
