<svg xmlns="http://www.w3.org/2000/svg" width="12" height="12" viewBox="0 0 12 12"><g clip-path="url(#a)"><path d="M7.417 10.667A1.92 1.92 0 0 1 5.5 8.75v-5.5a.918.918 0 0 0-1.833 0v1.583a1.835 1.835 0 0 1-1.834 1.834H1.5a.5.5 0 0 1 0-1h.333c.46 0 .834-.374.834-.834V3.25a1.92 1.92 0 0 1 1.916-1.917A1.92 1.92 0 0 1 6.5 3.25v5.5a.918.918 0 0 0 1.833 0V7.167c0-1.012.822-1.834 1.834-1.834h.333a.5.5 0 0 1 0 1h-.333a.835.835 0 0 0-.834.834V8.75a1.92 1.92 0 0 1-1.916 1.917"/><path d="M5 8.75v-5.5a.42.42 0 0 0-.417-.417.42.42 0 0 0-.416.417v1.583a2.335 2.335 0 0 1-2.334 2.333H1.5a1 1 0 0 1 0-2h.333c.183 0 .334-.15.334-.333V3.25A2.42 2.42 0 0 1 4.583.833 2.42 2.42 0 0 1 7 3.25v5.5a.417.417 0 0 0 .833 0V7.166a2.335 2.335 0 0 1 2.334-2.333h.333a1 1 0 0 1 0 2h-.333a.335.335 0 0 0-.334.333V8.75a2.42 2.42 0 0 1-2.416 2.416A2.42 2.42 0 0 1 5 8.75"/></g><defs><clipPath id="a"><path fill="#fff" d="M0 0h12v12H0z"/></clipPath></defs></svg>