<svg xmlns="http://www.w3.org/2000/svg" width="12" height="12" viewBox="0 0 12 12"><g clip-path="url(#a)"><path d="M11.995 5.645c-.69.784-2.082 1.701-3.123 1.78a3.996 3.996 0 0 1-4.279-3.594c-.102-1.04.63-2.511 1.284-3.326C2.634.561 0 2.785 0 5.5c0 2.75 2.7 5 6 5q.758 0 1.5-.15l2.8 1.1c.05 0 .1.05.2.05a.7.7 0 0 0 .3-.1.54.54 0 0 0 .2-.45l-.25-2.35a4.6 4.6 0 0 0 1.245-2.955m-1.12-3.395a.28.28 0 0 1-.281-.281.563.563 0 0 0-.563-.563.281.281 0 0 1 0-.562.563.563 0 0 0 .563-.563.281.281 0 1 1 .562 0 .563.563 0 0 0 .563.563.281.281 0 0 1 0 .562.563.563 0 0 0-.563.563.28.28 0 0 1-.281.281"/><path d="M8.25 6a.375.375 0 0 1-.375-.375 1.5 1.5 0 0 0-1.5-1.5.375.375 0 1 1 0-.75 1.5 1.5 0 0 0 1.5-1.5.375.375 0 1 1 .75 0 1.5 1.5 0 0 0 1.5 1.5.375.375 0 0 1 0 .75 1.5 1.5 0 0 0-1.5 1.5A.375.375 0 0 1 8.25 6"/></g><defs><clipPath id="a"><path fill="#fff" d="M0 0h12v12H0z"/></clipPath></defs></svg>