<svg width="12" height="12" viewBox="0 0 12 12" fill="none" xmlns="http://www.w3.org/2000/svg">
<g clip-path="url(#clip0_1112_719)">
<path d="M6.00001 6C7.65687 6 9.00001 4.65685 9.00001 3C9.00001 1.34315 7.65687 0 6.00001 0C4.34316 0 3.00001 1.34315 3.00001 3C3.00001 4.65685 4.34316 6 6.00001 6Z" fill="black"/>
<path d="M12 9.9C12.0013 9.61289 11.9196 9.33152 11.7649 9.08966C11.6102 8.8478 11.389 8.65573 11.1278 8.5365C9.51084 7.83291 7.76327 7.47967 6.00001 7.5C4.23676 7.47967 2.48919 7.83291 0.872264 8.5365C0.611078 8.65573 0.389849 8.8478 0.235128 9.08966C0.0804081 9.33152 -0.00122951 9.61289 1.3997e-05 9.9V12H12V9.9Z" fill="black"/>
</g>
<defs>
<clipPath id="clip0_1112_719">
<rect width="12" height="12" fill="white"/>
</clipPath>
</defs>
</svg>
