<svg width="12" height="12" viewBox="0 0 12 12" fill="none" xmlns="http://www.w3.org/2000/svg">
<g clip-path="url(#clip0_659_4649)">
<path d="M11.5721 3.98043L8.03214 3.46643L6.44814 0.258434C6.40226 0.179792 6.33657 0.114549 6.25761 0.0692047C6.17865 0.0238608 6.08919 0 5.99815 0C5.9071 0 5.81764 0.0238608 5.73868 0.0692047C5.65972 0.114549 5.59403 0.179792 5.54814 0.258434L3.96814 3.46643L0.428145 3.98043C0.335795 3.99384 0.249041 4.03283 0.177698 4.09299C0.106354 4.15314 0.0532684 4.23206 0.0244461 4.32081C-0.00437615 4.40957 -0.0077847 4.50462 0.0146061 4.59521C0.0369969 4.68581 0.0842934 4.76832 0.151145 4.83343L2.71315 7.33343L2.10715 10.8594C2.09132 10.9515 2.10158 11.0461 2.13676 11.1326C2.17194 11.219 2.23063 11.2939 2.30619 11.3488C2.38175 11.4036 2.47116 11.4362 2.56429 11.4429C2.65742 11.4495 2.75056 11.43 2.83314 11.3864L6.00014 9.71843L9.16714 11.3834C9.23856 11.4214 9.31828 11.4409 9.39915 11.4404C9.47201 11.4406 9.54403 11.4248 9.61016 11.3942C9.67629 11.3637 9.73494 11.319 9.78199 11.2633C9.82905 11.2077 9.86338 11.1425 9.88258 11.0722C9.90178 11.0019 9.90539 10.9283 9.89314 10.8564L9.28714 7.33043L11.8491 4.83043C11.916 4.76532 11.9633 4.68281 11.9857 4.59221C12.0081 4.50162 12.0047 4.40657 11.9758 4.31781C11.947 4.22906 11.8939 4.15014 11.8226 4.08999C11.7512 4.02983 11.6645 3.99084 11.5721 3.97743V3.98043Z" fill="black"/>
</g>
<defs>
<clipPath id="clip0_659_4649">
<rect width="12" height="12" fill="white"/>
</clipPath>
</defs>
</svg>
