<svg width="12" height="12" viewBox="0 0 12 12" xmlns="http://www.w3.org/2000/svg"><g clip-path="url(#a)"><path d="M2.625 9H.375A.375.375 0 0 0 0 9.375v2.25c0 .207.168.375.375.375h2.25A.375.375 0 0 0 3 11.625v-2.25A.375.375 0 0 0 2.625 9Zm4.5-3.75h-2.25a.375.375 0 0 0-.375.375v6c0 .207.168.375.375.375h2.25a.375.375 0 0 0 .375-.375v-6a.375.375 0 0 0-.375-.375Zm4.5 3h-2.25A.375.375 0 0 0 9 8.625v3c0 .207.168.375.375.375h2.25a.375.375 0 0 0 .375-.375v-3a.375.375 0 0 0-.375-.375Z"/><path d="M5.297 2.818a1.446 1.446 0 0 0 1.406 0L9.075 4.8a1.519 1.519 0 1 0 .722-.868L7.425 1.95c.048-.145.073-.297.075-.45a1.5 1.5 0 1 0-3 0c.002.153.027.305.075.45L2.203 3.932A1.484 1.484 0 0 0 1.5 3.75 1.5 1.5 0 1 0 3 5.25a1.483 1.483 0 0 0-.075-.45l2.372-1.982Z"/></g><defs><clipPath id="a"><path fill="#fff" d="M0 0h12v12H0z"/></clipPath></defs></svg>