<svg width="12" height="12" viewBox="0 0 12 12" xmlns="http://www.w3.org/2000/svg"><g clip-path="url(#a)"><path fill-rule="evenodd" clip-rule="evenodd" d="M6.75 0h-1.5v1.5h1.5V0Zm3.97 2.289L9.66 1.228 8.6 2.288l1.06 1.061 1.06-1.06ZM10.5 5.25H12v1.5h-1.5v-1.5ZM8.651 9.765l1.062 1.06 1.06-1.061-1.061-1.06-1.06 1.06ZM5.25 12v-1.5h1.5V12h-1.5ZM1.175 9.711l1.06 1.062 1.061-1.06-1.06-1.062-1.061 1.06ZM0 5.25h1.5v1.5H0v-1.5Zm3.348-2.91-1.06-1.06-1.062 1.06L2.287 3.4l1.06-1.06ZM3 6c0-1.65 1.35-3 3-3s3 1.35 3 3-1.35 3-3 3-3-1.35-3-3Z"/></g><defs><clipPath id="a"><path fill="#fff" d="M0 0h12v12H0z"/></clipPath></defs></svg>