<svg width="12" height="12" viewBox="0 0 12 12" fill="none" xmlns="http://www.w3.org/2000/svg">
<g clip-path="url(#clip0_848_701)">
<path d="M3.75 0.75H0.75V2.25H3.75V0.75Z" fill="black"/>
<path d="M3.75 3.75H0.75V5.25H3.75V3.75Z" fill="black"/>
<path d="M7.5 12C7.00618 12.0049 6.51634 11.9113 6.05915 11.7246C5.60196 11.5379 5.18661 11.2618 4.8374 10.9126C4.4882 10.5634 4.21216 10.1481 4.02545 9.69087C3.83873 9.23368 3.74509 8.74383 3.75 8.25001C3.76221 7.67008 3.90312 7.1001 4.16253 6.58128C4.42194 6.06245 4.79338 5.60774 5.25 5.25001V2.25001C5.24451 1.95303 5.29895 1.65798 5.41008 1.38252C5.5212 1.10705 5.68673 0.856818 5.89677 0.646781C6.10681 0.436745 6.35704 0.271215 6.6325 0.160087C6.90797 0.0489598 7.20302 -0.00548351 7.5 1.19958e-05C7.79699 -0.00548351 8.09203 0.0489598 8.3675 0.160087C8.64296 0.271215 8.8932 0.436745 9.10323 0.646781C9.31327 0.856818 9.4788 1.10705 9.58993 1.38252C9.70105 1.65798 9.7555 1.95303 9.75 2.25001V5.25001C10.2128 5.60201 10.5888 6.05551 10.8488 6.57561C11.1089 7.09571 11.2461 7.66854 11.25 8.25001C11.2549 8.74383 11.1613 9.23368 10.9746 9.69087C10.7878 10.1481 10.5118 10.5634 10.1626 10.9126C9.8134 11.2618 9.39804 11.5379 8.94086 11.7246C8.48367 11.9113 7.99382 12.0049 7.5 12ZM7.5 1.50001C7.39994 1.494 7.29974 1.50928 7.20602 1.54484C7.1123 1.5804 7.02719 1.63544 6.95631 1.70632C6.88543 1.7772 6.83039 1.86231 6.79483 1.95603C6.75926 2.04975 6.74399 2.14995 6.75 2.25001V6.07501C6.3161 6.2532 5.94333 6.55363 5.67703 6.93977C5.41073 7.32591 5.26237 7.78111 5.25 8.25001C5.24451 8.547 5.29895 8.84204 5.41008 9.11751C5.5212 9.39298 5.68673 9.64321 5.89677 9.85324C6.10681 10.0633 6.35704 10.2288 6.6325 10.3399C6.90797 10.4511 7.20302 10.5055 7.5 10.5C7.79699 10.5055 8.09203 10.4511 8.3675 10.3399C8.64296 10.2288 8.8932 10.0633 9.10323 9.85324C9.31327 9.64321 9.4788 9.39298 9.58993 9.11751C9.70105 8.84204 9.7555 8.547 9.75 8.25001C9.73763 7.78111 9.58928 7.32591 9.32297 6.93977C9.05667 6.55363 8.6839 6.2532 8.25 6.07501V2.25001C8.25602 2.14995 8.24074 2.04975 8.20517 1.95603C8.16961 1.86231 8.11457 1.7772 8.04369 1.70632C7.97281 1.63544 7.8877 1.5804 7.79398 1.54484C7.70026 1.50928 7.60006 1.494 7.5 1.50001Z" fill="black"/>
<path d="M7.5 9C7.91421 9 8.25 8.66421 8.25 8.25C8.25 7.83579 7.91421 7.5 7.5 7.5C7.08579 7.5 6.75 7.83579 6.75 8.25C6.75 8.66421 7.08579 9 7.5 9Z" fill="black"/>
</g>
<defs>
<clipPath id="clip0_848_701">
<rect width="12" height="12" fill="white"/>
</clipPath>
</defs>
</svg>
