<svg width="13" height="12" viewBox="0 0 13 12" xmlns="http://www.w3.org/2000/svg"><g clip-path="url(#a)"><path d="M3.769.75H.754v1.5h3.015V.75Zm0 3H.754v1.5h3.015v-1.5ZM7.538 12a3.749 3.749 0 0 1-2.676-1.087A3.712 3.712 0 0 1 3.769 8.25a3.9 3.9 0 0 1 1.507-3v-3a2.2 2.2 0 0 1 .65-1.603A2.222 2.222 0 0 1 7.538 0a2.23 2.23 0 0 1 1.611.647 2.209 2.209 0 0 1 .65 1.603v3a3.806 3.806 0 0 1 1.508 3 3.699 3.699 0 0 1-1.093 2.663A3.733 3.733 0 0 1 7.538 12Zm0-10.5a.716.716 0 0 0-.709.456.705.705 0 0 0-.045.294v3.825a2.43 2.43 0 0 0-1.078.865 2.412 2.412 0 0 0-.43 1.31 2.2 2.2 0 0 0 .65 1.603 2.22 2.22 0 0 0 1.612.647 2.23 2.23 0 0 0 1.611-.647 2.208 2.208 0 0 0 .65-1.603 2.412 2.412 0 0 0-.43-1.31 2.43 2.43 0 0 0-1.078-.865V2.25a.705.705 0 0 0-.458-.705.716.716 0 0 0-.295-.045Z"/><path d="M7.538 9a.752.752 0 0 0 .753-.75.752.752 0 0 0-.753-.75.752.752 0 0 0-.754.75c0 .414.337.75.754.75Z"/></g><defs><clipPath id="a"><path fill="#fff" d="M0 0h12.06v12H0z"/></clipPath></defs></svg>