<svg width="16" height="16" viewBox="0 0 16 16" fill="none" xmlns="http://www.w3.org/2000/svg">
<g clip-path="url(#clip0_659_4575)">
<path fill-rule="evenodd" clip-rule="evenodd" d="M15.0399 1.52059C15.3274 1.22242 15.3188 0.747625 15.0206 0.460105C14.7224 0.172585 14.2476 0.181217 13.9601 0.479386L12.2183 2.28571L1.99997 2.28571C0.8954 2.28571 -3.10301e-05 3.18115 -3.12232e-05 4.28572L-3.25221e-05 11.7143C-3.11354e-05 12.578 0.547414 13.3138 1.31423 13.5936L0.460111 14.4794C0.17259 14.7776 0.181223 15.2524 0.479392 15.5399C0.777561 15.8274 1.25236 15.8188 1.53988 15.5206L15.0399 1.52059ZM2.87326 11.9769L2.37897 12.4895L1.14281 12.4895L3.80431 3.88256L5.64063 3.88256L6.85985 7.84262L4.51313 10.2763L3.35104 10.2763L2.87326 11.9769ZM7.6388 10.3727L9.16799 8.78684L9.16799 9.63941C9.16799 11.4743 10.0745 12.5714 11.4692 12.5714C12.3641 12.5714 13.0847 12.0985 13.2765 11.4175L13.352 11.4175L13.352 12.4895L14.8571 12.4895L14.8571 3.42857L14.3349 3.42857L15.1117 2.62295C15.6474 2.98179 16 3.59258 16 4.28571L16 11.7143C16 12.8189 15.1045 13.7143 14 13.7143L4.41653 13.7143L6.39143 11.6662L6.62271 12.4895L8.29051 12.4895L7.6388 10.3727ZM13.323 6.81458L13.323 4.47799L12.0669 5.7806C12.6436 5.92668 13.0716 6.29553 13.2532 6.81458L13.323 6.81458ZM13.323 8.66837C13.323 7.66581 12.7651 7.03527 11.998 7.03527C11.2251 7.03527 10.737 7.67212 10.737 8.8134L10.737 9.46286C10.737 10.6104 11.2309 11.2536 12.0213 11.2536C12.8 11.2536 13.323 10.6231 13.323 9.53221L13.323 8.66837ZM5.68712 9.00887L4.71666 5.52827L4.64692 5.52827L3.67646 9.00887L5.68712 9.00887Z" fill="black"/>
</g>
<defs>
<clipPath id="clip0_659_4575">
<rect width="16" height="16" fill="white"/>
</clipPath>
</defs>
</svg>
