<svg width="16" height="16" viewBox="0 0 16 16" fill="none" xmlns="http://www.w3.org/2000/svg">
<g clip-path="url(#clip0_659_4612)">
<path fill-rule="evenodd" clip-rule="evenodd" d="M9 6.00002H14C14.2954 5.99709 14.5875 6.06177 14.8541 6.18909C15.1206 6.31642 15.3545 6.50302 15.5379 6.73462C15.7212 6.96623 15.8492 7.2367 15.9119 7.52535C15.9747 7.814 15.9706 8.11319 15.9 8.40002L14.9 13.6C14.7796 14.2789 14.4219 14.893 13.8907 15.3326C13.3595 15.7722 12.6894 16.0087 12 16H4V7.00002L7 1.81003e-05C7.26683 -0.0160212 7.53402 0.0247222 7.78394 0.119558C8.03386 0.214394 8.26082 0.361165 8.44984 0.550181C8.63885 0.739197 8.78562 0.966157 8.88046 1.21608C8.9753 1.466 9.01604 1.73319 9 2.00002V6.00002ZM0.999994 7.00001H1.99999V16H0.999994C0.86658 16.008 0.732983 15.9877 0.608023 15.9402C0.483063 15.8928 0.369583 15.8194 0.275075 15.7249C0.180567 15.6304 0.107182 15.5169 0.0597638 15.392C0.0123458 15.267 -0.00802585 15.1334 -6.20866e-06 15V8.00001C-0.00802585 7.8666 0.0123458 7.733 0.0597638 7.60804C0.107182 7.48308 0.180567 7.3696 0.275075 7.27509C0.369583 7.18058 0.483063 7.1072 0.608023 7.05978C0.732983 7.01236 0.86658 6.99199 0.999994 7.00001Z" fill="black"/>
</g>
<defs>
<clipPath id="clip0_659_4612">
<rect width="16" height="16" fill="white"/>
</clipPath>
</defs>
</svg>
