<svg width="12" height="12" viewBox="0 0 12 12" xmlns="http://www.w3.org/2000/svg"><path d="M12 2.25c-.45.225-.9.3-1.425.375.525-.3.9-.75 1.05-1.35-.45.3-.975.45-1.575.6a2.619 2.619 0 0 0-1.8-.75c-1.275 0-2.4 1.125-2.4 2.475 0 .225 0 .375.075.525a6.901 6.901 0 0 1-5.1-2.55c-.225.375-.3.75-.3 1.275 0 .825.45 1.575 1.125 2.025-.375 0-.75-.15-1.125-.3 0 1.2.825 2.175 1.95 2.4-.225.075-.45.075-.675.075-.15 0-.3 0-.45-.075A2.43 2.43 0 0 0 3.675 8.7C2.85 9.375 1.8 9.75.6 9.75H0c1.125.675 2.4 1.125 3.75 1.125 4.5 0 6.975-3.75 6.975-6.975v-.3c.525-.375.975-.825 1.275-1.35Z"/></svg>