<svg width="12" height="12" viewBox="0 0 12 12" fill="none" xmlns="http://www.w3.org/2000/svg">
<path d="M6.00005 10.5C8.70005 10.5 10.8 8.175 11.7 6.825C12.075 6.3 12.075 5.625 11.7 5.1C10.8 3.825 8.70005 1.5 6.00005 1.5C3.30005 1.5 1.20005 3.825 0.300049 5.175C-0.0749512 5.7 -0.0749512 6.375 0.300049 6.825C1.20005 8.175 3.30005 10.5 6.00005 10.5ZM6.00005 3.75C7.27505 3.75 8.25005 4.725 8.25005 6C8.25005 7.275 7.27505 8.25 6.00005 8.25C4.72505 8.25 3.75005 7.275 3.75005 6C3.75005 4.725 4.72505 3.75 6.00005 3.75Z" fill="black"/>
</svg>
