<svg xmlns="http://www.w3.org/2000/svg" width="12" height="12" viewBox="0 0 12 12"><g clip-path="url(#a)"><path d="M11.231 7.362a4.12 4.12 0 0 1-2.606-.926 4.184 4.184 0 0 1-5.246 0 4.14 4.14 0 0 1-2.62.926H.75a.75.75 0 0 1 0-1.5h.01a2.65 2.65 0 0 0 2.039-.955.75.75 0 0 1 1.15-.001 2.675 2.675 0 0 0 4.1 0 .75.75 0 0 1 .575-.269.67.67 0 0 1 .578.272 2.63 2.63 0 0 0 2.028.953h.02a.75.75 0 1 1 .004 1.5zm0 3.888a4.12 4.12 0 0 1-2.606-.926 4.18 4.18 0 0 1-5.246 0 4.14 4.14 0 0 1-2.62.926H.75a.75.75 0 1 1 0-1.5h.01a2.65 2.65 0 0 0 2.039-.955.75.75 0 0 1 1.15-.002 2.67 2.67 0 0 0 4.1 0 .75.75 0 0 1 1.151.004 2.63 2.63 0 0 0 2.031.953h.019a.75.75 0 1 1 .004 1.5zm0-7.775a4.12 4.12 0 0 1-2.606-.925 4.18 4.18 0 0 1-5.25 0 4.34 4.34 0 0 1-2.625.925.75.75 0 0 1 0-1.5h.01a2.65 2.65 0 0 0 2.039-.955.75.75 0 0 1 1.151-.002 2.66 2.66 0 0 0 1.815.947 2.66 2.66 0 0 0 2.281-.947.75.75 0 0 1 1.155.004 2.63 2.63 0 0 0 2.029.953h.02a.75.75 0 1 1 .004 1.5z"/></g><defs><clipPath id="a"><path fill="#fff" d="M0 0h12v12H0z"/></clipPath></defs></svg>