<svg width="12" height="12" viewBox="0 0 12 12" xmlns="http://www.w3.org/2000/svg"><g clip-path="url(#a)"><path d="M11.25 1.125c0 .621-1.706 1.125-5.25 1.125S.75 1.746.75 1.125 2.456 0 6 0s5.25.504 5.25 1.125Z"/><path fill-rule="evenodd" clip-rule="evenodd" d="M.75 2.33C2.055 2.888 4.038 3 6 3c1.962 0 3.945-.112 5.25-.67v8.545C11.25 11.496 9.544 12 6 12S.75 11.496.75 10.875V2.33ZM8 8.437A2.01 2.01 0 0 1 6 10.5c-.967 0-2-.756-2-2.063C4 7.234 6 5 6 5s2 2.234 2 3.438Z"/></g><defs><clipPath id="a"><path fill="#fff" d="M0 0h12v12H0z"/></clipPath></defs></svg>