<svg width="12" height="12" viewBox="0 0 12 12" xmlns="http://www.w3.org/2000/svg"><g clip-path="url(#a)"><path d="M6.106 5.63c-.036 0-.07-.005-.106-.005-1.425 0-2.7.525-3.675 1.575l1.05 1.05c.598-.665 1.434-1.018 2.295-1.093l.436-1.527Zm1.492.24L7.18 7.332a3.337 3.337 0 0 1 1.445.918l1.05-1.05a4.817 4.817 0 0 0-2.077-1.33Zm-.962-2.09.418-1.46A8.576 8.576 0 0 0 0 4.65L1.05 5.7C2.4 4.425 4.125 3.75 6 3.75c.215 0 .426.011.636.03Zm1.89-1.16-.412 1.443c1.05.32 2.012.89 2.835 1.712L12 4.65a8.581 8.581 0 0 0-3.474-2.03Z"/><path d="M4.5 12a.75.75 0 0 1-.722-.956l3-10.5a.751.751 0 0 1 1.444.411l-3 10.5A.75.75 0 0 1 4.5 12Z"/></g><defs><clipPath id="a"><path fill="#fff" d="M0 0h12v12H0z"/></clipPath></defs></svg>