<svg width="12" height="12" viewBox="0 0 12 12" fill="none" xmlns="http://www.w3.org/2000/svg">
<g clip-path="url(#clip0_1013_691)">
<path d="M6.10645 5.63025C6.07045 5.6295 6.03595 5.625 5.99995 5.625C4.57495 5.625 3.29995 6.15 2.32495 7.2L3.37495 8.25C3.97345 7.5855 4.80895 7.23225 5.66995 7.15725L6.10645 5.63025Z" fill="black"/>
<path d="M7.59756 5.87024L7.17981 7.33199C7.72281 7.51349 8.22831 7.80899 8.62506 8.24999L9.67506 7.19999C9.08256 6.56174 8.37831 6.12074 7.59756 5.87024Z" fill="black"/>
<path d="M6.636 3.77925L7.05375 2.31975C6.7065 2.27775 6.35625 2.25 6 2.25C3.75 2.25 1.65 3.075 0 4.65L1.05 5.7C2.4 4.425 4.125 3.75 6 3.75C6.2145 3.75 6.426 3.76125 6.636 3.77925Z" fill="black"/>
<path d="M8.52603 2.61975L8.11353 4.06275C9.16353 4.38375 10.1265 4.95225 10.9493 5.775L12 4.65C10.9883 3.68475 9.80703 3.00375 8.52603 2.61975Z" fill="black"/>
<path d="M4.50079 12C4.43179 12 4.36279 11.9902 4.29454 11.9707C3.89629 11.8567 3.66529 11.442 3.77854 11.0437L6.77854 0.543744C6.89254 0.144744 7.31179 -0.0855058 7.70554 0.0284942C8.10379 0.142494 8.33479 0.557244 8.22154 0.955494L5.22154 11.4555C5.12704 11.7855 4.82704 12 4.50079 12Z" fill="black"/>
</g>
<defs>
<clipPath id="clip0_1013_691">
<rect width="12" height="12" fill="white"/>
</clipPath>
</defs>
</svg>
