<svg xmlns="http://www.w3.org/2000/svg"
     width="256"
     height="256"
     viewBox="0 0 256 256">
  <g class="nc-icon-wrapper"
     fill="#000000">
    <path
          d="M209.7 110l-26-88.3A8 8 0 0 0 176 16H80a8 8 0 0 0-7.7 5.7l-26 88.3a31.5 31.5 0 0 0 1.5 22.2 88.1 88.1 0 0 0 72.2 51.4V224H88a8 8 0 0 0 0 16h80a8 8 0 0 0 0-16h-32v-40.4a88.1 88.1 0 0 0 72.2-51.4 31.5 31.5 0 0 0 1.5-22.2zm-78.1-13.2c-26.2-13-47.2-13-61.9-9.5L86 32h84l20.8 70.5c-10.7 4.5-31 8.4-59.2-5.7z">
    </path>
  </g>
</svg>
